<svg width="28" height="31" viewBox="0 0 28 31" fill="none" xmlns="http://www.w3.org/2000/svg">
<path d="M3.57613 24.3527C1.76627 24.3527 0.29834 25.824 0.29834 27.6379C0.29834 29.4519 1.76627 30.9231 3.57613 30.9231C5.38598 30.9231 6.85391 29.4519 6.85391 27.6379V24.362H3.76C3.69906 24.3589 3.63811 24.3527 3.57613 24.3527Z" fill="#B44DD9"/>
<path d="M27.914 17.1952C27.9161 17.1744 27.9181 17.1548 27.9202 17.1341C27.9295 17.0471 27.9378 16.9591 27.945 16.8721C27.9471 16.8514 27.9481 16.8307 27.9502 16.809C27.9626 16.6485 27.9739 16.487 27.9811 16.3254C27.9822 16.2954 27.9842 16.2654 27.9863 16.2354C27.9884 16.1753 27.9904 16.1153 27.9925 16.0542C27.9946 15.991 27.9966 15.9289 27.9977 15.8657C27.9977 15.8129 27.9997 15.7591 27.9997 15.7063C27.9997 15.6307 27.9997 15.5551 27.9997 15.4785C27.9997 15.435 27.9997 15.3926 27.9997 15.3491C27.9977 15.229 27.9956 15.1079 27.9904 14.9867C27.9842 14.8252 27.9749 14.6637 27.9636 14.5032C27.9615 14.4804 27.9605 14.4566 27.9584 14.4338C27.9564 14.4048 27.9543 14.3759 27.9512 14.3469C27.9378 14.176 27.9212 14.0052 27.9016 13.8354C27.8985 13.8054 27.8944 13.7753 27.8902 13.7464C27.8706 13.5869 27.8489 13.4285 27.8252 13.2701C27.8221 13.2494 27.819 13.2276 27.8159 13.2069C27.789 13.0382 27.759 12.8694 27.726 12.7017C27.7188 12.6665 27.7126 12.6313 27.7053 12.5971C27.6712 12.4294 27.6351 12.2616 27.5958 12.096C27.5917 12.0805 27.5886 12.0649 27.5845 12.0504C27.5462 11.8931 27.506 11.7357 27.4626 11.5804C27.4553 11.5524 27.4471 11.5245 27.4398 11.4965C27.3944 11.334 27.3458 11.1724 27.2942 11.013C27.2849 10.984 27.2756 10.955 27.2653 10.925C27.2115 10.7614 27.1568 10.5988 27.0979 10.4373C27.0979 10.4373 27.0979 10.4363 27.0979 10.4353C27.039 10.2727 26.976 10.1112 26.9109 9.95071C26.8996 9.92276 26.8882 9.8948 26.8768 9.86788C26.8118 9.71051 26.7457 9.55417 26.6754 9.3999C26.6671 9.3823 26.6589 9.36469 26.6506 9.34709C26.5814 9.19593 26.5112 9.04684 26.4378 8.89878C26.4316 8.88532 26.4254 8.8729 26.4182 8.85944C26.3407 8.70517 26.2612 8.55297 26.1796 8.40284C26.1672 8.38006 26.1548 8.35729 26.1424 8.33451C25.9729 8.027 25.7932 7.72571 25.6042 7.43167C25.5938 7.41614 25.5845 7.40061 25.5742 7.38508C25.4792 7.23909 25.3821 7.09414 25.2829 6.9523C25.2736 6.93884 25.2643 6.92538 25.255 6.91192C25.0505 6.62098 24.8356 6.33729 24.6114 6.06188C24.6011 6.04946 24.5908 6.03703 24.5804 6.02358C24.349 5.74092 24.1073 5.46551 23.8552 5.20046C23.8552 5.20046 23.8552 5.20046 23.8552 5.19943C23.7303 5.0669 23.6022 4.93748 23.472 4.81013C23.4648 4.80288 23.4575 4.79563 23.4503 4.78942C23.1889 4.53369 22.9183 4.28727 22.6394 4.05121C22.6363 4.04914 22.6332 4.04603 22.6301 4.04396C22.2045 3.68365 21.7592 3.34716 21.2954 3.03552C21.2934 3.03345 21.2903 3.03241 21.2882 3.03034C19.0362 1.51974 16.3617 0.59827 13.4889 0.494734C9.38465 0.345641 5.62547 1.85417 2.82391 4.40116C2.79499 4.42808 2.76503 4.45396 2.73611 4.48088C2.68032 4.53162 2.62557 4.58442 2.57082 4.63619C2.53053 4.6745 2.49128 4.7128 2.45099 4.75111C2.40347 4.7977 2.35492 4.8443 2.3074 4.89192C2.26092 4.93851 2.21443 4.98511 2.16794 5.03273C2.12662 5.07518 2.0853 5.1166 2.04501 5.16008C1.99026 5.21806 1.93551 5.27708 1.88076 5.33506C1.84874 5.36923 1.81775 5.40339 1.78572 5.43756C1.69998 5.53178 1.61528 5.62807 1.5316 5.72436C1.48821 5.77509 1.44689 5.82582 1.40557 5.87759C1.37458 5.9159 1.34462 5.95524 1.31467 5.99355C0.55126 7.00303 0.149414 8.24961 0.149414 9.52518V17.9965C0.149414 18.6819 0.344656 19.3208 0.681421 19.8633C0.681421 19.8633 0.681421 19.8633 0.681421 19.8643C0.686587 19.8726 0.691752 19.8798 0.696917 19.8871C0.725842 19.9327 0.755799 19.9782 0.78679 20.0227C0.796087 20.0362 0.805384 20.0496 0.815715 20.0631C0.849804 20.1107 0.884927 20.1563 0.921083 20.2018C0.937611 20.2226 0.95414 20.2422 0.970668 20.2629C0.996494 20.294 1.02232 20.324 1.04814 20.353C1.06674 20.3737 1.0843 20.3944 1.10393 20.4141C1.10909 20.4193 1.11426 20.4255 1.11942 20.4307C1.76403 21.113 2.67516 21.5395 3.68649 21.5395C5.63684 21.5395 7.2184 19.9575 7.22356 18.0038L7.24009 11.2346C7.24009 11.1787 7.24112 11.1238 7.24422 11.0689C7.24422 11.0534 7.24629 11.0378 7.24732 11.0233C7.24939 10.983 7.25145 10.9436 7.25455 10.9043C7.25559 10.8877 7.25765 10.8711 7.25972 10.8546C7.26385 10.8152 7.26695 10.7769 7.27211 10.7386C7.27418 10.7231 7.27625 10.7086 7.27831 10.6941C7.28348 10.6537 7.28968 10.6123 7.29587 10.5719C7.29794 10.5595 7.30001 10.5481 7.30207 10.5357C7.3093 10.4912 7.31757 10.4466 7.32687 10.4032C7.32893 10.3949 7.32996 10.3876 7.33203 10.3794C7.34236 10.3297 7.35372 10.28 7.36612 10.2313C7.36612 10.2292 7.36612 10.2272 7.36715 10.2261C7.50351 9.68462 7.74731 9.17936 8.07787 8.74037C8.07787 8.74037 8.07581 8.74037 8.07477 8.74141C8.51588 8.15435 9.11503 7.6874 9.82885 7.41303C10.2648 7.2453 10.7183 7.11278 11.1852 7.01752C11.1852 7.01752 11.1862 7.01752 11.1873 7.01752C11.2534 7.00406 11.3185 6.99164 11.3846 6.97922C11.3908 6.97818 11.397 6.97715 11.4042 6.97611C11.4559 6.96679 11.5065 6.95851 11.5581 6.95023C11.6015 6.94298 11.6439 6.93677 11.6873 6.93055C11.7203 6.92538 11.7534 6.92124 11.7864 6.91606C11.8711 6.90467 11.9558 6.89432 12.0416 6.88603C12.335 6.85497 12.6325 6.83944 12.9341 6.83944C17.4309 6.83944 21.1446 10.2665 21.6115 14.6513C21.6115 14.6523 21.6115 14.6544 21.6115 14.6554C21.6446 14.967 21.6611 15.2839 21.6611 15.6038C21.6611 15.6214 21.6611 15.638 21.6611 15.6556C21.6611 15.757 21.658 15.8595 21.6539 15.962C21.6487 16.0852 21.6404 16.2074 21.6301 16.3296C21.628 16.3534 21.626 16.3762 21.6239 16.4C21.6136 16.5139 21.6002 16.6278 21.5857 16.7406C21.5816 16.7707 21.5774 16.7996 21.5733 16.8297C21.5578 16.9373 21.5413 17.044 21.5216 17.1506C21.5154 17.1817 21.5093 17.2128 21.5031 17.2438C21.4876 17.3266 21.47 17.4084 21.4514 17.4902C21.4421 17.5327 21.4328 17.5751 21.4225 17.6176C21.4008 17.7066 21.3781 17.7957 21.3533 17.8837C21.3378 17.9385 21.3223 17.9934 21.3068 18.0483C21.2923 18.097 21.2768 18.1446 21.2624 18.1932C21.2314 18.2906 21.1993 18.3869 21.1663 18.4831C21.156 18.5111 21.1467 18.5391 21.1363 18.567C21.0072 18.9201 20.8564 19.2638 20.6849 19.5951C20.3874 20.1687 20.0289 20.7061 19.6168 21.1979C19.5258 21.3066 19.4329 21.4122 19.3368 21.5168C19.3347 21.5188 19.3327 21.5219 19.3306 21.524C19.2356 21.6265 19.1385 21.7269 19.0393 21.8243C19.0372 21.8263 19.0352 21.8284 19.0321 21.8315C18.4236 22.4289 17.7294 22.9393 16.9691 23.34C16.9536 23.3483 16.9371 23.3556 16.9216 23.3638C16.8152 23.4187 16.7088 23.4715 16.6003 23.5223C16.5693 23.5368 16.5373 23.5512 16.5053 23.5647C16.4113 23.6072 16.3173 23.6486 16.2212 23.6879C16.1809 23.7045 16.1396 23.721 16.0983 23.7366C16.0105 23.7707 15.9216 23.8049 15.8328 23.836C15.7863 23.8525 15.7398 23.8691 15.6923 23.8846C15.6066 23.9136 15.5208 23.9405 15.434 23.9664C15.3834 23.982 15.3338 23.9965 15.2832 24.0109C15.1985 24.0348 15.1128 24.0565 15.026 24.0782C14.9733 24.0917 14.9217 24.1041 14.869 24.1166C14.7812 24.1362 14.6934 24.1538 14.6045 24.1714C14.5529 24.1818 14.5012 24.1921 14.4496 24.2015C14.3535 24.218 14.2574 24.2325 14.1603 24.246C14.1149 24.2522 14.0704 24.2605 14.025 24.2656C13.8824 24.2833 13.7388 24.2977 13.5953 24.3091C13.3948 24.3236 13.1944 24.3319 12.9971 24.3329C11.5798 24.3423 10.3856 25.3031 10.0613 26.618C9.9869 26.8768 9.94661 27.1512 9.94661 27.4359V27.8418C9.94661 29.459 11.2668 30.7833 12.8804 30.7853H12.9104C18.3833 30.7853 23.1828 27.8449 25.8221 23.4591C25.8046 23.4695 25.788 23.4798 25.7705 23.4902C26.9202 21.6213 27.6743 19.4854 27.9181 17.1972L27.914 17.1952Z" fill="#B44DD9"/>
</svg>
