<svg width="25" height="32" viewBox="0 0 25 32" fill="none" xmlns="http://www.w3.org/2000/svg">
<path d="M12.4961 31.4385C11.6676 31.4385 10.8729 31.1119 10.2871 30.5305C9.70121 29.9491 9.37207 29.1606 9.37207 28.3385H15.6201C15.6201 29.1606 15.291 29.9491 14.7051 30.5305C14.1192 31.1119 13.3246 31.4385 12.4961 31.4385ZM24.9922 26.7885H0V23.6885L3.12402 22.1385V13.6135C3.04173 11.4266 3.53942 9.25663 4.56732 7.32048C5.07316 6.43275 5.76293 5.66153 6.59114 5.05771C7.41935 4.45389 8.36717 4.03118 9.37207 3.81748V0.438483H15.0672C14.0776 1.5359 13.4635 2.91594 13.3127 4.38091C13.1619 5.84589 13.4823 7.32063 14.2279 8.59387C14.9735 9.86712 16.106 10.8735 17.4633 11.4689C18.8206 12.0644 20.333 12.2182 21.7838 11.9085C21.8385 12.4618 21.865 13.0353 21.865 13.6135V22.1385L24.9891 23.6885V26.7885H24.9922ZM20.3062 9.73848C19.6908 9.73746 19.0816 9.61618 18.5135 9.38156C17.9453 9.14693 17.4293 8.80356 16.9949 8.37105C16.5605 7.93854 16.2162 7.42535 15.9816 6.8608C15.7471 6.29625 15.6269 5.69138 15.6279 5.08073C15.629 4.47009 15.7512 3.86562 15.9876 3.30184C16.2241 2.73807 16.5701 2.22603 17.006 1.79496C17.4418 1.36388 17.959 1.02222 18.5279 0.789477C19.0968 0.556733 19.7064 0.437465 20.3218 0.438483C21.5646 0.440538 22.7557 0.932419 23.633 1.80592C24.5103 2.67941 25.0021 3.86298 25 5.09623C24.9979 6.32949 24.5022 7.51142 23.622 8.38201C22.7417 9.2526 21.549 9.74054 20.3062 9.73848Z" fill="#63CEF0"/>
</svg>
