<svg width="32" height="32" viewBox="0 0 32 32" fill="none" xmlns="http://www.w3.org/2000/svg">
<path d="M27.1663 24.9534C27.8568 23.8705 28.2491 22.5679 28.2491 21.1869C28.2491 17.2634 25.1103 14.1246 21.1869 14.1246C17.2634 14.1246 14.1246 17.2634 14.1246 21.1869C14.1246 25.1103 17.2634 28.2491 21.1869 28.2491C22.5522 28.2491 23.8391 27.8568 24.922 27.182L29.8185 32L32 29.8185L27.1663 24.9534ZM21.1869 25.1103C20.1463 25.1103 19.1483 24.697 18.4125 23.9612C17.6767 23.2254 17.2634 22.2274 17.2634 21.1869C17.2634 20.1463 17.6767 19.1483 18.4125 18.4125C19.1483 17.6767 20.1463 17.2634 21.1869 17.2634C22.2274 17.2634 23.2254 17.6767 23.9612 18.4125C24.697 19.1483 25.1103 20.1463 25.1103 21.1869C25.1103 22.2274 24.697 23.2254 23.9612 23.9612C23.2254 24.697 22.2274 25.1103 21.1869 25.1103ZM4.70819 26.6797V14.1246H0L15.694 0L31.3879 14.1246H28.5316C26.6797 12.1942 24.0745 10.9858 21.1869 10.9858C15.5684 10.9858 10.9858 15.5684 10.9858 21.1869C10.9858 23.2114 11.5821 25.1103 12.6023 26.6797H4.70819Z" fill="#70A4F2"/>
</svg>
