<svg width="32" height="33" viewBox="0 0 32 33" fill="none" xmlns="http://www.w3.org/2000/svg">
<path d="M27.1663 25.8765C27.8568 24.7936 28.2491 23.491 28.2491 22.11C28.2491 18.1865 25.1103 15.0477 21.1869 15.0477C17.2634 15.0477 14.1246 18.1865 14.1246 22.11C14.1246 26.0334 17.2634 29.1722 21.1869 29.1722C22.5522 29.1722 23.8391 28.7799 24.922 28.105L29.8185 32.9231L32 30.7416L27.1663 25.8765ZM21.1869 26.0334C20.1463 26.0334 19.1483 25.6201 18.4125 24.8843C17.6767 24.1485 17.2634 23.1505 17.2634 22.11C17.2634 21.0694 17.6767 20.0714 18.4125 19.3356C19.1483 18.5998 20.1463 18.1865 21.1869 18.1865C22.2274 18.1865 23.2254 18.5998 23.9612 19.3356C24.697 20.0714 25.1103 21.0694 25.1103 22.11C25.1103 23.1505 24.697 24.1485 23.9612 24.8843C23.2254 25.6201 22.2274 26.0334 21.1869 26.0334ZM4.70819 27.6028V15.0477H0L15.694 0.923096L31.3879 15.0477H28.5316C26.6797 13.1173 24.0745 11.9089 21.1869 11.9089C15.5684 11.9089 10.9858 16.4915 10.9858 22.11C10.9858 24.1345 11.5821 26.0334 12.6023 27.6028H4.70819Z" fill="#CBCBCB"/>
</svg>
