<svg width="30" height="31" viewBox="0 0 30 31" fill="none" xmlns="http://www.w3.org/2000/svg">
<path d="M20.625 12.1731C20.625 13.6649 20.0324 15.0957 18.9775 16.1506C17.9226 17.2055 16.4918 17.7981 15 17.7981C13.5082 17.7981 12.0774 17.2055 11.0225 16.1506C9.96763 15.0957 9.375 13.6649 9.375 12.1731C9.375 10.6813 9.96763 9.25051 11.0225 8.19562C12.0774 7.14073 13.5082 6.5481 15 6.5481C16.4918 6.5481 17.9226 7.14073 18.9775 8.19562C20.0324 9.25051 20.625 10.6813 20.625 12.1731Z" fill="#CBCBCB"/>
<path fill-rule="evenodd" clip-rule="evenodd" d="M0 15.9231C0 11.9448 1.58035 8.12954 4.3934 5.31649C7.20644 2.50345 11.0218 0.923096 15 0.923096C18.9782 0.923096 22.7936 2.50345 25.6066 5.31649C28.4196 8.12954 30 11.9448 30 15.9231C30 19.9013 28.4196 23.7167 25.6066 26.5297C22.7936 29.3427 18.9782 30.9231 15 30.9231C11.0218 30.9231 7.20644 29.3427 4.3934 26.5297C1.58035 23.7167 0 19.9013 0 15.9231ZM15 2.7981C12.5283 2.79823 10.1069 3.49628 8.0145 4.8119C5.92207 6.12752 4.24366 8.00724 3.17243 10.2347C2.10121 12.4622 1.68072 14.9469 1.95937 17.4028C2.23802 19.8587 3.20447 22.186 4.7475 24.1168C6.07875 21.9718 9.00938 19.6731 15 19.6731C20.9906 19.6731 23.9194 21.97 25.2525 24.1168C26.7955 22.186 27.762 19.8587 28.0406 17.4028C28.3193 14.9469 27.8988 12.4622 26.8276 10.2347C25.7563 8.00724 24.0779 6.12752 21.9855 4.8119C19.8931 3.49628 17.4717 2.79823 15 2.7981Z" fill="#CBCBCB"/>
</svg>
