<svg width="25" height="32" viewBox="0 0 25 32" fill="none" xmlns="http://www.w3.org/2000/svg">
<path d="M12.4961 31.9231C11.6676 31.9231 10.8729 31.5965 10.2871 31.0151C9.70121 30.4338 9.37207 29.6453 9.37207 28.8231H15.6201C15.6201 29.6453 15.291 30.4338 14.7051 31.0151C14.1192 31.5965 13.3246 31.9231 12.4961 31.9231ZM24.9922 27.2731H0V24.1731L3.12402 22.6231V14.0981C3.04173 11.9112 3.53942 9.74125 4.56732 7.8051C5.07316 6.91737 5.76293 6.14615 6.59114 5.54233C7.41935 4.93851 8.36717 4.5158 9.37207 4.3021V0.923102H15.0672C14.0776 2.02052 13.4635 3.40056 13.3127 4.86553C13.1619 6.33051 13.4823 7.80525 14.2279 9.07849C14.9735 10.3517 16.106 11.3581 17.4633 11.9536C18.8206 12.549 20.333 12.7028 21.7838 12.3931C21.8385 12.9464 21.865 13.5199 21.865 14.0981V22.6231L24.9891 24.1731V27.2731H24.9922ZM20.3062 10.2231C19.6908 10.2221 19.0816 10.1008 18.5135 9.86617C17.9453 9.63155 17.4293 9.28818 16.9949 8.85567C16.5605 8.42316 16.2162 7.90997 15.9816 7.34542C15.7471 6.78087 15.6269 6.176 15.6279 5.56535C15.629 4.9547 15.7512 4.35024 15.9876 3.78646C16.2241 3.22269 16.5701 2.71065 17.006 2.27958C17.4418 1.8485 17.959 1.50684 18.5279 1.2741C19.0968 1.04135 19.7064 0.922084 20.3218 0.923102C21.5646 0.925158 22.7557 1.41704 23.633 2.29054C24.5103 3.16403 25.0021 4.34759 25 5.58085C24.9979 6.81411 24.5022 7.99604 23.622 8.86663C22.7417 9.73722 21.549 10.2252 20.3062 10.2231Z" fill="#CBCBCB"/>
</svg>
