<svg width="30" height="31" viewBox="0 0 30 31" fill="none" xmlns="http://www.w3.org/2000/svg">
<path d="M20.625 11.6885C20.625 13.1803 20.0324 14.6111 18.9775 15.666C17.9226 16.7208 16.4918 17.3135 15 17.3135C13.5082 17.3135 12.0774 16.7208 11.0225 15.666C9.96763 14.6111 9.375 13.1803 9.375 11.6885C9.375 10.1966 9.96763 8.76589 11.0225 7.711C12.0774 6.65611 13.5082 6.06348 15 6.06348C16.4918 6.06348 17.9226 6.65611 18.9775 7.711C20.0324 8.76589 20.625 10.1966 20.625 11.6885Z" fill="#69E4BF"/>
<path fill-rule="evenodd" clip-rule="evenodd" d="M0 15.4385C0 11.4602 1.58035 7.64492 4.3934 4.83187C7.20644 2.01883 11.0218 0.438477 15 0.438477C18.9782 0.438477 22.7936 2.01883 25.6066 4.83187C28.4196 7.64492 30 11.4602 30 15.4385C30 19.4167 28.4196 23.232 25.6066 26.0451C22.7936 28.8581 18.9782 30.4385 15 30.4385C11.0218 30.4385 7.20644 28.8581 4.3934 26.0451C1.58035 23.232 0 19.4167 0 15.4385ZM15 2.31348C12.5283 2.31361 10.1069 3.01166 8.01451 4.32728C5.92207 5.6429 4.24366 7.52262 3.17243 9.75009C2.10121 11.9776 1.68072 14.4622 1.95937 16.9181C2.23802 19.3741 3.20447 21.7014 4.7475 23.6322C6.07875 21.4872 9.00938 19.1885 15 19.1885C20.9906 19.1885 23.9194 21.4854 25.2525 23.6322C26.7955 21.7014 27.762 19.3741 28.0406 16.9181C28.3193 14.4622 27.8988 11.9776 26.8276 9.75009C25.7563 7.52262 24.0779 5.6429 21.9855 4.32728C19.8931 3.01166 17.4717 2.31361 15 2.31348Z" fill="#69E4BF"/>
</svg>
