<svg width="28" height="31" viewBox="0 0 28 31" fill="none" xmlns="http://www.w3.org/2000/svg">
<path d="M3.57613 23.868C1.76627 23.868 0.29834 25.3393 0.29834 27.1533C0.29834 28.9672 1.76627 30.4385 3.57613 30.4385C5.38598 30.4385 6.85391 28.9672 6.85391 27.1533V23.8774H3.76C3.69906 23.8743 3.63811 23.868 3.57613 23.868Z" fill="#CBCBCB"/>
<path d="M27.914 16.7105C27.9161 16.6898 27.9181 16.6702 27.9202 16.6494C27.9295 16.5625 27.9378 16.4745 27.945 16.3875C27.9471 16.3668 27.9481 16.3461 27.9502 16.3243C27.9626 16.1639 27.9739 16.0023 27.9811 15.8408C27.9822 15.8108 27.9842 15.7808 27.9863 15.7507C27.9884 15.6907 27.9904 15.6306 27.9925 15.5696C27.9946 15.5064 27.9966 15.4443 27.9977 15.3811C27.9977 15.3283 27.9997 15.2745 27.9997 15.2217C27.9997 15.1461 27.9997 15.0705 27.9997 14.9939C27.9997 14.9504 27.9997 14.908 27.9997 14.8645C27.9977 14.7444 27.9956 14.6232 27.9904 14.5021C27.9842 14.3406 27.9749 14.1791 27.9636 14.0186C27.9615 13.9958 27.9605 13.972 27.9584 13.9492C27.9564 13.9202 27.9543 13.8912 27.9512 13.8622C27.9378 13.6914 27.9212 13.5206 27.9016 13.3508C27.8985 13.3208 27.8944 13.2907 27.8902 13.2617C27.8706 13.1023 27.8489 12.9439 27.8252 12.7855C27.8221 12.7648 27.819 12.743 27.8159 12.7223C27.789 12.5535 27.759 12.3848 27.726 12.2171C27.7188 12.1818 27.7126 12.1466 27.7053 12.1125C27.6712 11.9448 27.6351 11.777 27.5958 11.6114C27.5917 11.5958 27.5886 11.5803 27.5845 11.5658C27.5462 11.4084 27.506 11.2511 27.4626 11.0958C27.4553 11.0678 27.4471 11.0398 27.4398 11.0119C27.3944 10.8493 27.3458 10.6878 27.2942 10.5284C27.2849 10.4994 27.2756 10.4704 27.2653 10.4404C27.2115 10.2768 27.1568 10.1142 27.0979 9.95271C27.0979 9.95271 27.0979 9.95168 27.0979 9.95064C27.039 9.78809 26.976 9.62657 26.9109 9.46609C26.8996 9.43814 26.8882 9.41018 26.8768 9.38326C26.8118 9.22589 26.7457 9.06955 26.6754 8.91528C26.6671 8.89768 26.6589 8.88007 26.6506 8.86247C26.5814 8.71131 26.5112 8.56222 26.4378 8.41416C26.4316 8.4007 26.4254 8.38828 26.4182 8.37482C26.3407 8.22055 26.2612 8.06835 26.1796 7.91822C26.1672 7.89544 26.1548 7.87267 26.1424 7.84989C25.9729 7.54238 25.7932 7.24109 25.6042 6.94705C25.5938 6.93152 25.5845 6.91599 25.5742 6.90046C25.4792 6.75447 25.3821 6.60952 25.2829 6.46768C25.2736 6.45422 25.2643 6.44076 25.255 6.4273C25.0505 6.13636 24.8356 5.85267 24.6114 5.57726C24.6011 5.56484 24.5908 5.55242 24.5804 5.53896C24.349 5.2563 24.1073 4.9809 23.8552 4.71584C23.8552 4.71584 23.8552 4.71584 23.8552 4.71481C23.7303 4.58228 23.6022 4.45286 23.472 4.32551C23.4648 4.31826 23.4575 4.31102 23.4503 4.3048C23.1889 4.04907 22.9183 3.80265 22.6394 3.56659C22.6363 3.56452 22.6332 3.56141 22.6301 3.55934C22.2045 3.19903 21.7592 2.86254 21.2954 2.5509C21.2933 2.54883 21.2903 2.54779 21.2882 2.54572C19.0362 1.03512 16.3617 0.113651 13.4889 0.0101145C9.38465 -0.138978 5.62547 1.36955 2.82391 3.91654C2.79499 3.94346 2.76503 3.96934 2.73611 3.99626C2.68032 4.047 2.62557 4.0998 2.57082 4.15157C2.53053 4.18988 2.49128 4.22819 2.45099 4.26649C2.40347 4.31309 2.35492 4.35968 2.3074 4.4073C2.26092 4.4539 2.21443 4.50049 2.16794 4.54811C2.12662 4.59056 2.0853 4.63198 2.04501 4.67546C1.99026 4.73344 1.93551 4.79246 1.88076 4.85044C1.84874 4.88461 1.81775 4.91877 1.78572 4.95294C1.69998 5.04716 1.61528 5.14345 1.5316 5.23974C1.48821 5.29047 1.44689 5.3412 1.40557 5.39297C1.37458 5.43128 1.34462 5.47062 1.31467 5.50893C0.55126 6.51841 0.149414 7.76499 0.149414 9.04056V17.5119C0.149414 18.1973 0.344656 18.8361 0.681421 19.3787C0.681421 19.3787 0.681421 19.3787 0.681421 19.3797C0.686587 19.388 0.691752 19.3952 0.696917 19.4025C0.725841 19.448 0.755799 19.4936 0.78679 19.5381C0.796087 19.5516 0.805384 19.565 0.815715 19.5785C0.849804 19.6261 0.884927 19.6717 0.921083 19.7172C0.937611 19.7379 0.95414 19.7576 0.970668 19.7783C0.996494 19.8094 1.02232 19.8394 1.04814 19.8684C1.06674 19.8891 1.0843 19.9098 1.10393 19.9295C1.10909 19.9347 1.11426 19.9409 1.11942 19.946C1.76403 20.6283 2.67516 21.0549 3.68649 21.0549C5.63684 21.0549 7.2184 19.4729 7.22356 17.5192L7.24009 10.7499C7.24009 10.694 7.24112 10.6392 7.24422 10.5843C7.24422 10.5688 7.24629 10.5532 7.24732 10.5387C7.24939 10.4983 7.25145 10.459 7.25455 10.4197C7.25559 10.4031 7.25765 10.3865 7.25972 10.37C7.26385 10.3306 7.26695 10.2923 7.27211 10.254C7.27418 10.2385 7.27625 10.224 7.27831 10.2095C7.28348 10.1691 7.28968 10.1277 7.29587 10.0873C7.29794 10.0749 7.30001 10.0635 7.30207 10.0511C7.3093 10.0066 7.31757 9.96203 7.32687 9.91854C7.32893 9.91026 7.32996 9.90301 7.33203 9.89473C7.34236 9.84503 7.35372 9.79534 7.36612 9.74667C7.36612 9.7446 7.36612 9.74253 7.36715 9.7415C7.50351 9.2 7.74731 8.69474 8.07787 8.25575C8.07787 8.25575 8.07581 8.25575 8.07477 8.25679C8.51588 7.66973 9.11503 7.20279 9.82885 6.92841C10.2648 6.76069 10.7183 6.62816 11.1852 6.53291C11.1852 6.53291 11.1862 6.53291 11.1873 6.53291C11.2534 6.51945 11.3185 6.50702 11.3846 6.4946C11.3908 6.49356 11.397 6.49253 11.4042 6.49149C11.4559 6.48217 11.5065 6.47389 11.5581 6.46561C11.6015 6.45836 11.6439 6.45215 11.6873 6.44593C11.7203 6.44076 11.7534 6.43662 11.7864 6.43144C11.8711 6.42005 11.9558 6.4097 12.0416 6.40141C12.335 6.37035 12.6325 6.35482 12.9341 6.35482C17.4309 6.35482 21.1446 9.78188 21.6115 14.1666C21.6115 14.1677 21.6115 14.1697 21.6115 14.1708C21.6446 14.4824 21.6611 14.7992 21.6611 15.1192C21.6611 15.1368 21.6611 15.1533 21.6611 15.1709C21.6611 15.2724 21.658 15.3749 21.6539 15.4774C21.6487 15.6006 21.6404 15.7228 21.6301 15.845C21.6281 15.8688 21.626 15.8916 21.6239 15.9154C21.6136 16.0293 21.6002 16.1432 21.5857 16.256C21.5816 16.286 21.5774 16.315 21.5733 16.345C21.5578 16.4527 21.5413 16.5594 21.5216 16.666C21.5155 16.6971 21.5093 16.7281 21.5031 16.7592C21.4876 16.842 21.47 16.9238 21.4514 17.0056C21.4421 17.0481 21.4328 17.0905 21.4225 17.133C21.4008 17.222 21.3781 17.311 21.3533 17.399C21.3378 17.4539 21.3223 17.5088 21.3068 17.5637C21.2923 17.6123 21.2768 17.66 21.2624 17.7086C21.2314 17.8059 21.1993 17.9022 21.1663 17.9985C21.156 18.0265 21.1467 18.0544 21.1363 18.0824C21.0072 18.4354 20.8564 18.7792 20.6849 19.1105C20.3874 19.6841 20.0289 20.2214 19.6168 20.7132C19.5258 20.822 19.4329 20.9276 19.3368 21.0321C19.3347 21.0342 19.3327 21.0373 19.3306 21.0394C19.2356 21.1419 19.1385 21.2423 19.0393 21.3396C19.0372 21.3417 19.0352 21.3438 19.0321 21.3469C18.4236 21.9443 17.7294 22.4547 16.9691 22.8554C16.9536 22.8637 16.9371 22.8709 16.9216 22.8792C16.8152 22.9341 16.7088 22.9869 16.6003 23.0376C16.5693 23.0521 16.5373 23.0666 16.5053 23.0801C16.4113 23.1225 16.3173 23.164 16.2212 23.2033C16.1809 23.2199 16.1396 23.2364 16.0983 23.252C16.0105 23.2861 15.9216 23.3203 15.8328 23.3514C15.7863 23.3679 15.7398 23.3845 15.6923 23.4C15.6066 23.429 15.5208 23.4559 15.434 23.4818C15.3834 23.4973 15.3338 23.5118 15.2832 23.5263C15.1985 23.5501 15.1128 23.5719 15.026 23.5936C14.9733 23.6071 14.9217 23.6195 14.869 23.6319C14.7812 23.6516 14.6934 23.6692 14.6045 23.6868C14.5529 23.6972 14.5012 23.7075 14.4496 23.7168C14.3535 23.7334 14.2574 23.7479 14.1603 23.7614C14.1149 23.7676 14.0704 23.7759 14.025 23.781C13.8824 23.7986 13.7388 23.8131 13.5953 23.8245C13.3948 23.839 13.1944 23.8473 12.9971 23.8483C11.5798 23.8576 10.3856 24.8185 10.0613 26.1334C9.9869 26.3922 9.94661 26.6666 9.94661 26.9513V27.3572C9.94661 28.9744 11.2668 30.2986 12.8804 30.3007H12.9104C18.3833 30.3007 23.1828 27.3603 25.8221 22.9745C25.8046 22.9848 25.788 22.9952 25.7705 23.0055C26.9202 21.1367 27.6743 19.0008 27.9181 16.7126L27.914 16.7105Z" fill="#CBCBCB"/>
</svg>
