<svg width="32" height="23" viewBox="0 0 32 23" fill="none" xmlns="http://www.w3.org/2000/svg">
<path d="M8 23C5.79394 23 3.90933 22.2453 2.34618 20.7359C0.782061 19.2266 0 17.3818 0 15.2016C0 13.3328 0.569697 11.6677 1.70909 10.2063C2.84848 8.74479 4.33939 7.81042 6.18182 7.40312C6.78788 5.19896 8 3.41406 9.81818 2.04844C11.6364 0.682813 13.697 0 16 0C18.8364 0 21.2422 0.976063 23.2175 2.92819C25.1937 4.88127 26.1818 7.25937 26.1818 10.0625C27.8545 10.2542 29.2427 10.9667 30.3462 12.2001C31.4487 13.4344 32 14.8781 32 16.5312C32 18.3281 31.3639 19.8557 30.0916 21.114C28.8184 22.3713 27.2727 23 25.4545 23H8ZM13.6 18.0766C13.7939 18.0766 13.9758 18.0464 14.1455 17.986C14.3152 17.9266 14.4727 17.825 14.6182 17.6812L20.7636 11.6078C21.0545 11.3203 21.2 10.9729 21.2 10.5656C21.2 10.1583 21.0545 9.81094 20.7636 9.52344C20.4727 9.23594 20.1212 9.09219 19.7091 9.09219C19.297 9.09219 18.9455 9.23594 18.6545 9.52344L13.5636 14.5547L11.5273 12.5422C11.2606 12.2786 10.9212 12.1469 10.5091 12.1469C10.097 12.1469 9.75758 12.2786 9.49091 12.5422C9.2 12.8297 9.05455 13.1771 9.05455 13.5844C9.05455 13.9917 9.2 14.3271 9.49091 14.5906L12.5818 17.6812C12.7273 17.825 12.8848 17.9266 13.0545 17.986C13.2242 18.0464 13.4061 18.0766 13.6 18.0766Z" fill="white"/>
</svg>
