<svg width="19" height="18" viewBox="0 0 19 18" fill="none" xmlns="http://www.w3.org/2000/svg">
<path d="M1.9 13.5442H17.1V1.93489H14.725V7.86048C14.725 8.05397 14.6458 8.1949 14.4875 8.28326C14.3292 8.37226 14.1708 8.36839 14.0125 8.27165L12.35 7.25583L10.6875 8.27165C10.5292 8.36839 10.3708 8.37226 10.2125 8.28326C10.0542 8.1949 9.975 8.05397 9.975 7.86048V1.93489H1.9V13.5442ZM0 17.0028V1.93489C0 1.40279 0.1862 0.947128 0.5586 0.56789C0.930367 0.189296 1.3775 0 1.9 0H17.1C17.6225 0 18.07 0.189296 18.4424 0.56789C18.8141 0.947128 19 1.40279 19 1.93489V13.5442C19 14.0763 18.8141 14.532 18.4424 14.9112C18.07 15.2898 17.6225 15.4791 17.1 15.4791H3.8L1.615 17.7042C1.31417 18.0106 0.969633 18.079 0.5814 17.9093C0.1938 17.7403 0 17.4382 0 17.0028Z" fill="#B4BABF"/>
</svg>
