<svg width="17" height="20" viewBox="0 0 17 20" fill="none" xmlns="http://www.w3.org/2000/svg">
<path d="M6 16C5.45 16 4.97933 15.8043 4.588 15.413C4.196 15.021 4 14.55 4 14V2C4 1.45 4.196 0.979 4.588 0.587C4.97933 0.195667 5.45 0 6 0H15C15.55 0 16.021 0.195667 16.413 0.587C16.8043 0.979 17 1.45 17 2V14C17 14.55 16.8043 15.021 16.413 15.413C16.021 15.8043 15.55 16 15 16H6ZM6 14H15V2H6V14ZM2 20C1.45 20 0.979 19.8043 0.587 19.413C0.195667 19.021 0 18.55 0 18V5C0 4.71667 0.0960001 4.479 0.288 4.287C0.479333 4.09567 0.716667 4 1 4C1.28333 4 1.521 4.09567 1.713 4.287C1.90433 4.479 2 4.71667 2 5V18H12C12.2833 18 12.521 18.096 12.713 18.288C12.9043 18.4793 13 18.7167 13 19C13 19.2833 12.9043 19.5207 12.713 19.712C12.521 19.904 12.2833 20 12 20H2Z" fill="black"/>
</svg>
