<svg width="17" height="19" viewBox="0 0 17 19" fill="none" xmlns="http://www.w3.org/2000/svg">
<path d="M10.6533 5.51179e-08C11.0498 0.000103417 11.4361 0.125671 11.7577 0.358917C12.0792 0.592163 12.3197 0.921263 12.4449 1.2996L12.9578 2.85H16.0556C16.306 2.85 16.5463 2.95009 16.7234 3.12825C16.9005 3.30641 17 3.54804 17 3.8C17 4.05196 16.9005 4.29359 16.7234 4.47175C16.5463 4.64991 16.306 4.75 16.0556 4.75L16.0527 4.81745L15.2339 16.3533C15.1828 17.0721 14.8629 17.7447 14.3386 18.2358C13.8143 18.7269 13.1245 18.9999 12.4081 19H4.59189C3.87549 18.9999 3.18571 18.7269 2.66141 18.2358C2.13711 17.7447 1.81721 17.0721 1.76611 16.3533L0.947278 4.8165C0.945569 4.79437 0.944624 4.77219 0.944444 4.75C0.693962 4.75 0.453739 4.64991 0.276621 4.47175C0.0995036 4.29359 0 4.05196 0 3.8C0 3.54804 0.0995036 3.30641 0.276621 3.12825C0.453739 2.95009 0.693962 2.85 0.944444 2.85H4.04222L4.55506 1.2996C4.68038 0.921109 4.92097 0.591899 5.2427 0.358639C5.56444 0.125379 5.95101 -9.60082e-05 6.34761 5.51179e-08H10.6533ZM14.1638 4.75H2.83617L3.65028 16.2174C3.66723 16.457 3.77379 16.6813 3.94849 16.845C4.1232 17.0088 4.35309 17.0999 4.59189 17.1H12.4081C12.6469 17.0999 12.8768 17.0088 13.0515 16.845C13.2262 16.6813 13.3328 16.457 13.3497 16.2174L14.1638 4.75ZM6.61111 7.6C6.84244 7.60003 7.06571 7.68546 7.23857 7.84008C7.41144 7.9947 7.52188 8.20776 7.54894 8.43885L7.55556 8.55V13.3C7.55529 13.5421 7.46311 13.775 7.29787 13.9511C7.13262 14.1272 6.90677 14.2331 6.66646 14.2473C6.42615 14.2615 6.18953 14.1829 6.00494 14.0274C5.82034 13.872 5.70171 13.6516 5.67328 13.4111L5.66667 13.3V8.55C5.66667 8.29804 5.76617 8.05641 5.94329 7.87825C6.12041 7.70009 6.36063 7.6 6.61111 7.6ZM10.3889 7.6C10.6394 7.6 10.8796 7.70009 11.0567 7.87825C11.2338 8.05641 11.3333 8.29804 11.3333 8.55V13.3C11.3333 13.552 11.2338 13.7936 11.0567 13.9718C10.8796 14.1499 10.6394 14.25 10.3889 14.25C10.1384 14.25 9.89818 14.1499 9.72107 13.9718C9.54395 13.7936 9.44444 13.552 9.44444 13.3V8.55C9.44444 8.29804 9.54395 8.05641 9.72107 7.87825C9.89818 7.70009 10.1384 7.6 10.3889 7.6ZM10.6533 1.9H6.34667L6.03217 2.85H10.9678L10.6533 1.9Z" fill="#F24848"/>
</svg>
