<svg width="14" height="18" viewBox="0 0 14 18" fill="none" xmlns="http://www.w3.org/2000/svg">
<path d="M2.51742 2.46065C2.49133 2.02009 2.67253 1.64858 2.91382 1.30383C3.24268 0.833682 3.71269 0.543889 4.22368 0.318913C4.57677 0.163449 4.95407 0.0878301 5.33417 0.0305292C5.34722 0.0286505 5.35793 0.010333 5.36957 0C5.39287 0 5.41616 0 5.43945 0C5.45854 0.0216053 5.48463 0.0173782 5.50932 0.0183175C5.53401 0.0173782 5.55963 0.0216053 5.57919 0H8.61162C8.72015 0.107557 8.87899 0.0995721 9.00336 0.174721C9.18689 0.285565 9.35225 0.41144 9.42166 0.624674C9.45986 0.741155 9.54184 0.768866 9.64711 0.773093C10.4786 0.80691 11.216 1.43628 11.4009 2.27278C11.4246 2.37987 11.4423 2.48696 11.4368 2.59686C11.4428 2.61283 11.4517 2.62786 11.4512 2.64665C11.4493 3.60198 11.4591 4.5573 11.4456 5.51263C11.3832 5.58355 11.2979 5.5643 11.2202 5.56618C11.0655 5.56946 10.9109 5.56712 10.7562 5.56759C10.5508 5.57181 10.3449 5.55349 10.1395 5.57886C10.0673 5.59201 9.9988 5.57275 9.9415 5.53236C9.58795 5.2839 9.39045 4.94761 9.38533 4.50564C9.40675 4.17358 9.41328 3.84198 9.38113 3.51039C9.37089 3.48315 9.36297 3.45497 9.35272 3.42772C9.2386 3.13417 9.02526 3.03789 8.74251 3.17222C8.38104 3.34412 8.02376 3.52636 7.64785 3.66444C7.01295 3.8974 6.36361 4.06179 5.6812 4.05522C5.62437 4.05287 5.56708 4.05428 5.51025 4.05428C5.45249 4.05428 5.39473 4.05428 5.3365 4.05428C5.27828 4.05428 5.22052 4.05428 5.16229 4.05428C5.09568 4.05428 5.02907 4.05381 4.96246 4.05428C4.88141 4.0571 4.79896 4.04207 4.72117 4.07729C4.59027 4.12003 4.54742 4.22242 4.54742 4.3483C4.54742 4.50705 4.51155 4.65922 4.47941 4.81281C4.47382 4.83958 4.46683 4.86588 4.45845 4.89219C4.40907 5.03544 4.34526 5.17165 4.25769 5.29564C4.14449 5.45486 3.99916 5.55819 3.79793 5.56571C3.59996 5.56759 3.40199 5.56618 3.20356 5.56759C2.97531 5.55021 2.7438 5.60375 2.51835 5.53236C2.47084 5.42809 2.5081 5.31819 2.49599 5.2111C2.49599 5.11575 2.49599 5.02041 2.49599 4.92506C2.49599 4.8316 2.49599 4.73766 2.49599 4.64419C2.49599 4.56153 2.49599 4.47934 2.49599 4.39667C2.49599 4.32481 2.49599 4.25295 2.49599 4.18109C2.49599 4.0787 2.49599 3.97631 2.49599 3.87392C2.49599 3.80253 2.49599 3.73161 2.49599 3.66022C2.49599 3.59963 2.49599 3.53857 2.49599 3.47798C2.49599 3.39719 2.49599 3.31594 2.49599 3.23516C2.50065 3.1647 2.48481 3.09284 2.50717 3.02333C2.5109 2.94067 2.51509 2.85847 2.51881 2.77581C2.53838 2.67107 2.53791 2.56586 2.51881 2.46065H2.51742Z" fill="#323E4B"/>
<path d="M5.57828 0C5.5629 0.0309989 5.53589 0.0342866 5.50608 0.0300595C5.49676 0.0225446 5.49396 0.0154994 5.49769 0.00892392C5.50142 0.00328776 5.50514 0 5.50887 0H5.57874H5.57828Z" fill="#636771"/>
<path d="M5.50886 0C5.50886 0.010333 5.50793 0.0201962 5.50653 0.0305292C5.47812 0.033817 5.45017 0.0361654 5.43945 0H5.50932H5.50886Z" fill="#7E7F89"/>
<path d="M5.68395 4.01108C6.5443 3.9984 7.35248 3.77014 8.12806 3.40754C8.30274 3.32582 8.48533 3.25819 8.6493 3.15861C9.00564 2.94256 9.3373 3.10836 9.41742 3.478C9.43698 3.83026 9.43605 4.18252 9.41742 4.53478C9.42021 4.92978 9.7747 5.50701 10.1078 5.54694C10.309 5.52392 10.5107 5.53989 10.7119 5.53754C10.7343 5.54224 10.751 5.55492 10.7617 5.57512C10.8107 5.86256 10.7729 6.15188 10.7841 6.44027C10.7869 6.50978 10.7841 6.57929 10.785 6.64833C10.7836 6.75119 10.7967 6.85593 10.7431 6.95175C10.7301 6.96725 10.717 6.98275 10.7045 6.99919C10.6262 7.33172 10.554 7.66519 10.4059 7.97659C10.1045 8.60925 9.66896 9.12402 9.09741 9.52372C9.06993 9.54297 9.04803 9.57115 9.02381 9.59511C9.00005 9.62094 8.97676 9.64771 8.94229 9.65992C8.92552 9.66744 8.90829 9.67213 8.89012 9.67589C8.78904 9.70454 8.68656 9.71722 8.58176 9.71347C8.3591 9.71253 8.13691 9.71347 7.91472 9.71347C7.291 9.68528 6.72224 9.47909 6.20333 9.14093C5.03973 8.38286 4.46166 7.28898 4.41368 5.90013C4.41508 5.53848 4.4039 5.17636 4.43325 4.81517C4.4598 4.64327 4.50591 4.4756 4.50032 4.29759C4.49613 4.16373 4.55343 4.0557 4.70668 4.03598C4.78493 4.01108 4.86552 4.0294 4.94471 4.02376C5.01365 4.02376 5.08305 4.02376 5.15199 4.02376C5.20975 4.02376 5.26798 4.02376 5.32574 4.02376C5.3821 4.02376 5.438 4.02376 5.49436 4.02376C5.55725 4.01766 5.622 4.03738 5.68348 4.01061L5.68395 4.01108Z" fill="#FFD18D"/>
<path d="M11.4046 12.7217C11.8722 12.9091 12.338 13.1008 12.8076 13.2825C13.4634 13.5362 13.9078 14.1731 13.9083 14.8762C13.9083 15.6314 13.9092 16.3867 13.9083 17.1419C13.9078 17.6022 13.5226 17.9934 13.0684 17.9939C11.4428 17.9948 9.81708 17.9939 8.19093 17.9939C8.12153 17.9939 8.05073 18.0028 7.98877 17.9591C7.90167 17.8516 7.91424 17.7177 7.90027 17.5937C7.79872 16.7023 7.69904 15.8104 7.59097 14.9198C7.58398 14.8405 7.58165 14.7606 7.59377 14.6813C7.82155 14.3994 7.91331 14.0462 8.07914 13.7316C8.18767 13.6794 8.26779 13.7522 8.3521 13.7978C8.54868 13.9044 8.59898 13.888 8.70892 13.6926C8.94601 13.2708 9.14771 12.8298 9.38248 12.4066C9.45328 12.2784 9.48402 12.1351 9.55296 12.0069C9.61212 11.9811 9.66709 12.0041 9.72112 12.0247C10.1063 12.1699 10.4869 12.3286 10.874 12.4695C10.9518 12.4977 11.0235 12.5358 11.0519 12.6236C11.0743 13.214 11.0687 13.8039 11.0557 14.3938C11.0394 14.4638 10.99 14.5004 10.9257 14.5197C10.3938 14.6784 10.1394 15.0528 10.1022 15.5962C10.0728 15.9085 10.0882 16.2209 10.0942 16.5332C10.1199 16.6032 10.138 16.6943 10.227 16.6934C10.3243 16.6929 10.3649 16.6032 10.4017 16.5233C10.411 16.1767 10.4198 15.8306 10.3956 15.4844C10.418 15.1688 10.5801 14.9508 10.8628 14.8254C11.1577 14.6949 11.4446 14.7287 11.6999 14.9208C11.9188 15.0852 12.0474 15.3092 12.0395 15.5962C12.0427 15.909 12.0325 16.2213 12.046 16.5332C12.0711 16.5985 12.0651 16.6976 12.1652 16.6934C12.2556 16.6901 12.2952 16.613 12.3189 16.5323C12.325 16.2124 12.346 15.893 12.305 15.5751C12.27 15.0406 11.9961 14.6953 11.4931 14.5328C11.4036 14.5042 11.3547 14.4502 11.3533 14.3567C11.3459 13.8537 11.3468 13.3502 11.3533 12.8472C11.3538 12.8002 11.3622 12.7532 11.405 12.7227L11.4046 12.7217Z" fill="#EEF0F1"/>
<path d="M5.93131 17.992C4.5241 17.992 3.11642 17.993 1.70921 17.9934C1.65005 17.9253 1.6561 17.8417 1.6561 17.7609C1.65517 17.079 1.65238 16.397 1.65703 15.715C1.65843 15.4928 1.69197 15.274 1.79631 15.073C1.86106 14.9973 1.90857 15.0509 1.95236 15.0983C2.08325 15.2406 2.24349 15.3266 2.43168 15.3618C2.49549 15.3858 2.55931 15.3867 2.62359 15.3627C2.82529 15.3214 2.98785 15.2153 3.11036 15.0504C3.29995 14.7954 3.306 14.4699 3.129 14.2008C3.09732 14.1524 3.05819 14.1082 3.04701 14.0481C3.04282 13.9697 3.09453 13.9326 3.15601 13.9072C3.72384 13.6719 4.29771 13.4521 4.87113 13.2323C4.89302 13.2238 4.91678 13.2257 4.9396 13.2299C5.09052 13.3492 5.13897 13.5362 5.23306 13.6926C5.35231 13.8908 5.39423 13.9086 5.60152 13.7935C5.67046 13.7555 5.73614 13.6987 5.82511 13.7301C5.922 13.8292 5.9532 13.9631 5.99606 14.0871C6.06919 14.2985 6.17679 14.4859 6.32399 14.6521C6.33424 14.6982 6.32585 14.7437 6.32352 14.7897C6.32073 14.8578 6.32352 14.9264 6.31374 14.994C6.21126 15.8695 6.11251 16.745 6.01143 17.6205C5.99699 17.7464 6.00258 17.8784 5.93178 17.9925L5.93131 17.992Z" fill="#EEF0F1"/>
<path d="M4.46259 5.93957C4.48309 6.82773 4.7691 7.61632 5.32667 8.30581C5.94061 9.06529 6.74553 9.48377 7.68693 9.66037C7.74889 9.67211 7.81457 9.66413 7.87838 9.66507C8.12247 9.69466 8.36655 9.69466 8.61064 9.66507C8.71824 9.68245 8.81932 9.63642 8.92506 9.63125C8.93484 9.71485 8.86963 9.7421 8.81513 9.77028C7.55744 10.4222 6.3086 10.4058 5.06908 9.71767C5.02855 9.69513 4.98989 9.66836 4.95961 9.63172C4.94331 9.60824 4.93399 9.58006 4.91257 9.56033C4.24972 9.1348 3.79089 8.53925 3.48719 7.81594C3.38191 7.5656 3.299 7.30681 3.27384 7.03345C3.25801 6.98789 3.22307 6.97474 3.17928 6.97568C2.91005 6.9832 2.63988 6.95924 2.3711 6.98789C2.1177 6.91979 1.90855 6.77748 1.82052 6.52855C1.66074 6.07671 1.89598 5.58684 2.47405 5.54644C2.49315 5.53752 2.51318 5.53376 2.53414 5.53517C2.75167 5.53658 2.9692 5.53188 3.1872 5.53752C3.20956 5.5441 3.22214 5.55913 3.224 5.58308C3.22167 5.9546 3.23285 6.32611 3.21795 6.69763C3.22354 6.69763 3.22959 6.69763 3.224 6.69763C3.23146 6.31672 3.21608 5.93581 3.23378 5.5549C3.43315 5.50136 3.63857 5.56617 3.83841 5.52061C4.17006 5.46801 4.27767 5.19794 4.39458 4.93727C4.40343 4.91754 4.41555 4.8997 4.42626 4.88138C4.46725 5.12373 4.43185 5.36797 4.44489 5.61079C4.45048 5.72023 4.4244 5.83107 4.46213 5.93863L4.46259 5.93957Z" fill="#F8BC80"/>
<path d="M1.85029 15.0377C1.76039 15.273 1.70729 15.514 1.70822 15.7685C1.71101 16.5102 1.70915 17.2518 1.70868 17.9934C1.36398 17.9774 1.01556 18.0366 0.674118 17.9587C0.313581 17.8765 0.0634408 17.5651 0.035958 17.1856C0.0191888 17.1597 0.0196546 17.1306 0.0196546 17.1015C0.0196546 16.3608 0.0196546 15.6206 0.0196546 14.8799C0.0196546 14.8508 0.0191888 14.8217 0.0364238 14.7958C0.0969791 14.0984 0.436089 13.5934 1.07239 13.3088C1.48277 13.1252 1.9006 12.9575 2.33147 12.826C2.38551 12.8664 2.38504 12.9274 2.38457 12.9852C2.38364 13.2539 2.39529 13.5225 2.37852 13.7912C2.36128 13.8776 2.29141 13.9081 2.22201 13.9405C1.98491 14.0519 1.83399 14.2317 1.79346 14.4971C1.7888 14.5676 1.7888 14.638 1.79346 14.7085C1.78741 14.8226 1.8992 14.9161 1.85029 15.0377Z" fill="#DDE6EC"/>
<path d="M5.93125 17.992C5.93312 17.7041 5.98435 17.4214 6.01976 17.1368C6.0505 16.8859 6.0696 16.6337 6.10267 16.3834C6.15065 16.0199 6.16323 15.6521 6.23776 15.2919C6.25965 15.1862 6.20468 15.0697 6.28061 14.9711C6.30064 14.9438 6.28573 14.8983 6.32579 14.8809C6.40778 14.8555 6.48324 14.895 6.56149 14.9062C6.62391 14.9274 6.68773 14.9241 6.75201 14.9208C6.89874 14.9203 7.045 14.9194 7.19174 14.9203C7.25741 14.9241 7.32309 14.9274 7.38598 14.9025C7.46656 14.8865 7.54715 14.8344 7.62867 14.9001C7.69947 15.1618 7.69947 15.4332 7.7372 15.6991C7.7903 16.0734 7.83129 16.4501 7.87508 16.8258C7.90163 17.0541 7.92492 17.2828 7.94775 17.5116C7.96265 17.6605 7.97523 17.8098 7.98874 17.9587C7.95287 18.0179 7.89464 17.992 7.84666 17.992C7.20804 17.9935 6.56941 17.992 5.93079 17.9916L5.93125 17.992Z" fill="#056694"/>
<path d="M12.3423 16.5919C12.3311 16.7173 12.2282 16.7432 12.1406 16.7455C12.0633 16.7474 12.0135 16.6788 12.0214 16.5891C11.9948 16.3111 12.0177 16.0321 12.0093 15.754C12.0074 15.6911 12.0232 15.6263 11.9948 15.5652C11.999 15.1984 11.7074 14.8527 11.3036 14.801C10.9514 14.7559 10.5974 14.9236 10.4614 15.336C10.4483 15.3759 10.4022 15.413 10.4306 15.4642C10.4455 15.839 10.4493 16.2134 10.4288 16.5882C10.4115 16.6102 10.3957 16.6342 10.3766 16.6544C10.2238 16.8136 10.1665 16.8014 10.0701 16.5882C10.0501 16.2486 10.0524 15.909 10.0692 15.5694C10.1064 14.9673 10.3747 14.6413 10.9738 14.469C10.9891 14.4647 11.0017 14.4492 11.0152 14.4389C11.0492 14.3919 11.0339 14.3375 11.0339 14.2867C11.0348 13.7288 11.0353 13.1712 11.0339 12.6137C10.9933 12.509 11.0148 12.3953 10.9887 12.2887C10.9691 12.1022 10.9421 11.9186 10.8438 11.7523C10.6892 11.4917 10.4511 11.3644 10.1656 11.3085C9.86188 11.2784 9.55771 11.3038 9.25447 11.2949C9.17528 11.2925 9.09237 11.3076 9.02156 11.2535C8.96799 11.1427 8.95821 11.0333 9.03088 10.9266C9.438 10.9036 9.84512 10.905 10.2527 10.9257C10.909 10.9745 11.318 11.5494 11.3711 12.1187C11.3902 12.3202 11.3888 12.5217 11.4056 12.7222C11.4037 13.2713 11.4014 13.8208 11.4009 14.3699C11.4009 14.415 11.3767 14.4685 11.4647 14.4821C11.9529 14.5568 12.3796 15.0655 12.3428 15.5652C12.367 15.9076 12.3675 16.25 12.3428 16.5924L12.3423 16.5919Z" fill="#323E4B"/>
<path d="M1.85034 15.0377C1.83171 14.9292 1.7474 14.8419 1.75019 14.7263C1.77022 14.6437 1.76882 14.561 1.75066 14.4784C1.80283 14.1341 2.03201 13.9542 2.33338 13.8415C2.38183 13.6024 2.34317 13.361 2.35388 13.121C2.35854 13.0115 2.35481 12.9021 2.35481 12.7927C2.36226 12.6043 2.33944 12.4155 2.36739 12.2276C2.33292 11.9815 2.42096 11.7636 2.53461 11.5574C2.74097 11.1831 3.04887 10.9543 3.4844 10.9252C3.95999 10.9036 4.43559 10.9074 4.91118 10.9233C4.99176 11.0286 4.97593 11.1389 4.92795 11.2507C4.85854 11.3085 4.77516 11.293 4.69551 11.2949C4.321 11.3028 3.94602 11.2817 3.57197 11.3071C3.01626 11.4395 2.83693 11.6377 2.74796 12.2206C2.71814 12.3676 2.73957 12.5156 2.73398 12.663C2.7419 13.0313 2.71581 13.4 2.74889 13.7673C2.78243 13.8405 2.8523 13.8682 2.91705 13.8997C2.98599 13.9335 3.03163 13.9875 3.0689 14.0519C3.14948 14.1524 3.22448 14.2524 3.26827 14.3802C3.43875 14.8799 3.00369 15.3778 2.61613 15.3999C2.55744 15.4158 2.49921 15.4168 2.44099 15.3989C2.18293 15.3801 1.99521 15.2449 1.85034 15.0377Z" fill="#323E4B"/>
<path d="M10.7026 6.95879C10.7557 6.87049 10.7315 6.77233 10.7376 6.67793C10.7772 6.41256 10.7436 6.14531 10.7557 5.879C10.7609 5.76909 10.7404 5.65825 10.7688 5.54975C11.0022 5.52721 11.2355 5.53003 11.4689 5.54835C11.8006 5.59954 12.0451 5.75172 12.1345 6.10398C12.2403 6.52058 11.9389 6.91652 11.5765 6.96208C11.2854 6.98369 10.9938 6.98979 10.7026 6.95973V6.95879Z" fill="#F8BC80"/>
<path d="M11.433 5.51592C11.4339 4.54275 11.4348 3.57004 11.4358 2.59686C11.4772 2.61565 11.4684 2.65463 11.4684 2.68751C11.467 3.63063 11.4651 4.57375 11.4628 5.51686C11.4525 5.53142 11.4423 5.53142 11.433 5.51592Z" fill="#424A56"/>
<path d="M0.0360185 14.7959C0.0360185 15.5925 0.0360185 16.389 0.0360185 17.1856C-0.0124258 17.1457 0.00201436 17.0898 0.00201436 17.0391C0.00108274 16.3402 0.00108274 15.6408 0.00201436 14.942C0.00201436 14.8912 -0.0124258 14.8353 0.0360185 14.7954V14.7959Z" fill="#F1F4F6"/>
<path d="M4.91125 10.9337C4.43566 10.9309 3.96007 10.9281 3.48401 10.9252C3.53665 10.8708 3.60419 10.8966 3.66474 10.8961C4.08071 10.8928 4.49715 10.8928 4.91312 10.8924C4.91731 10.8966 4.9215 10.9008 4.92569 10.905C4.92569 10.9112 4.92569 10.9173 4.92523 10.9229C4.92057 10.9267 4.91591 10.9304 4.91079 10.9337H4.91125Z" fill="#9899A0"/>
<path d="M10.2517 10.9257C9.84602 10.9276 9.44077 10.9295 9.03505 10.9318C9.02992 10.9285 9.02527 10.9257 9.02014 10.9224C9.02014 10.9168 9.02014 10.9107 9.02014 10.905C9.0248 10.9013 9.02899 10.8975 9.03365 10.8938C9.37975 10.8942 9.72584 10.8938 10.0715 10.8966C10.132 10.8971 10.1991 10.8722 10.2517 10.9262V10.9257Z" fill="#9899A0"/>
<path d="M2.36599 12.7932C2.36785 13.1139 2.37018 13.4352 2.37111 13.756C2.37111 13.7884 2.3809 13.8283 2.33385 13.8415C2.33292 13.5028 2.33199 13.1647 2.33105 12.826C2.33478 12.8148 2.33851 12.803 2.34223 12.7917C2.35015 12.7922 2.35854 12.7927 2.36646 12.7932H2.36599Z" fill="#98A3AC"/>
<path d="M2.37109 6.98835C2.65664 6.92588 2.94544 6.96862 3.23284 6.96534C3.26405 6.96534 3.2729 7.00291 3.2743 7.03344C3.15785 6.95782 3.02835 7.0015 2.90491 6.9954C2.72744 6.98694 2.54903 6.98976 2.37156 6.98835H2.37109Z" fill="#FBD1A5"/>
<path d="M10.7026 6.9588C10.9938 6.95974 11.2849 6.96021 11.5765 6.96115C11.4107 7.03066 11.2374 6.98041 11.0683 6.99262C10.9481 7.00107 10.827 6.99732 10.7064 6.99919C10.7054 6.98557 10.7045 6.97242 10.7031 6.9588H10.7026Z" fill="#FBD1A5"/>
<path d="M4.91309 10.8919C4.91588 10.6223 4.91821 10.3527 4.921 10.0831C4.93172 10.0822 4.94243 10.0817 4.95315 10.0807C4.96898 10.0958 4.98016 10.1136 4.98715 10.1348C5.01743 10.3433 5.00159 10.5528 4.99786 10.7618C4.99693 10.8172 4.99553 10.8825 4.92054 10.9003L4.91309 10.8919Z" fill="#FCD4AE"/>
<path d="M9.0248 10.0854C9.0276 10.3546 9.03039 10.6242 9.03319 10.8933L9.02667 10.8984C8.93397 10.8731 8.94655 10.7923 8.94515 10.727C8.94096 10.5401 8.93397 10.3527 8.94981 10.1653C8.95353 10.1437 8.96052 10.1235 8.97077 10.1047C8.98334 10.0836 9.00151 10.0774 9.02434 10.0854H9.0248Z" fill="#FAC996"/>
<path d="M11.4331 5.51591C11.4428 5.51685 11.4531 5.51685 11.4629 5.51685C11.468 5.52671 11.4699 5.53658 11.4685 5.54738C11.236 5.55114 11.004 5.55489 10.7716 5.55818C10.759 5.56992 10.7469 5.56946 10.7353 5.55724L10.7395 5.54691C10.7269 5.54221 10.7222 5.53658 10.7255 5.53C10.7288 5.52296 10.7325 5.5192 10.7362 5.5192C10.9686 5.51779 11.2006 5.51685 11.4331 5.51544V5.51591Z" fill="#5B5956"/>
<path d="M2.36605 12.7931C2.35813 12.7927 2.34974 12.7922 2.34182 12.7917C2.34741 12.6034 2.30409 12.4132 2.36744 12.2276C2.36744 12.416 2.36651 12.6048 2.36605 12.7931Z" fill="#9899A1"/>
<path d="M4.95035 10.0869C4.94057 10.0864 4.93079 10.085 4.921 10.0831C4.91821 9.90885 4.91541 9.73413 4.91309 9.55988C4.92566 9.57162 4.93871 9.58289 4.95128 9.59463C5.02581 9.75855 5.03839 9.92294 4.95082 10.0869H4.95035Z" fill="#E7B37E"/>
<path d="M9.02476 10.0855C9.01498 10.0869 9.00519 10.0878 8.99541 10.0883C8.90411 9.94173 8.94743 9.78392 8.95908 9.6294C8.97305 9.60216 8.99728 9.59558 9.02522 9.59558C9.02522 9.75903 9.02522 9.92248 9.02522 10.0859L9.02476 10.0855Z" fill="#EAB47D"/>
<path d="M2.51733 2.46063C2.56252 2.56584 2.56252 2.67058 2.51733 2.77579C2.51733 2.67058 2.51733 2.56584 2.51733 2.46063Z" fill="#3C4652"/>
<path d="M4.46253 5.93956C4.39779 5.86957 4.43086 5.78362 4.42946 5.70519C4.4248 5.43089 4.42713 5.1566 4.42667 4.88184C4.429 4.85976 4.43132 4.83769 4.43412 4.81561C4.49514 4.96027 4.45648 5.11198 4.46114 5.2604C4.46812 5.48632 4.463 5.71317 4.46253 5.93956Z" fill="#FAC283"/>
<path d="M9.41785 4.53475C9.41785 4.18249 9.41785 3.83023 9.41785 3.47797C9.48259 3.62732 9.44533 3.78467 9.44393 3.93731C9.44207 4.13646 9.48166 4.33842 9.41831 4.53475H9.41785Z" fill="#706B60"/>
<path d="M2.51173 5.54784C2.5108 5.53751 2.51173 5.52718 2.51313 5.51685C2.74603 5.51872 2.97847 5.52013 3.21138 5.52201C3.21976 5.52859 3.22209 5.53469 3.21883 5.54033C3.21557 5.5455 3.21231 5.54831 3.20951 5.54831C2.97707 5.54831 2.74463 5.54831 2.51219 5.54831L2.51173 5.54784Z" fill="#5B5856"/>
<path d="M10.7357 5.51969C10.7367 5.52908 10.7381 5.538 10.739 5.5474C10.5289 5.5474 10.3184 5.5474 10.1083 5.5474C10.3151 5.48258 10.5266 5.53425 10.7357 5.52016V5.51969Z" fill="#71695F"/>
<path d="M3.20907 5.54786C3.20907 5.53894 3.21 5.53048 3.2114 5.52156C3.42055 5.52156 3.6297 5.52156 3.83838 5.52109C3.64367 5.59389 3.44011 5.52625 3.24261 5.55913C3.23096 5.56993 3.21839 5.57087 3.20581 5.56101L3.20907 5.54786Z" fill="#827362"/>
<path d="M4.95031 4.03549C4.86926 4.03549 4.7882 4.03643 4.70715 4.0369C4.78308 3.97866 4.87019 4.01765 4.95124 4.00778C4.96242 4.01436 4.96614 4.02093 4.96195 4.02704C4.95822 4.03314 4.95403 4.03596 4.95031 4.03596V4.03549Z" fill="#4C5254"/>
<path d="M4.95029 4.0355C4.95029 4.02611 4.95123 4.01672 4.95169 4.00732C5.02156 4.00732 5.09144 4.00779 5.16084 4.00826C5.17202 4.01531 5.17528 4.02141 5.17109 4.02752C5.1669 4.03316 5.16317 4.03597 5.15898 4.03597C5.08911 4.03597 5.0197 4.03597 4.94983 4.0355H4.95029Z" fill="#5C5D59"/>
<path d="M5.68392 4.01105C5.63035 4.05989 5.56654 4.03829 5.50598 4.03688C5.4962 4.02936 5.49387 4.02279 5.49853 4.01809C5.50225 4.01387 5.50645 4.01199 5.51064 4.01199C5.5684 4.01199 5.62616 4.01199 5.68392 4.01152V4.01105Z" fill="#BBA077"/>
<path d="M5.51065 4.01198C5.50925 4.02043 5.50739 4.02889 5.50599 4.03687C5.44823 4.03687 5.39047 4.03687 5.33271 4.03687C5.32246 4.02936 5.31967 4.02278 5.32433 4.01762C5.32852 4.01292 5.33225 4.0101 5.33644 4.0101C5.39466 4.01057 5.45242 4.01151 5.51065 4.01198Z" fill="#92836A"/>
<path d="M5.33643 4.01015C5.33503 4.01907 5.3341 4.028 5.33271 4.03692C5.27494 4.03692 5.21718 4.03692 5.15942 4.03645C5.15989 4.02706 5.16036 4.01766 5.16082 4.00827C5.21951 4.00874 5.27774 4.00968 5.33643 4.01015Z" fill="#6D695F"/>
<path d="M8.95906 9.62888C9.03685 9.77636 8.97303 9.93558 8.99539 10.0878C8.99493 10.0986 8.994 10.1098 8.99353 10.1206C8.9381 10.193 8.85705 10.2277 8.77879 10.2639C8.38192 10.4475 7.97201 10.5856 7.53415 10.626C7.46847 10.6227 7.40372 10.6284 7.34037 10.649C6.562 10.7171 5.82136 10.5842 5.12218 10.2273C5.05464 10.1925 4.98849 10.1577 4.94983 10.0873H4.95029C4.95029 9.92337 4.95029 9.75898 4.95076 9.59506C5.38257 9.86325 5.84418 10.0539 6.34586 10.1385C6.99427 10.2484 7.6301 10.1986 8.2501 9.97034C8.48766 9.88298 8.72709 9.79843 8.92506 9.63076C8.93624 9.63029 8.94741 9.62935 8.95859 9.62888H8.95906Z" fill="#E2AA73"/>
<path d="M10.7352 5.55726C10.7473 5.55726 10.7594 5.55773 10.7715 5.5582C10.7715 5.87101 10.7729 6.18382 10.7706 6.49662C10.7706 6.55768 10.7934 6.62578 10.7371 6.67698C10.7361 6.30358 10.7357 5.93019 10.7347 5.55679L10.7352 5.55726Z" fill="#FAC585"/>
<path d="M8.61116 9.66458C8.36708 9.72141 8.12299 9.72141 7.87891 9.66458C8.12299 9.66458 8.36708 9.66458 8.61116 9.66458Z" fill="#FCCA89"/>
<path d="M9.55245 12.0191C9.55804 12.2817 9.38802 12.4752 9.28321 12.6917C9.10853 13.0529 8.91103 13.4033 8.72424 13.7583C8.63108 13.9359 8.53279 13.9636 8.36091 13.8556C8.27799 13.8034 8.19927 13.741 8.094 13.7424C7.79262 13.6226 7.52478 13.4399 7.24436 13.2821C7.14561 13.2267 7.02869 13.1933 6.96348 13.0867C6.95789 13.0703 6.95649 13.0533 6.95928 13.036C7.00447 12.9448 7.08552 12.8847 7.15446 12.8147C7.52571 12.4381 7.89929 12.0633 8.27147 11.687C8.38094 11.5767 8.50158 11.4917 8.66275 11.4837C8.72377 11.4818 8.78526 11.4823 8.84628 11.4813C8.89053 11.4813 8.93479 11.4827 8.97857 11.4893C8.99581 11.4921 9.01258 11.4968 9.02888 11.5039C9.18213 11.5926 9.33259 11.6866 9.45696 11.8148C9.51053 11.8702 9.58086 11.9228 9.55198 12.0196L9.55245 12.0191Z" fill="#D7DADB"/>
<path d="M6.97245 13.0679C7.29665 13.2572 7.62039 13.446 7.9446 13.6353C7.9977 13.6663 8.06477 13.6771 8.09412 13.7424C8.02518 13.9213 7.95205 14.0993 7.88823 14.2802C7.8356 14.4309 7.73079 14.5413 7.62878 14.6559C7.55192 14.7527 7.43919 14.7658 7.33112 14.7719C7.08285 14.7855 6.8341 14.7837 6.58583 14.7729C6.48195 14.7682 6.37761 14.7489 6.30681 14.6569C6.04781 14.4929 6.01474 14.1947 5.89456 13.9481C5.86289 13.8828 5.84332 13.811 5.81864 13.7419C5.80466 13.6832 5.84472 13.6541 5.88478 13.632C6.20899 13.4507 6.52667 13.2572 6.856 13.0858C6.89186 13.067 6.93006 13.0501 6.97198 13.0679H6.97245Z" fill="#056694"/>
<path d="M6.30713 14.6564C6.74779 14.7658 7.18844 14.7611 7.6291 14.6554C7.6291 14.7372 7.6291 14.8184 7.6291 14.9001C7.54991 14.9123 7.47073 14.9246 7.39154 14.9372C7.33844 14.9767 7.26903 14.9297 7.21639 14.9706C7.05383 14.9706 6.89172 14.9706 6.72916 14.9706C6.67605 14.9302 6.60711 14.9767 6.55401 14.9372C6.47389 14.9246 6.39377 14.9119 6.31319 14.8992C6.27173 14.8597 6.31039 14.8024 6.28198 14.7602C6.25869 14.7179 6.30201 14.6921 6.30713 14.6568V14.6564Z" fill="#005478"/>
<path d="M11.045 12.5823C11.0469 13.1731 11.0492 13.7645 11.0497 14.3553C11.0497 14.3859 11.0651 14.4281 11.0143 14.4389C11.0134 13.8194 11.0129 13.1999 11.012 12.5804L11.0176 12.5823C11.0264 12.5658 11.0353 12.5663 11.0446 12.5823H11.045Z" fill="#C8CDD0"/>
<path d="M10.4282 16.5877C10.4287 16.2129 10.4296 15.8386 10.4301 15.4638C10.492 15.7461 10.4454 16.0316 10.4552 16.3153C10.4585 16.405 10.4869 16.5022 10.4277 16.5877H10.4282Z" fill="#DBDDE0"/>
<path d="M11.9948 15.5647C12.0642 15.6638 12.0213 15.7756 12.0241 15.8804C12.0302 16.1161 12.0232 16.3529 12.0213 16.5891C11.9585 16.42 12.0013 16.2444 11.9939 16.0725C11.9864 15.9038 11.9939 15.7343 11.9948 15.5652V15.5647Z" fill="#B4BCC1"/>
<path d="M12.3423 16.5919C12.3423 16.2495 12.3423 15.9071 12.3423 15.5647C12.4145 15.7582 12.3679 15.9593 12.3712 16.1565C12.3735 16.3012 12.4131 16.4515 12.3423 16.5924V16.5919Z" fill="#45525C"/>
<path d="M10.0687 15.5694C10.0687 15.909 10.0691 16.2486 10.0696 16.5882C10.0207 16.2486 10.0221 15.909 10.0687 15.5694Z" fill="#DCDEE1"/>
<path d="M6.9724 13.0679C6.62211 13.2642 6.27182 13.461 5.92107 13.6564C5.88101 13.6789 5.83815 13.6954 5.81906 13.7419C5.71891 13.7602 5.64112 13.8222 5.5568 13.8729C5.4124 13.9593 5.30946 13.9265 5.22934 13.7752C5.13618 13.6 5.04395 13.4248 4.95078 13.2497C4.91072 13.2252 4.87532 13.1956 4.85483 13.1515C4.71415 12.8504 4.5446 12.5644 4.39787 12.2661C4.36107 12.191 4.34337 12.1126 4.35781 12.0285C4.44864 11.7688 4.67176 11.6518 4.88976 11.5292C4.91305 11.517 4.93681 11.5067 4.96196 11.4987C4.99597 11.4884 5.03044 11.4841 5.06584 11.4827C5.12639 11.4813 5.18695 11.4813 5.24751 11.4827C5.36862 11.4874 5.47808 11.533 5.56193 11.6161C6.03752 12.0867 6.51451 12.5559 6.97333 13.0435C6.97333 13.0514 6.97333 13.0594 6.97333 13.0674L6.9724 13.0679Z" fill="#D7DADB"/>
<path d="M4.3927 12.0186C4.3708 12.2028 4.47934 12.3441 4.56039 12.4874C4.70106 12.7363 4.81938 12.9961 4.95074 13.2492C4.35077 13.484 3.75128 13.7189 3.15085 13.9523C3.10194 13.9716 3.07306 13.9988 3.06933 14.0514C2.95427 13.9824 2.83968 13.9138 2.72463 13.8448C2.67758 13.6329 2.71205 13.4188 2.7046 13.2055C2.69854 13.0374 2.70367 12.8688 2.7032 12.7006C2.71066 12.6151 2.77866 12.5879 2.84201 12.5616C3.30177 12.3718 3.76572 12.1934 4.23013 12.0154C4.28416 11.9947 4.33959 11.9712 4.3927 12.0182V12.0186Z" fill="#DDE6EC"/>
<path d="M6.28204 14.7597C6.33002 14.7977 6.30067 14.8527 6.31325 14.8987C6.30253 14.9227 6.29135 14.9471 6.28064 14.9711C6.28111 14.9006 6.28157 14.8302 6.28204 14.7597Z" fill="#327D9F"/>
<path d="M2.44092 15.399C2.49914 15.399 2.55784 15.3994 2.61606 15.3999C2.55737 15.4436 2.49914 15.4431 2.44092 15.399Z" fill="#C2C7CB"/>
<path d="M3.2063 5.56102C3.21841 5.56055 3.23099 5.55961 3.2431 5.55914C3.2431 5.95508 3.2431 6.35055 3.2431 6.74649C3.23099 6.74649 3.21841 6.74649 3.2063 6.74649V5.56102Z" fill="#FAC284"/>
<path d="M1.75071 14.4783C1.79729 14.561 1.7945 14.6437 1.75024 14.7263C1.75024 14.6437 1.75024 14.561 1.75071 14.4783Z" fill="#606B76"/>
<path d="M6.55359 14.9368C6.61275 14.9438 6.67889 14.9138 6.72873 14.9701C6.66958 14.964 6.60343 14.9936 6.55359 14.9368Z" fill="#005C84"/>
<path d="M7.21606 14.9706C7.26591 14.9142 7.33205 14.9438 7.39121 14.9372C7.34137 14.9941 7.27522 14.9645 7.21606 14.9706Z" fill="#005E87"/>
<path d="M10.2139 11.2752C9.81982 11.2766 9.42621 11.2775 9.03213 11.2789C9.02468 11.2709 9.02282 11.263 9.02608 11.2559C9.02934 11.2489 9.03213 11.2456 9.03493 11.2456C9.36752 11.2456 9.70011 11.2456 10.0322 11.2475C10.0932 11.2475 10.1594 11.2273 10.2139 11.2752Z" fill="#464E5A"/>
<path d="M9.03506 11.2451C9.03087 11.2559 9.02994 11.2671 9.03227 11.2784L9.03041 11.2897C9.00805 11.2948 8.98988 11.2878 8.97637 11.269C8.94563 11.1497 8.89672 11.0281 9.02016 10.9285L9.03506 10.9308C9.03506 11.0356 9.03506 11.1399 9.03506 11.2446V11.2451Z" fill="#D3A376"/>
<path d="M11.045 12.5822H11.0315H11.0179C11.0179 12.4751 11.0179 12.3681 11.0184 12.2614C11.0822 12.3638 11.0398 12.4751 11.045 12.5822Z" fill="#C3C2C7"/>
<path d="M2.44151 15.0349C2.18532 14.9485 2.04464 14.7334 2.10473 14.5211C2.16529 14.3088 2.29059 14.2026 2.4867 14.1979C2.72519 14.1923 2.85003 14.2801 2.93108 14.5112C2.95437 14.5723 2.95437 14.6329 2.93108 14.6939C2.91105 14.8635 2.80438 14.9555 2.65392 15.0086C2.58638 15.0443 2.50952 15.0049 2.44151 15.0349Z" fill="#72B3E2"/>
<path d="M4.91487 11.2765C4.45046 11.2765 3.98651 11.2761 3.52209 11.2756C3.57659 11.2268 3.64274 11.2474 3.70376 11.247C4.10576 11.2446 4.50822 11.2451 4.91021 11.2446C4.91859 11.2507 4.92232 11.2573 4.92092 11.2648C4.91953 11.2728 4.9172 11.2765 4.91487 11.2765Z" fill="#464E5A"/>
<path d="M2.72603 12.6499C2.72556 13.0482 2.72463 13.4465 2.72416 13.8448C2.66361 13.803 2.68643 13.7391 2.68597 13.6841C2.68457 13.3403 2.68597 12.996 2.68643 12.6522C2.69621 12.6353 2.70553 12.6363 2.71438 12.6532L2.72556 12.6494L2.72603 12.6499Z" fill="#55606B"/>
<path d="M2.71489 12.6536C2.70557 12.6532 2.69626 12.6527 2.68694 12.6527C2.69905 12.5005 2.65107 12.3446 2.71489 12.1952C2.71489 12.3479 2.71489 12.501 2.71489 12.6536Z" fill="#505661"/>
<path d="M4.91494 11.2766C4.91494 11.2658 4.91354 11.255 4.91028 11.2446C4.91028 11.1408 4.91074 11.037 4.91121 10.9337L4.92518 10.9238C5.04629 11.0248 5.00111 11.1479 4.96944 11.269C4.95593 11.2878 4.93776 11.2949 4.91494 11.2892V11.2766Z" fill="#AC8A6B"/>
<path d="M2.44141 15.0349C2.50709 14.9832 2.58301 15.0152 2.65382 15.0086C2.58907 15.0687 2.51314 15.0368 2.44141 15.0349Z" fill="#589ACF"/>
<path d="M2.9314 14.694C2.9314 14.6329 2.9314 14.5723 2.9314 14.5113C2.98217 14.5723 2.9831 14.6329 2.9314 14.694Z" fill="#589BCF"/>
<path d="M4.94985 11.278C4.941 11.1601 4.97733 11.0389 4.92563 10.9238C4.92237 10.9163 4.9205 10.9088 4.92097 10.9003C4.98758 10.6312 4.93494 10.3579 4.95032 10.0869C5.69934 10.5091 6.50566 10.6627 7.35623 10.6129C7.40886 10.572 7.47873 10.6209 7.53091 10.5786C7.95013 10.5415 8.34281 10.4095 8.72478 10.24C8.81468 10.2 8.89433 10.1376 8.99402 10.1207C8.99402 10.3245 8.99355 10.5284 8.99541 10.7322C8.99588 10.7886 8.97958 10.8501 9.02709 10.898C9.02709 10.9088 9.02476 10.9191 9.02057 10.929C8.9684 11.0427 9.00566 11.1629 8.99495 11.2798C9.01964 11.3611 9.0229 11.4419 8.99308 11.5227L8.858 11.5255C8.78626 11.4992 8.71453 11.4997 8.64279 11.5255C8.50724 11.5335 8.40803 11.6086 8.3158 11.7011C7.86908 12.1492 7.42051 12.5964 6.97286 13.0435C6.89461 13.0369 6.85641 12.9726 6.80843 12.9242C6.40271 12.517 5.99839 12.1093 5.59407 11.7002C5.5023 11.6077 5.40262 11.5339 5.26753 11.5255C5.1958 11.4992 5.12406 11.5001 5.05186 11.5245C5.01832 11.5255 4.98479 11.5264 4.95125 11.5269C4.92376 11.4438 4.92609 11.3606 4.94985 11.2775V11.278Z" fill="#F8BC80"/>
<path d="M7.53039 10.5786C7.48102 10.6364 7.41487 10.6049 7.35571 10.6129C7.40462 10.5546 7.47123 10.5861 7.53039 10.5786Z" fill="#EFB47A"/>
<path d="M8.99268 11.5226C8.99314 11.4419 8.99407 11.3611 8.99454 11.2798C9.00665 11.2831 9.0183 11.2864 9.02994 11.2897C9.02854 11.3676 9.02761 11.4461 9.02621 11.524L9.00944 11.525L8.99268 11.5226Z" fill="#FAC996"/>
<path d="M8.64233 11.5255C8.71407 11.4752 8.7858 11.4733 8.85754 11.5255C8.7858 11.5255 8.71407 11.5255 8.64233 11.5255Z" fill="#DDD4CB"/>
<path d="M4.94985 11.2779C4.95032 11.3611 4.95078 11.4442 4.95125 11.5273C4.9396 11.5386 4.92843 11.5499 4.91678 11.5612C4.91631 11.4705 4.91538 11.3794 4.91492 11.2887C4.92656 11.285 4.93774 11.2812 4.94939 11.2775L4.94985 11.2779Z" fill="#FCD4AE"/>
<path d="M5.05176 11.525C5.12396 11.4757 5.19569 11.4729 5.26743 11.5259C5.19569 11.5259 5.12349 11.5255 5.05176 11.525Z" fill="#DDD4CB"/>
</svg>
