<svg width="34" height="40" viewBox="0 0 34 40" fill="none" xmlns="http://www.w3.org/2000/svg">
<defs>
<filter id="filter0_f_4877_11110" x="6.86621" y="12.5513" width="21.6592" height="22.6353" filterUnits="userSpaceOnUse" color-interpolation-filters="sRGB">
<feFlood flood-opacity="0" result="BackgroundImageFix"/>
<feBlend mode="normal" in="SourceGraphic" in2="BackgroundImageFix" result="shape"/>
<feGaussianBlur stdDeviation="0.5" result="effect1_foregroundBlur_4877_11110"/>
</filter>
<linearGradient id="paint0_linear_4877_11110" x1="24.6801" y1="4.00805" x2="19.0446" y2="6.44747" gradientUnits="userSpaceOnUse">
<stop stop-color="white"/>
<stop offset="1" stop-color="white" stop-opacity="0"/>
</linearGradient>
</defs>
<path d="M16.2194 36.8372C21.0029 37.2802 23.0521 35.8558 24.1442 34.2225C25.0465 33.029 24.3911 31.7212 23.9506 31.2165C24.7901 31.5559 26.501 31.6352 27.7396 29.392C28.3628 28.6813 29.1252 26.6596 27.1896 24.258C27.6142 24.1502 30.1578 22.299 27.981 17.8793C27.1237 16.1388 25.8923 14.8161 24.247 13.8549C24.6616 13.7072 27.4243 10.9388 26.4855 6.05409C26.1958 4.31951 24.71 0.95993 21.0845 1.39822C16.5526 1.94609 16.9501 4.10533 16.532 6.0196C16.114 7.93386 17.9248 9.13157 16.3406 11.7939L15.5969 11.8321C10.9572 11.9553 5.59342 17.536 5.05139 24.3034C4.50937 31.0709 11.4359 36.3941 16.2194 36.8372Z" fill="#FFC32A"/>
<path d="M13.8836 27.6364C15.6541 27.4882 19.7209 27.6009 21.8238 29.2367C24.4524 31.2816 25.2365 32.5893 24.1444 34.2226C23.0523 35.856 21.0031 37.2803 16.2196 36.8373C11.4361 36.3943 4.50956 31.071 5.05158 24.3036C5.5936 17.5362 10.9574 11.9554 15.5971 11.8322C15.8455 11.8256 16.0965 11.8244 16.3496 11.8287M27.1897 24.2581C27.6144 24.1503 30.158 22.2991 27.9811 17.8794C27.1239 16.1389 25.7408 14.8123 24.0955 13.8511M13.6439 20.1633C14.3869 19.9245 15.8948 19.6521 17.6815 20.0423C19.9148 20.5301 24.6308 21.8943 26.1945 23.3054C27.7582 24.7165 29.2881 26.5883 27.7398 29.3922C26.5012 31.6353 24.7903 31.556 23.9508 31.2167M16.3496 11.8287C16.6755 11.3319 17.2194 9.91358 16.7882 8.21494C16.2491 6.09164 16.3078 2.76184 19.2085 1.72403C22.1093 0.686227 25.5469 1.16957 26.4857 6.05425C27.4245 10.9389 24.5101 13.7033 24.0955 13.8511M16.3496 11.8287C18.9618 11.8727 21.7867 12.5021 24.0955 13.8511" stroke="#B14A00" stroke-width="0.3"/>
<ellipse cx="22.1677" cy="5.48486" rx="3.02407" ry="3.35901" transform="rotate(-55.4931 22.1677 5.48486)" fill="url(#paint0_linear_4877_11110)" fill-opacity="0.8"/>
<g filter="url(#filter0_f_4877_11110)">
<path d="M12.1475 15.7211C9.60045 16.6089 8.33732 19.9029 8.02414 21.439C7.38605 21.2996 8.78619 16.7252 10.2692 15.4446C11.7522 14.1641 14.2642 13.3756 15.2214 13.5846C16.1785 13.7937 15.3314 14.6115 12.1475 15.7211Z" fill="white" fill-opacity="0.5"/>
<path d="M13.7581 20.2846L13.7155 18.3366L12.9315 17.0289C12.0132 17.7643 10.0918 19.2566 9.75206 19.3429C9.41233 19.4291 10.0418 21.0774 10.3989 21.8908L11.9942 22.2392L13.7581 20.2846Z" fill="white" fill-opacity="0.5"/>
<path d="M12.4474 29.9594L13.7845 27.5104L13.1575 25.5601L12.996 24.9984L10.3806 26.5665L10.1445 29.7906L12.4474 29.9594Z" fill="white" fill-opacity="0.5"/>
<path d="M20.2776 30.5329C18.9961 28.8091 17.3336 29.422 16.6625 29.944C18.0714 27.7781 20.2732 29.3286 21.2685 30.2814C22.2637 31.2341 23.6521 33.1418 22.6634 33.9955C21.6748 34.8492 21.8794 32.6878 20.2776 30.5329Z" fill="white" fill-opacity="0.5"/>
<path d="M18.2795 21.7285C18.1993 21.7371 18.1225 21.7465 18.0494 21.7566C18.1251 21.7374 18.2018 21.7283 18.2795 21.7285C20.1158 21.5328 23.7302 21.7966 25.1784 24.3163C27.0677 27.6036 27.8496 28.3092 25.4769 28.4595C23.1888 28.6045 20.381 21.735 18.2795 21.7285Z" fill="white" fill-opacity="0.5"/>
<path d="M19.9279 13.7926C19.8813 13.7881 19.8358 13.7841 19.7913 13.7805C19.8364 13.7803 19.8819 13.7844 19.9279 13.7926C21.9237 13.9837 25.818 14.9656 26.4641 17.5108C27.2907 20.7665 28.4275 21.6833 26.3358 21.1596C24.2961 20.649 21.7293 14.112 19.9279 13.7926Z" fill="white" fill-opacity="0.5"/>
</g>
</svg>
