<svg width="40" height="47" viewBox="0 0 40 47" fill="none" xmlns="http://www.w3.org/2000/svg">
<path d="M29.2881 37.4963C29.7721 36.8622 30.3398 36.2744 30.72 35.5829C31.1765 34.7541 31.5216 33.8542 31.818 32.953C31.9906 32.4288 32.2582 32.1791 32.7572 32.3339C33.2749 32.4949 33.1511 32.9655 33.0536 33.3399C32.8147 34.2648 32.5359 35.1785 32.2832 36.0996C32.2407 36.2556 32.2495 36.4241 32.3545 36.6688C32.8097 36.0921 33.2799 35.5267 33.7151 34.9351C34.0228 34.5182 34.2341 34.0214 34.5843 33.6495C34.7619 33.461 35.2396 33.3225 35.4184 33.4298C35.6085 33.5446 35.7686 34.0676 35.6636 34.2586C34.8982 35.644 34.034 36.9758 32.7797 37.9806C32.0719 38.5473 31.4654 38.4137 30.9276 37.6623C30.2661 38.3588 29.5182 39.089 28.5065 38.6321C27.461 38.1591 27.9412 37.0682 27.8149 36.0073C27.3335 36.4166 26.912 36.7324 26.5431 37.0981C26.0904 37.5475 25.749 38.1329 25.24 38.4948C23.9581 39.406 22.5575 38.7058 22.4237 37.1493C22.4137 37.0307 22.3912 36.9122 22.3724 36.7761C21.2832 37.5812 20.8154 38.6421 20.5916 39.9315C20.2689 41.7912 19.7287 43.6136 18.5144 45.1276C18.2293 45.4821 17.8078 45.7791 17.3864 45.9626C16.6785 46.2709 16.0457 45.8453 15.9595 45.0752C15.8544 44.1528 16.1045 43.2878 16.5335 42.4977C17.0762 41.4967 17.7003 40.5381 18.2905 39.5633C18.3818 39.411 18.4831 39.265 18.6282 39.039C18.3956 39.094 18.258 39.1376 18.1192 39.1589C17.24 39.2912 16.661 38.898 16.6398 38.0018C16.6198 37.1805 16.7073 36.3418 16.8661 35.5342C17.0249 34.7254 17.3426 33.9478 17.5664 33.1502C17.714 32.6222 18.1292 32.5536 18.4856 32.7333C18.6745 32.8282 18.8133 33.3 18.7557 33.5509C18.5269 34.5382 18.1905 35.5005 17.9391 36.4841C17.8341 36.8947 17.8428 37.3328 17.8003 37.7584L17.9991 37.8508C18.313 37.53 18.7095 37.2554 18.9171 36.8772C19.4798 35.8475 20.0088 34.7915 20.4465 33.7031C20.6291 33.2488 20.8555 33.0965 21.2657 33.1714C21.7171 33.2526 21.7796 33.607 21.7096 33.9915C21.6096 34.5407 21.492 35.0861 21.4783 35.7052C22.2849 34.8365 23.084 33.9615 23.8994 33.1015C24.3108 32.6672 24.6972 32.1741 25.1912 31.8571C26.4018 31.0833 27.5561 31.6886 27.6674 33.1103C27.7036 33.5733 27.6736 34.0414 27.8199 34.6093C28.1551 34.0888 28.5453 33.5946 28.8091 33.0404C29.0217 32.5948 29.2744 32.304 29.7483 32.4949C30.1998 32.6772 30.1673 33.0841 30.0322 33.5059C29.692 34.5706 29.3756 35.6428 29.0693 36.7175C29.0117 36.9209 29.043 37.1506 29.033 37.3677C29.1193 37.4114 29.2043 37.4551 29.2906 37.4988L29.2881 37.4963ZM26.4368 33.3924C26.3993 33.0753 26.0354 32.9118 25.7715 33.094C24.9811 33.642 24.2183 34.7117 24.2395 35.3495C24.2445 35.513 24.5084 35.7951 24.6672 35.8051C25.4563 35.855 25.9553 35.7489 26.1417 34.9401C26.2342 34.5382 26.3943 34.1475 26.443 33.7418C26.4568 33.627 26.4518 33.5109 26.4368 33.3924ZM17.1125 44.3562C17.1825 44.3849 17.2526 44.4124 17.3226 44.4411C18.0604 43.7034 18.9171 41.8774 18.7945 40.9899C18.2343 42.112 17.6727 43.2341 17.1125 44.3562ZM24.8285 37.2629L24.796 37.198C24.7673 37.1393 24.711 37.0994 24.6472 37.0882C24.4334 37.0532 24.212 37.017 23.9444 36.9721C23.7706 36.9434 23.6443 37.1343 23.738 37.2829C23.8318 37.4314 23.9131 37.5437 23.9982 37.5475C24.2708 37.56 24.5509 37.369 24.8285 37.2629Z" fill="black"/>
<path d="M8.22612 14.8409C6.27147 14.8409 4.38059 14.8409 2.48847 14.8409C2.32214 14.8409 2.11455 14.907 1.99824 14.8309C1.7969 14.6998 1.51802 14.4814 1.52052 14.3016C1.52303 14.077 1.74188 13.8149 1.93572 13.6489C2.04827 13.5527 2.29588 13.6089 2.48347 13.6052C4.35683 13.559 6.2302 13.524 8.10356 13.4554C8.2924 13.4479 8.52376 13.2794 8.65007 13.1184C8.96396 12.7152 9.56924 12.6653 9.77433 13.1209C9.93191 13.4716 10.142 13.4317 10.4096 13.4229C13.4898 13.3181 16.5687 13.2195 19.6489 13.1134C20.1166 13.0972 20.4443 13.2557 20.448 13.7587C20.4518 14.2467 20.1166 14.3516 19.6852 14.3616C16.4999 14.4377 13.3147 14.5326 10.1282 14.6049C9.74182 14.6137 9.55673 14.6986 9.45419 15.1254C8.65382 18.4718 7.81718 21.8093 6.99055 25.1494C6.96054 25.2692 6.91051 25.3866 6.8905 25.5076C6.81297 25.9595 6.50408 26.088 6.11264 26.0119C5.6962 25.9308 5.60741 25.5963 5.6887 25.238C5.91255 24.247 6.15892 23.2597 6.40153 22.2724C7.01306 19.7811 7.62584 17.291 8.22862 14.8421L8.22612 14.8409Z" fill="black"/>
<path d="M22.3206 7.03356C23.2973 6.64413 23.4136 6.24347 22.8571 5.42842C22.6632 5.14384 22.4431 5.1039 22.3131 5.4434C22.1793 5.79288 22.128 6.17482 22.0542 6.48187C21.4802 5.21124 22.4069 3.96557 23.9551 4.1191C24.4028 4.16403 24.6392 4.03797 24.8843 3.71095C25.1319 3.38019 25.4233 3.07439 25.7272 2.79355C25.8635 2.66749 26.0811 2.62879 26.2887 2.53768C26.1886 2.37542 26.0661 2.16448 25.9323 1.96103C25.5183 1.33445 25.7922 0.714111 26.5313 0.610513C27.6556 0.453245 29.3914 1.79752 29.5164 2.92211C29.5914 3.59612 29.0249 4.13532 28.2458 3.95434C27.6318 3.81205 27.3667 4.06043 27.1116 4.49979C27.039 4.62585 26.9552 4.74692 26.8639 4.85926C26.4975 5.30735 26.3024 5.72923 26.5388 6.36704C26.7964 7.06351 26.5988 7.80243 26.0311 8.31417C25.4583 8.83091 24.738 8.73855 24.0764 8.49016C23.3498 8.21806 22.7095 7.80118 22.3206 7.03231V7.03356Z" fill="#E20E0E"/>
<path d="M7.15213 40.9673C4.21702 41.0197 2.26862 39.5419 0.765427 37.3327C0.602852 37.0943 0.612857 36.6998 0.639119 36.3866C0.652875 36.2318 0.88048 35.9884 1.02305 35.9797C1.22939 35.9659 1.49827 36.0783 1.65084 36.228C2.34491 36.9095 2.92392 37.7358 3.69678 38.3037C6.13416 40.0936 9.01424 39.8202 11.5329 37.6709C11.5804 37.631 11.6292 37.5898 11.673 37.5461C11.9794 37.2428 12.2995 36.932 12.7347 37.3202C12.9861 37.5448 12.9123 38.3025 12.6121 38.5808C11.0402 40.0324 9.28061 41.0597 7.15213 40.9661V40.9673Z" fill="#E20E0E"/>
<path d="M39.5946 29.7505C39.5145 30.0838 39.4783 30.266 39.4283 30.4445C38.8292 32.5988 38.2427 34.7569 37.6137 36.9013C37.4861 37.3344 37.301 37.735 37.2923 38.2068C37.2835 38.6599 36.9584 38.8684 36.5157 38.7835C36.0317 38.6911 35.9592 38.3317 36.0692 37.9223C36.7995 35.225 37.5386 32.529 38.2677 29.8317C38.3853 29.3986 38.6516 29.1564 39.0806 29.2862C39.2982 29.3524 39.4545 29.617 39.5946 29.7505Z" fill="black"/>
<path d="M5.73027 32.2536C5.72777 33.0287 5.2463 33.5604 4.54098 33.5654C3.88442 33.5692 3.52801 33.1386 3.53426 32.3485C3.54051 31.5459 3.96071 31.0441 4.63477 31.0329C5.31008 31.0217 5.73152 31.4922 5.72902 32.2549L5.73027 32.2536Z" fill="#E20E0E"/>
<path d="M11.0656 32.9556C10.8543 33.2876 10.703 33.687 10.4191 33.9392C9.84131 34.4522 9.05469 34.1489 8.90712 33.3925C8.86085 33.1553 8.86336 32.8957 8.90462 32.6561C9.02593 31.9421 9.46488 31.5552 10.0577 31.6014C10.6154 31.6451 10.9593 32.1393 11.0656 32.9556Z" fill="#E20E0E"/>
<path d="M35.9932 21.0996C35.6155 20.7438 35.2165 20.9436 34.8576 21.298C34.2236 21.9246 33.572 22.54 32.8755 23.0954C32.5053 23.3912 32.0288 23.5535 31.5999 23.7756C31.5436 23.727 31.4873 23.677 31.431 23.6284C31.5524 23.2938 31.6011 22.9032 31.81 22.6348C32.7216 21.4565 33.6633 20.2983 34.6313 19.1649C34.9452 18.798 35.1915 18.4684 34.8664 18.0241C34.625 17.6946 34.1348 17.7994 33.6758 18.2213C33.1568 18.6981 32.6291 19.1662 32.1814 19.5693C32.1701 19.6367 32.1776 19.5593 32.1964 19.4832C32.4853 18.2912 32.7842 17.103 33.0605 15.9085C33.1543 15.5041 33.2644 15.0248 32.6891 14.8875C32.1339 14.7552 31.9338 15.1059 31.8275 15.6089C31.6011 16.6823 31.3385 17.7495 31.0621 18.8117C30.8383 19.6717 30.687 20.5766 30.298 21.3604C29.8603 22.2441 29.2025 23.0217 28.6185 23.8306C28.4272 24.0952 28.172 24.3148 27.9469 24.5557C27.9007 24.527 27.8544 24.4971 27.8081 24.4684C28.0107 23.7557 28.2221 23.0455 28.4134 22.329C28.621 21.5539 28.9049 20.7825 28.9812 19.9937C29.08 18.9602 28.3196 18.5296 27.3967 19.0513C26.9527 19.3022 26.5763 19.6717 26.2937 19.8914C26.0211 19.6979 25.7659 19.3759 25.5521 19.4008C25.3082 19.4295 25.0131 19.7278 24.8968 19.9812C24.6992 20.4093 24.6592 20.9074 24.4903 21.3517C24.0189 22.5961 23.0659 23.4748 22.1268 24.3822C22.2943 23.4024 22.5394 22.4638 22.8046 21.5314C22.9284 21.0946 23.1535 20.6752 23.2098 20.2321C23.241 19.9862 23.0722 19.5356 22.9034 19.4869C22.6658 19.4183 22.3368 19.6193 22.0642 19.7441C21.9804 19.7828 21.9529 19.9475 21.9004 20.0549C20.2834 19.2124 19.2329 19.96 18.5176 20.9311C18.1487 21.4316 17.8423 21.977 17.4771 22.4813C17.1244 22.9681 16.7343 23.4274 16.3603 23.898C16.2653 23.6371 16.269 23.4499 16.3053 23.2689C16.4917 22.3115 16.7193 21.3592 16.8556 20.3944C16.8981 20.0923 16.7805 19.5568 16.5954 19.4832C16.2928 19.3621 15.8539 19.4795 15.5099 19.6005C15.2748 19.6829 15.0885 19.9325 14.9059 20.1298C14.4945 20.5716 14.098 21.0284 13.5941 21.5926C14.1106 19.7915 14.5845 18.1414 15.0585 16.4914C15.166 16.1169 15.1598 15.7412 14.7358 15.6114C14.3257 15.4853 13.973 15.5877 13.8292 16.0994C12.9825 19.1088 12.1159 22.1131 11.2655 25.1212C11.1629 25.4831 11.1892 25.8538 11.5994 26.0198C12.0158 26.1871 12.3022 25.9911 12.5236 25.6192C12.8962 24.9951 13.2827 24.3785 13.6941 23.7806C14.1468 23.1228 14.6345 22.4913 15.1085 21.8472C15.2186 22.0931 15.1723 22.2679 15.166 22.4438C15.1373 23.1865 15.0635 23.9342 15.1173 24.6718C15.1598 25.256 15.5937 25.533 16.1778 25.4482C16.4554 25.407 16.7168 25.2634 17.0394 25.1461C17.3408 26.0223 17.8473 26.3518 18.6264 25.9761C19.2054 25.6966 19.6869 25.206 20.1834 24.7767C20.416 24.5745 20.581 24.2949 20.8437 23.9654C20.8437 24.3573 20.8474 24.6069 20.8437 24.8553C20.8349 25.3059 20.8562 25.7565 21.3289 25.9799C21.8116 26.2083 22.2618 26.0585 22.6658 25.7515C22.9159 25.5618 23.1585 25.3596 23.3035 25.2422C23.4148 25.5505 23.4424 25.9437 23.6537 26.1372C24.0001 26.4529 24.5279 26.1671 24.6654 25.6279C25.0418 24.1588 25.7222 22.8383 26.6163 21.6251C26.889 21.2556 27.2091 20.9211 27.508 20.5704C27.5643 20.8412 27.4917 21.0309 27.4455 21.2281C27.1616 22.4538 26.8627 23.6758 26.6163 24.909C26.52 25.3945 26.6176 25.9025 27.1441 26.1272C27.6531 26.3456 28.1283 26.1646 28.5272 25.8164C28.8799 25.5093 29.21 25.1773 29.6165 24.7941C29.4701 25.4282 29.3638 25.9749 29.215 26.5091C29.0975 26.9322 29.0537 27.3217 29.5702 27.4615C30.1229 27.6112 30.3593 27.288 30.4606 26.7812C30.5857 26.1559 30.752 25.538 30.9058 24.8965C31.8662 25.1212 32.7054 24.8516 33.412 24.3161C34.2699 23.6683 35.049 22.9157 35.8506 22.1942C36.197 21.8822 36.3508 21.4403 35.9944 21.1033L35.9932 21.0996ZM18.5614 24.7105C18.4963 24.6631 18.43 24.6156 18.365 24.5682C18.4826 22.7247 20.0746 20.6353 21.1363 21.1969C20.2684 22.3814 19.4155 23.546 18.5614 24.7105Z" fill="black"/>
</svg>
