<svg width="52" height="71" viewBox="0 0 52 71" fill="none" xmlns="http://www.w3.org/2000/svg">
<path fill-rule="evenodd" clip-rule="evenodd" d="M38.5542 24.9055V19.2778L45.1134 13.9581H6.88477L13.4439 19.2778V24.9055H38.5542Z" fill="#DADADA"/>
<path fill-rule="evenodd" clip-rule="evenodd" d="M6.88477 23.5595L13.4439 19.2778L6.88477 13.9581V23.5595Z" fill="#F5F5F5"/>
<path fill-rule="evenodd" clip-rule="evenodd" d="M13.4452 19.278L6.88615 23.5596L4.82422 24.9056H13.4452V19.278Z" fill="#DADADA"/>
<path fill-rule="evenodd" clip-rule="evenodd" d="M38.5566 19.278V24.9056H47.8962L45.1159 23.2302L38.5566 19.278Z" fill="#DADADA"/>
<path fill-rule="evenodd" clip-rule="evenodd" d="M38.5566 19.2778L45.1159 23.2301V13.9581L38.5566 19.2778Z" fill="#F5F5F5"/>
<path fill-rule="evenodd" clip-rule="evenodd" d="M47.8954 24.9055H38.5558H13.4455H4.82453L1.36914 68.6948H50.6324L47.8954 24.9055Z" fill="#F5F5F5"/>
<path d="M51.9973 68.6094L49.2605 24.8201C49.2324 24.3715 48.986 23.9652 48.6011 23.7333L46.4829 22.457V13.958C46.4829 13.2022 45.8701 12.5896 45.1145 12.5896H6.88572C6.12995 12.5896 5.51731 13.2022 5.51731 13.958V22.8185L4.07582 23.7594C3.72058 23.9912 3.49301 24.3748 3.45962 24.7976L0.00423302 68.587C-0.0257353 68.9674 0.104401 69.3431 0.363442 69.6234C0.622483 69.9036 0.986756 70.0631 1.36841 70.0631H50.6315C51.0093 70.0631 51.3702 69.9069 51.6288 69.6316C51.8876 69.3563 52.0209 68.9864 51.9973 68.6094ZM43.7459 20.8079L40.9319 19.1123L43.7459 16.8299V20.8079ZM42.9722 23.5369H39.9235V21.7L42.9722 23.5369ZM41.2549 15.3264L37.6933 18.215C37.3728 18.4749 37.1868 18.8653 37.1868 19.2779V23.5369H14.8132V19.2779C14.8132 18.8654 14.6271 18.4749 14.3068 18.215L10.7452 15.3264H41.2549ZM12.0764 23.5369H9.42359L12.0764 21.8053V23.5369ZM8.25414 16.8299L11.1248 19.1583L8.25414 21.0322V16.8299ZM2.84903 67.3262L3.06511 64.5893H9.85437C10.6101 64.5893 11.2228 63.9766 11.2228 63.2209C11.2228 62.4651 10.6101 61.8524 9.85437 61.8524H3.28104L6.08848 26.2738H46.6092L49.175 67.3262H2.84903Z" fill="#B9B7B7"/>
<path d="M25.9993 5.88419C26.7551 5.88419 27.3677 5.27155 27.3677 4.51577V1.36842C27.3677 0.61264 26.7549 0 25.9993 0C25.2436 0 24.6309 0.61264 24.6309 1.36842V4.51577C24.6309 5.27155 25.2435 5.88419 25.9993 5.88419Z" fill="#B9B7B7"/>
<path d="M17.6479 7.12073C17.9013 7.55972 18.3613 7.80521 18.8342 7.80521C19.0663 7.80521 19.3016 7.74596 19.5172 7.62157C20.1717 7.24375 20.396 6.40683 20.018 5.75231L18.4443 3.0267C18.0665 2.37205 17.2294 2.14777 16.5751 2.52586C15.9206 2.90368 15.6963 3.7406 16.0742 4.39512L17.6479 7.12073Z" fill="#B9B7B7"/>
<path d="M32.4832 7.6216C32.6987 7.74612 32.934 7.80524 33.1661 7.80524C33.639 7.80524 34.099 7.55975 34.3525 7.12076L35.9262 4.39515C36.3041 3.74063 36.0798 2.90371 35.4253 2.52589C34.7707 2.14766 33.9339 2.37222 33.5561 3.02673L31.9824 5.75234C31.6046 6.40672 31.8287 7.24378 32.4832 7.6216Z" fill="#B9B7B7"/>
<path d="M38.6737 30.3792H33.2002C32.4446 30.3792 31.8318 30.9918 31.8318 31.7476C31.8318 32.5033 32.4446 33.116 33.2002 33.116H34.5686V41.3265C34.5686 45.8537 30.8854 49.537 26.358 49.537C21.8307 49.537 18.1475 45.8537 18.1475 41.3265V33.116H19.5159C20.2717 33.116 20.8843 32.5033 20.8843 31.7476C20.8843 30.9918 20.2717 30.3792 19.5159 30.3792H14.0422C13.2865 30.3792 12.6738 30.9918 12.6738 31.7476C12.6738 32.5033 13.2865 33.116 14.0422 33.116H15.4107V41.3265C15.4107 47.3628 20.3216 52.2738 26.358 52.2738C32.3943 52.2738 37.3055 47.3628 37.3055 41.3265V33.116H38.6737C39.4294 33.116 40.0421 32.5033 40.0421 31.7476C40.0421 30.9918 39.4294 30.3792 38.6737 30.3792Z" fill="#B9B7B7"/>
<path d="M16.0129 61.8522C15.2572 61.8522 14.6445 62.4648 14.6445 63.2206C14.6445 63.9764 15.2572 64.589 16.0129 64.589H16.0139C16.7697 64.589 17.3819 63.9764 17.3819 63.2206C17.3819 62.4648 16.7687 61.8522 16.0129 61.8522Z" fill="#B9B7B7"/>
</svg>
