<svg width="46" height="66" viewBox="0 0 46 66" fill="none" xmlns="http://www.w3.org/2000/svg">
<path fill-rule="evenodd" clip-rule="evenodd" d="M26.8327 8.8496V5.11106C26.8327 3.00272 25.1077 1.27771 22.9994 1.27771C20.891 1.27771 19.166 3.00272 19.166 5.11106V8.8496C20.4019 8.57704 21.6847 8.43342 22.9994 8.43342C24.3141 8.43342 25.5968 8.57717 26.8327 8.8496Z" fill="#DADADA"/>
<path fill-rule="evenodd" clip-rule="evenodd" d="M26.8326 8.84977C25.5967 8.57722 24.3139 8.43359 22.9992 8.43359C21.6845 8.43359 20.4018 8.57734 19.1659 8.84977C11.1527 10.6168 5.11035 17.7982 5.11035 26.3224V49.3225H40.8881V26.3224C40.8881 17.7982 34.8458 10.6168 26.8326 8.84977Z" fill="#F5F5F5"/>
<path fill-rule="evenodd" clip-rule="evenodd" d="M40.8884 49.3224H5.11068C3.00234 49.3224 1.27734 51.0474 1.27734 53.1557C1.27734 55.2642 3.00234 56.9891 5.11068 56.9891H15.844H30.1552H40.8884C42.9968 56.9891 44.7218 55.2641 44.7218 53.1557C44.7218 51.0473 42.9968 49.3224 40.8884 49.3224Z" fill="#DADADA"/>
<path fill-rule="evenodd" clip-rule="evenodd" d="M30.155 56.989H15.8438C15.8438 60.9409 19.0474 64.1447 22.9995 64.1447C26.9514 64.1447 30.155 60.9409 30.155 56.989Z" fill="#F5F5F5"/>
<path d="M42.1668 48.2062V26.3222C42.1668 22.4949 41.0392 18.9261 39.0986 15.9303H41.7458C42.4514 15.9303 43.0235 15.3582 43.0235 14.6525C43.0235 13.9468 42.4514 13.3748 41.7458 13.3748H39.1902L42.768 8.6043C43.0583 8.21713 43.1052 7.69912 42.8886 7.26621C42.672 6.8333 42.2298 6.55986 41.7458 6.55986H36.6347C35.9291 6.55986 35.3569 7.13192 35.3569 7.83763C35.3569 8.54335 35.9291 9.11541 36.6347 9.11541H39.1902L36.4885 12.7178C34.1895 10.4383 31.3178 8.73565 28.1111 7.84747V5.11111C28.1111 2.29284 25.8184 0 23 0C20.1816 0 17.8889 2.29284 17.8889 5.11111V7.85565C16.4407 8.25892 15.0392 8.83277 13.7198 9.56838C13.1034 9.91198 12.8822 10.6903 13.2259 11.3067C13.5695 11.9231 14.3475 12.1443 14.9642 11.8005C17.4161 10.4337 20.1948 9.71111 23 9.71111C32.1594 9.71111 39.6111 17.1627 39.6111 26.3222V48.0444H6.38889V26.3222C6.38889 23.9774 6.87432 21.7066 7.83176 19.5731C8.12066 18.9293 7.83303 18.1731 7.18916 17.8842C6.54503 17.5951 5.7891 17.8829 5.50019 18.5268C4.39415 20.9915 3.83333 23.6142 3.83333 26.3221V48.2061C1.63134 48.7749 0 50.7782 0 53.1556C0 55.9738 2.29284 58.2667 5.11111 58.2667H14.6628C14.9344 60.0602 15.7744 61.7121 17.089 63.004C18.6759 64.5636 20.7753 65.4223 23.0001 65.4223C25.2251 65.4223 27.3243 64.5636 28.9111 63.004C30.2257 61.7121 31.0657 60.0602 31.3374 58.2667H40.889C43.7073 58.2667 46 55.9738 46 53.1556C46 50.7784 44.3687 48.7751 42.1668 48.2062ZM20.4444 7.32882V5.11111C20.4444 3.70198 21.5909 2.55556 23 2.55556C24.4091 2.55556 25.5556 3.70198 25.5556 5.11111V7.32524C24.7194 7.21331 23.8663 7.15556 23 7.15556C22.1439 7.15556 21.29 7.21395 20.4444 7.32882ZM23 62.8669C20.2176 62.8669 17.854 60.8897 17.2638 58.2668H28.7361C28.146 60.8897 25.7824 62.8669 23 62.8669ZM40.889 55.7112H5.11111C3.70198 55.7112 2.55556 54.5648 2.55556 53.1557C2.55556 51.7465 3.70198 50.6001 5.11111 50.6001H40.8889C42.2979 50.6001 43.4443 51.7465 43.4443 53.1557C43.4444 54.5648 42.298 55.7112 40.889 55.7112Z" fill="#B9B7B7"/>
<path d="M11.3275 32.7681C12.2885 33.7291 13.5664 34.2585 14.9256 34.2585C16.2848 34.2585 17.5627 33.7293 18.5237 32.7681C19.0227 32.2691 19.0227 31.4601 18.5237 30.9609C18.0248 30.4618 17.2157 30.462 16.7166 30.9609C16.2382 31.4394 15.6021 31.7028 14.9255 31.7028C14.249 31.7028 13.613 31.4394 13.1346 30.9609C12.6356 30.462 11.8265 30.462 11.3274 30.9609C10.8283 31.4599 10.8284 32.2691 11.3275 32.7681Z" fill="#B9B7B7"/>
<path d="M27.4768 32.7681C28.4378 33.7291 29.7157 34.2585 31.0749 34.2585C32.4341 34.2585 33.712 33.7292 34.673 32.7681C35.172 32.2691 35.172 31.46 34.673 30.9609C34.1739 30.4619 33.3651 30.4619 32.8658 30.9609C32.3874 31.4393 31.7514 31.7028 31.0748 31.7028C30.3982 31.7028 29.7622 31.4393 29.2837 30.9609C28.7846 30.4619 27.9758 30.4619 27.4765 30.9609C26.9778 31.4599 26.9778 32.2691 27.4768 32.7681Z" fill="#B9B7B7"/>
<path d="M24.8054 41.7349C25.511 41.7349 26.0831 41.1628 26.0831 40.4571C26.0831 39.7514 25.511 39.1793 24.8054 39.1793H21.1958C20.49 39.1793 19.918 39.7514 19.918 40.4571C19.918 41.1628 20.49 41.7349 21.1958 41.7349H24.8054Z" fill="#B9B7B7"/>
<path d="M28.0158 24.121C28.2323 24.5539 28.6746 24.8273 29.1587 24.8273H32.992C33.6976 24.8273 34.2698 24.2553 34.2698 23.5496C34.2698 22.8438 33.6976 22.2718 32.992 22.2718H31.7142L34.0142 19.2051C34.3045 18.8179 34.3514 18.2999 34.1349 17.867C33.9183 17.4341 33.476 17.1606 32.992 17.1606H29.1587C28.4531 17.1606 27.8809 17.7327 27.8809 18.4384C27.8809 19.1441 28.4531 19.7162 29.1587 19.7162H30.4364L28.1364 22.7829C27.8461 23.1701 27.7992 23.6881 28.0158 24.121Z" fill="#B9B7B7"/>
<path d="M9.82992 15.5258C10.5356 15.5258 11.1077 14.9537 11.1077 14.248C11.1077 13.5423 10.5356 12.9702 9.82992 12.9702H9.82903C9.12331 12.9702 8.55176 13.5423 8.55176 14.248C8.55176 14.9537 9.12421 15.5258 9.82992 15.5258Z" fill="#B9B7B7"/>
</svg>
