<svg width="60" height="60" viewBox="0 0 60 60" fill="none" xmlns="http://www.w3.org/2000/svg">
<path fill-rule="evenodd" clip-rule="evenodd" d="M36.5632 5.85901C26.8556 5.85901 18.9858 13.7286 18.9858 23.4364C18.9858 33.1442 26.8555 41.0138 36.5632 41.0138C36.9914 41.0138 37.4161 40.9983 37.8364 40.9683C37.803 40.797 37.7856 40.6207 37.7856 40.4409C37.7856 38.8986 39.0474 37.6367 40.5898 37.6367H41.1945C41.1945 34.5394 43.7054 32.0284 46.8029 32.0284C48.3773 32.0284 49.8001 32.6771 50.8185 33.7219C52.9086 30.8301 54.1404 27.2772 54.1404 23.4365C54.1407 13.7288 46.271 5.85901 36.5632 5.85901Z" fill="#DDECFF"/>
<path fill-rule="evenodd" clip-rule="evenodd" d="M18.9858 23.4363C18.9858 13.7286 26.8554 5.85894 36.5632 5.85894C46.2709 5.85894 54.1406 13.7286 54.1406 23.4363C54.1406 27.277 52.9087 30.83 50.8187 33.7216C51.1218 34.0326 51.3892 34.3786 51.6142 34.7531C51.9216 34.6684 52.2451 34.623 52.5793 34.623C53.5852 34.623 54.4954 35.033 55.1515 35.6952C57.4749 32.1793 58.8278 27.966 58.8278 23.4365C58.8278 11.14 48.8595 1.17175 36.5631 1.17175C30.2387 1.17175 24.5301 3.80872 20.4769 8.04311C18.6246 9.97815 17.1181 12.2468 16.0565 14.7499C14.9246 17.419 14.2983 20.3546 14.2983 23.4365C14.2983 28.3399 15.8835 32.8731 18.5692 36.5516C19.9327 38.4191 21.58 40.0663 23.4474 41.43C27.1261 44.1158 31.6594 45.7011 36.5631 45.7011C40.2291 45.7011 43.6881 44.8147 46.7379 43.245C44.6824 43.245 42.6269 43.245 40.5713 43.245C39.222 43.245 38.0856 42.2492 37.8362 40.9683C37.4159 40.9984 36.9912 41.0138 36.5631 41.0138C26.8554 41.0138 18.9858 33.1441 18.9858 23.4363Z" fill="white"/>
<path fill-rule="evenodd" clip-rule="evenodd" d="M16.0569 14.7498C17.1185 12.2467 18.625 9.97801 20.4772 8.04297C19.8671 6.90325 18.6651 6.12774 17.282 6.12774C16.9477 6.12774 16.6241 6.1732 16.3169 6.25793C15.3364 4.62534 13.5486 3.53296 11.5056 3.53296C8.40812 3.53296 5.89724 6.04395 5.89724 9.14132H5.29246C3.7501 9.14132 2.48828 10.4031 2.48828 11.9455C2.48828 13.4697 3.74436 14.7497 5.27407 14.7497L16.0569 14.7498Z" fill="white"/>
<path fill-rule="evenodd" clip-rule="evenodd" d="M46.803 32.0282C43.7055 32.0282 41.1946 34.5392 41.1946 37.6366H40.5898C39.0475 37.6366 37.7856 38.8984 37.7856 40.4407C37.7856 40.6205 37.8031 40.797 37.8365 40.9682C38.0859 42.249 39.2222 43.2449 40.5715 43.2449H46.7382H56.1915C57.6417 43.2449 58.8281 42.0585 58.8281 40.6083C58.8281 39.1581 57.6418 37.9717 56.1915 37.9717C56.1254 37.086 55.7408 36.2891 55.152 35.695C54.4957 35.0329 53.5856 34.6229 52.5797 34.6229C52.2454 34.6229 51.9219 34.6683 51.6146 34.753C51.3897 34.3785 51.1223 34.0325 50.8191 33.7215C49.8002 32.6769 48.3774 32.0282 46.803 32.0282Z" fill="white"/>
<path fill-rule="evenodd" clip-rule="evenodd" d="M18.8534 46.224L13.7752 41.1458L2.31979 52.1238C0.791842 53.6517 0.791842 56.1518 2.31979 57.6798C3.84773 59.2077 6.34783 59.2077 7.87577 57.6798L18.8534 46.224Z" fill="#E7E3DC"/>
<path fill-rule="evenodd" clip-rule="evenodd" d="M13.7754 41.1458L18.8536 46.224L23.4478 41.4298C21.5802 40.0662 19.9331 38.4189 18.5696 36.5514L13.7754 41.1458Z" fill="#E7E3DC"/>
<path d="M30.7046 24.6082C31.3518 24.6082 31.8764 24.0835 31.8764 23.4363C31.8764 22.7891 31.3518 22.2644 30.7046 22.2644H30.7038C30.0565 22.2644 29.5322 22.7891 29.5322 23.4363C29.5322 24.0835 30.0573 24.6082 30.7046 24.6082Z" fill="#B9B7B7"/>
<path d="M36.5639 24.6082C37.2112 24.6082 37.7358 24.0835 37.7358 23.4363C37.7358 22.7891 37.2112 22.2644 36.5639 22.2644H36.5631C35.9159 22.2644 35.3916 22.7891 35.3916 23.4363C35.3916 24.0835 35.9167 24.6082 36.5639 24.6082Z" fill="#B9B7B7"/>
<path d="M42.4228 24.6082C43.0701 24.6082 43.5947 24.0835 43.5947 23.4363C43.5947 22.7891 43.0701 22.2644 42.4228 22.2644H42.422C41.7748 22.2644 41.2505 22.7891 41.2505 23.4363C41.2505 24.0835 41.7756 24.6082 42.4228 24.6082Z" fill="#B9B7B7"/>
<path d="M57.1905 36.9329C57.0557 36.4619 56.8502 36.0207 56.5866 35.6212C58.8221 31.9556 59.9999 27.76 59.9999 23.4365C59.9999 10.5136 49.4863 0 36.5634 0C30.4017 0 24.7877 2.39018 20.6 6.29212C19.7177 5.44864 18.5298 4.95624 17.282 4.95624C17.1388 4.95624 16.996 4.96257 16.854 4.97523C15.5788 3.3458 13.5964 2.36147 11.5056 2.36147C8.15679 2.36147 5.36726 4.80156 4.82201 7.99748C2.85041 8.23091 1.31637 9.9126 1.31637 11.9458C1.31637 14.1382 3.09169 15.9218 5.27398 15.9218H14.3623C13.5614 18.2818 13.1269 20.8093 13.1269 23.4365C13.1269 28.223 14.5691 32.6789 17.0419 36.3925L1.50925 51.2779C1.50328 51.2836 1.4973 51.2895 1.49144 51.2953C-0.497148 53.284 -0.497148 56.5198 1.49144 58.5085C2.48574 59.5028 3.79186 60 5.09797 60C6.40409 60 7.71021 59.5028 8.7045 58.5085C8.71036 58.5026 8.71622 58.4967 8.72197 58.4907L23.6069 42.9575C27.3207 45.4304 31.7767 46.873 36.5634 46.873C40.2401 46.873 43.7561 46.0468 47.0182 44.4169H56.1915C58.2914 44.4169 59.9999 42.7084 59.9999 40.6085C59.9999 38.854 58.8075 37.3728 57.1905 36.9329ZM5.2741 13.5781C4.39921 13.5781 3.66014 12.8306 3.66014 11.9457C3.66014 11.0456 4.39242 10.3134 5.2925 10.3134H5.89728C6.54448 10.3134 7.0691 9.78874 7.0691 9.14154C7.0691 6.69523 9.05933 4.705 11.5056 4.705C13.0782 4.705 14.5013 5.5111 15.3123 6.86152C15.5832 7.31255 16.1215 7.52782 16.6285 7.38778C16.8403 7.32943 17.0601 7.29978 17.282 7.29978C17.9145 7.29978 18.5169 7.5475 18.9669 7.97241C17.4934 9.64707 16.2547 11.5329 15.3025 13.5782L5.2741 13.5781ZM7.03934 56.8594C5.96384 57.9262 4.22086 57.9235 3.14876 56.8513C2.07654 55.7792 2.07384 54.0362 3.14067 52.9606L13.7581 42.7856L17.2141 46.2416L7.03934 56.8594ZM18.8358 44.549L15.4505 41.1636L18.4485 38.2905C19.4261 39.4807 20.5186 40.5731 21.7087 41.5509L18.8358 44.549ZM15.4706 23.4364C15.4706 11.8058 24.9329 2.34354 36.5635 2.34354C48.1941 2.34354 57.6564 11.8058 57.6564 23.4364C57.6564 27.1751 56.6784 30.8069 54.818 34.0109C54.1469 33.6535 53.3838 33.4512 52.5797 33.4512C52.5247 33.4512 52.4699 33.4521 52.4152 33.454C54.3139 30.4586 55.3127 27.0161 55.3127 23.4365C55.3127 13.0982 46.9018 4.68731 36.5635 4.68731C33.5252 4.68731 30.506 5.43236 27.8322 6.84195C27.2598 7.14381 27.0403 7.85253 27.3421 8.42508C27.6438 8.99752 28.3526 9.21689 28.9252 8.91526C31.2632 7.68238 33.9045 7.03084 36.5634 7.03084C45.6094 7.03084 52.969 14.3904 52.969 23.4364C52.969 26.4887 52.1394 29.4266 50.5604 31.999C49.4611 31.2679 48.1549 30.8565 46.8033 30.8565C43.4544 30.8565 40.6648 33.2968 40.1197 36.4926C38.3454 36.7026 36.9256 38.0854 36.6591 39.842C36.6286 39.842 36.5967 39.842 36.5635 39.842C27.5175 39.842 20.1579 32.4825 20.1579 23.4364C20.1579 20.7772 20.8094 18.1361 22.0418 15.7987C22.3436 15.2261 22.1243 14.5174 21.5517 14.2155C20.9793 13.9137 20.2704 14.1332 19.9686 14.7056C18.5592 17.3788 17.8142 20.3979 17.8142 23.4364C17.8142 33.7747 26.225 42.1857 36.5634 42.1857C36.7364 42.1857 36.8796 42.1852 37.0146 42.1828C37.5276 43.2358 38.4905 44.0289 39.6501 44.3079C38.6375 44.4552 37.6077 44.5293 36.5635 44.5293C24.9328 44.5293 15.4706 35.067 15.4706 23.4364ZM56.1916 42.0733H40.5716C39.6968 42.0733 38.9577 41.3258 38.9577 40.4409C38.9577 39.5408 39.69 38.8086 40.59 38.8086H41.1948C41.842 38.8086 42.3666 38.2839 42.3666 37.6367C42.3666 35.1904 44.3569 33.2002 46.8032 33.2002C48.3759 33.2002 49.7988 34.0063 50.6099 35.3566C50.8807 35.8077 51.4189 36.023 51.9261 35.8829C52.1379 35.8244 52.3578 35.7949 52.5796 35.7949C53.855 35.7949 54.9282 36.7894 55.023 38.0591C55.0685 38.6708 55.5782 39.1437 56.1915 39.1437C56.9992 39.1437 57.6563 39.8007 57.6563 40.6085C57.6563 41.4162 56.9992 42.0733 56.1916 42.0733Z" fill="#B9B7B7"/>
<path d="M24.1341 12.1791C24.7814 12.1791 25.306 11.6544 25.306 11.0072C25.306 10.36 24.7814 9.83533 24.1341 9.83533H24.1333C23.4861 9.83533 22.9619 10.36 22.9619 11.0072C22.9619 11.6544 23.4869 12.1791 24.1341 12.1791Z" fill="#B9B7B7"/>
</svg>
