<svg width="54" height="54" viewBox="0 0 54 54" fill="none" xmlns="http://www.w3.org/2000/svg">
<path fill-rule="evenodd" clip-rule="evenodd" d="M3.42236 34.4711C6.03118 29.1372 10.6776 22.8052 16.7412 16.7414C22.8052 10.6774 29.1377 6.0309 34.4718 3.42207C31.3906 1.90928 27.9247 1.05981 24.2603 1.05981C11.4469 1.05981 1.05957 11.4471 1.05957 24.2606C1.05968 27.9199 1.9084 31.3867 3.42236 34.4711Z" fill="#EDE4E6"/>
<path fill-rule="evenodd" clip-rule="evenodd" d="M34.4715 3.42212C29.1373 6.03083 22.8049 10.6774 16.7408 16.7415C10.6771 22.8052 6.0308 29.1372 3.42188 34.4712C5.68342 39.0784 9.4294 42.8323 14.0488 45.099C16.8885 46.4926 20.0584 47.324 23.4163 47.4461V36.0721H44.2289C46.3445 32.4954 47.4605 28.4162 47.4605 24.2606C47.4605 20.5963 46.611 17.1304 45.0983 14.0491C42.8341 9.43702 39.0836 5.68651 34.4715 3.42212ZM30.7561 20.2713C30.7561 17.9416 32.6447 16.0529 34.9744 16.0529C37.3041 16.0529 39.1927 17.9416 39.1927 20.2713C39.1927 22.6009 37.3041 24.4896 34.9744 24.4896C32.6447 24.4896 30.7561 22.6009 30.7561 20.2713ZM16.5192 28.4126C17.9636 28.4126 19.1346 29.5835 19.1346 31.028C19.1346 32.4723 17.9637 33.6433 16.5192 33.6433C15.0748 33.6433 13.9039 32.4724 13.9039 31.028C13.904 29.5835 15.0749 28.4126 16.5192 28.4126Z" fill="#EDE4E6"/>
<path d="M18.3636 32.8754C19.3848 31.8542 19.3848 30.1985 18.3636 29.1773C17.3424 28.1561 15.6867 28.1561 14.6655 29.1773C13.6443 30.1985 13.6443 31.8542 14.6655 32.8754C15.6867 33.8966 17.3424 33.8966 18.3636 32.8754Z" fill="#EDE4E6"/>
<path d="M35.9413 24.3619C38.2082 23.8261 39.6114 21.5541 39.0756 19.2873C38.5397 17.0205 36.2677 15.6172 34.0009 16.1531C31.7341 16.6889 30.3309 18.9609 30.8667 21.2277C31.4025 23.4945 33.6745 24.8978 35.9413 24.3619Z" fill="#EDE4E6"/>
<path fill-rule="evenodd" clip-rule="evenodd" d="M44.2297 36.0721H23.417V47.4461V52.9454H52.9452V36.0721H44.2297Z" fill="#EDE4E6"/>
<path d="M38.1813 49.7816C39.9258 49.7816 41.3451 48.3624 41.3451 46.6179V42.3996C41.3451 40.6551 39.9258 39.2358 38.1813 39.2358C36.4368 39.2358 35.0176 40.6551 35.0176 42.3996V46.6179C35.0176 48.3625 36.4368 49.7816 38.1813 49.7816ZM37.1267 42.3996C37.1267 41.8181 37.5998 41.345 38.1813 41.345C38.7628 41.345 39.2359 41.8181 39.2359 42.3996V46.6179C39.2359 47.1994 38.7628 47.6725 38.1813 47.6725C37.5998 47.6725 37.1267 47.1994 37.1267 46.6179V42.3996Z" fill="#B9B7B7"/>
<path d="M28.163 46.618H31.3266V48.7271C31.3266 49.3095 31.7989 49.7816 32.3812 49.7816C32.9635 49.7816 33.4358 49.3095 33.4358 48.7271V40.2904C33.4358 39.708 32.9635 39.2358 32.3812 39.2358C31.7989 39.2358 31.3266 39.708 31.3266 40.2904V44.5088H29.2176V40.2904C29.2176 39.708 28.7453 39.2358 28.163 39.2358C27.5806 39.2358 27.1084 39.708 27.1084 40.2904V45.5634C27.1084 46.1459 27.5806 46.618 28.163 46.618Z" fill="#B9B7B7"/>
<path d="M43.9813 46.618H47.1451V48.7271C47.1451 49.3095 47.6173 49.7816 48.1997 49.7816C48.782 49.7816 49.2542 49.3095 49.2542 48.7271V40.2904C49.2542 39.708 48.782 39.2358 48.1997 39.2358C47.6173 39.2358 47.1451 39.708 47.1451 40.2904V44.5088H45.0359V40.2904C45.0359 39.708 44.5637 39.2358 43.9813 39.2358C43.399 39.2358 42.9268 39.708 42.9268 40.2904V45.5634C42.9268 46.1459 43.399 46.618 43.9813 46.618Z" fill="#B9B7B7"/>
<path d="M52.9454 35.0175H46.0001C47.6496 31.6813 48.5161 27.9906 48.5161 24.2606C48.5161 20.6718 47.7419 17.202 46.2727 14.042C48.9913 8.28251 49.2319 3.85686 46.9482 1.57316C44.7833 -0.591891 40.8307 -0.521023 35.5181 1.77838C35.1759 1.92655 34.8295 2.08337 34.4794 2.24873C31.3194 0.77938 27.8496 0.00521261 24.2607 0.00521261C17.7818 0.00521261 11.6909 2.52819 7.10957 7.1095C2.52837 11.6907 0.0053875 17.7817 0.0053875 24.2606C0.0053875 27.9007 0.809611 31.3614 2.25365 34.4692C2.0865 34.8227 1.9281 35.1723 1.77856 35.5178C-0.520954 40.8303 -0.592032 44.7829 1.57323 46.9481C2.61073 47.9856 4.08957 48.5019 5.9354 48.5019C8.15487 48.5019 10.9046 47.7546 14.0515 46.2681C16.6066 47.4546 19.407 48.2108 22.3626 48.4417V52.9454C22.3626 53.5278 22.8347 53.9999 23.4172 53.9999H52.9454C53.5278 53.9999 54 53.5278 54 52.9454V36.0721C54 35.4896 53.5279 35.0175 52.9454 35.0175ZM45.4567 3.06455C46.854 4.46166 46.6727 7.62361 45.0101 11.681C44.0102 10.0384 42.8064 8.50397 41.4119 7.1095C40.0169 5.7145 38.482 4.51038 36.8386 3.51022C40.927 1.82679 44.0525 1.66017 45.4567 3.06455ZM3.06462 45.4567C1.65929 44.0513 1.82718 40.9225 3.51377 36.8301C5.53782 40.1649 8.34501 42.9775 11.6883 45.0071C7.62747 46.6724 4.46247 46.8548 3.06462 45.4567ZM4.60294 34.4666C6.73962 30.2455 10.1085 25.4991 14.2585 20.8885C14.6481 20.4557 14.613 19.7888 14.1801 19.3992C13.7473 19.0096 13.0805 19.0445 12.6907 19.4775C8.90003 23.6889 5.73313 28.0294 3.5144 32.0224C2.60883 29.6036 2.11455 26.9873 2.11455 24.2606C2.11455 12.0492 12.0493 2.11437 24.2607 2.11437C26.9887 2.11437 29.6031 2.61024 32.0186 3.51644C28.0268 5.73506 23.6879 8.90102 19.478 12.6902C19.0451 13.0799 19.01 13.7467 19.3996 14.1796C19.7892 14.6124 20.456 14.6476 20.889 14.258C25.4971 10.1102 30.2409 6.74282 34.4602 4.60603C41.5529 8.3016 46.4069 15.7249 46.4069 24.2606C46.4069 28.0189 45.4435 31.7334 43.6189 35.0175H23.4172C22.8347 35.0175 22.3626 35.4896 22.3626 36.0721V46.3253C14.5872 45.6604 8.0067 41.0103 4.60294 34.4666ZM51.8909 51.8908H24.4718V37.1267H51.8909V51.8908Z" fill="#B9B7B7"/>
<path d="M34.9751 25.5442C37.8825 25.5442 40.248 23.1788 40.248 20.2713C40.248 17.3638 37.8825 14.9984 34.9751 14.9984C32.0676 14.9984 29.7021 17.3638 29.7021 20.2713C29.7021 23.1788 32.0675 25.5442 34.9751 25.5442ZM34.9751 17.1075C36.7195 17.1075 38.1388 18.5267 38.1388 20.2712C38.1388 22.0157 36.7195 23.435 34.9751 23.435C33.2306 23.435 31.8113 22.0157 31.8113 20.2712C31.8113 18.5267 33.2306 17.1075 34.9751 17.1075Z" fill="#B9B7B7"/>
<path d="M16.5205 27.3579C14.4969 27.3579 12.8506 29.0042 12.8506 31.0279C12.8506 33.0515 14.4969 34.6978 16.5205 34.6978C18.5441 34.6978 20.1905 33.0515 20.1905 31.0279C20.1905 29.0042 18.5441 27.3579 16.5205 27.3579ZM16.5205 32.5886C15.6599 32.5886 14.9597 31.8885 14.9597 31.0279C14.9597 30.1672 15.66 29.4671 16.5205 29.4671C17.3811 29.4671 18.0813 30.1672 18.0813 31.0279C18.0813 31.8885 17.3811 32.5886 16.5205 32.5886Z" fill="#B9B7B7"/>
<path d="M16.7424 17.7959C17.3248 17.7959 17.797 17.3238 17.797 16.7413C17.797 16.1589 17.3248 15.6868 16.7424 15.6868H16.7417C16.1592 15.6868 15.6875 16.1589 15.6875 16.7413C15.6875 17.3238 16.16 17.7959 16.7424 17.7959Z" fill="#B9B7B7"/>
</svg>
