<svg width="52" height="58" viewBox="0 0 52 58" fill="none" xmlns="http://www.w3.org/2000/svg">
<path fill-rule="evenodd" clip-rule="evenodd" d="M44.0872 48.941V41.2014V11.2491L33.9685 1.13049H7.91309V41.2014V48.941H44.0872Z" fill="white"/>
<path fill-rule="evenodd" clip-rule="evenodd" d="M44.0871 48.9409H7.91301V41.2013C4.09857 41.7071 1.13037 44.994 1.13037 48.9409C1.13037 53.2349 4.64366 56.7482 8.93775 56.7482H43.0623C47.3564 56.7482 50.8697 53.2349 50.8697 48.9409C50.8697 44.994 47.9015 41.7071 44.0871 41.2013V48.9409Z" fill="#E1E1E1"/>
<path d="M18.087 21.1328C17.4626 21.1328 16.9565 21.6389 16.9565 22.2633V23.3381C16.9565 23.9624 17.4626 24.4685 18.087 24.4685C18.7113 24.4685 19.2174 23.9624 19.2174 23.3381V22.2633C19.2174 21.6389 18.7113 21.1328 18.087 21.1328Z" fill="#B2B2B2"/>
<path d="M33.9132 24.4685C34.5375 24.4685 35.0436 23.9624 35.0436 23.3381V22.2633C35.0436 21.6389 34.5375 21.1328 33.9132 21.1328C33.2888 21.1328 32.7827 21.6389 32.7827 22.2633V23.3381C32.7827 23.9624 33.2888 24.4685 33.9132 24.4685Z" fill="#B2B2B2"/>
<path d="M30.6065 29.1156C29.3761 27.8852 27.7404 27.2076 26.0003 27.2076C24.2602 27.2076 22.6244 27.8852 21.3941 29.1156C20.9526 29.557 20.9526 30.2728 21.3941 30.7143C21.8355 31.1557 22.5513 31.1557 22.9927 30.7143C23.796 29.911 24.8641 29.4685 26.0002 29.4685C27.1362 29.4685 28.2044 29.911 29.0076 30.7143C29.2284 30.935 29.5176 31.0454 29.8069 31.0454C30.0962 31.0454 30.3856 30.9349 30.6062 30.7143C31.0478 30.2728 31.0479 29.557 30.6065 29.1156Z" fill="#B3B2B2"/>
<path d="M45.2176 40.2678V11.249C45.2176 10.9492 45.0985 10.6616 44.8865 10.4496L34.768 0.331105C34.5559 0.119148 34.2684 0 33.9685 0H7.91306C7.28872 0 6.78262 0.506097 6.78262 1.13044V40.2679C2.86204 41.2492 0 44.8378 0 48.9407C0 53.8691 4.00944 57.8785 8.93769 57.8785H43.0623C47.9906 57.8785 52 53.8691 52 48.9407C52.0001 44.8321 49.1402 41.2486 45.2176 40.2678ZM35.0989 3.85954L41.358 10.1185H35.0989V3.85954ZM43.0624 55.6176H8.9378C5.25619 55.6176 2.26099 52.6223 2.26099 48.9407C2.26099 46.0695 4.1374 43.5354 6.78274 42.6238V47.8103C6.1584 47.8103 5.6523 48.3164 5.6523 48.9407C5.6523 49.565 6.1584 50.0711 6.78274 50.0711H20.9129C21.5372 50.0711 22.0433 49.565 22.0433 48.9407C22.0433 48.3164 21.5372 47.8103 20.9129 47.8103H9.04361V2.26087H32.8382V11.249C32.8382 11.8733 33.3443 12.3794 33.9686 12.3794H42.9566V47.8103H31.0868C30.4625 47.8103 29.9564 48.3164 29.9564 48.9407C29.9564 49.565 30.4625 50.0711 31.0868 50.0711H45.2176C45.8419 50.0711 46.348 49.565 46.348 48.9407C46.348 48.3164 45.8419 47.8103 45.2176 47.8103V42.6235C47.8641 43.5343 49.7394 46.0653 49.7394 48.9407C49.7392 52.6224 46.744 55.6176 43.0624 55.6176Z" fill="#B9B7B7"/>
<path d="M26 47.8103H25.9991C25.3748 47.8103 24.8691 48.3164 24.8691 48.9407C24.8691 49.5651 25.3757 50.0712 26 50.0712C26.6244 50.0712 27.1305 49.5651 27.1305 48.9407C27.1305 48.3164 26.6244 47.8103 26 47.8103Z" fill="#B2B2B2"/>
</svg>
