<svg width="23" height="21" viewBox="0 0 23 21" fill="none" xmlns="http://www.w3.org/2000/svg">
<path d="M20.2645 18.5436C20.2645 19.8946 19.1591 20.9999 17.8081 20.9999H4.29815C2.94716 20.9999 1.8418 19.8946 1.8418 18.5436V8.10406C1.8418 6.75306 2.94716 5.64771 4.29815 5.64771H17.8081C19.1591 5.64771 20.2645 6.75306 20.2645 8.10406V18.5436Z" fill="#FDD888"/>
<path d="M22.1072 6.2619C22.1072 7.61289 21.0018 8.71825 19.6508 8.71825H2.45635C1.10536 8.71825 0 7.61289 0 6.2619C0 4.9109 1.10536 3.80554 2.45635 3.80554H19.6508C21.0018 3.80554 22.1072 4.9109 22.1072 6.2619Z" fill="#FDD888"/>
<path d="M1.8418 8.71814H20.2645V9.94632H1.8418V8.71814Z" fill="#FCAB40"/>
<path d="M11.6681 1.34912H10.4399C9.95132 1.34912 9.48273 1.54322 9.13724 1.88871C8.79175 2.2342 8.59766 2.70279 8.59766 3.19139V21H13.5104V3.19139C13.5104 2.70279 13.3163 2.2342 12.9708 1.88871C12.6253 1.54322 12.1567 1.34912 11.6681 1.34912Z" fill="#DA2F47"/>
<path d="M9.82482 3.80545C10.5003 3.80545 10.6004 3.48858 10.0465 3.10109L5.9186 0.211188C5.79195 0.118968 5.64709 0.0548067 5.49368 0.0229815C5.34028 -0.00884371 5.18185 -0.00760152 5.02896 0.0266252C4.87608 0.060852 4.73224 0.127277 4.60705 0.221472C4.48186 0.315666 4.37818 0.435467 4.30293 0.572886L3.06493 2.73939C2.72964 3.32585 3.00844 3.80545 3.68393 3.80545H9.82482ZM12.2812 3.80545C11.6057 3.80545 11.5056 3.48858 12.0595 3.10109L16.188 0.211188C16.3147 0.119066 16.4595 0.0549871 16.6129 0.0232166C16.7663 -0.00855388 16.9247 -0.0072869 17.0776 0.0269332C17.2304 0.0611533 17.3742 0.127542 17.4994 0.221678C17.6246 0.315815 17.7284 0.435541 17.8037 0.572886L19.0417 2.73878C19.3764 3.32585 19.0976 3.80545 18.4221 3.80545H12.2812Z" fill="#DA2F47"/>
</svg>
