<svg width="21" height="22" viewBox="0 0 21 22" fill="none" xmlns="http://www.w3.org/2000/svg">
<path d="M18.4553 5.66482H15.4291C15.0871 5.66482 14.7821 5.62101 14.5883 5.46262C14.3996 5.30761 14.3457 5.006 14.3406 4.76842V1.66811C14.3406 0.749805 13.5892 0 12.6725 0H7.45087C6.53257 0 5.78108 0.749805 5.78108 1.66811V4.76842C5.77771 5.006 5.72211 5.30761 5.53508 5.46262C5.34131 5.62269 5.03633 5.66482 4.69428 5.66482H1.66979C0.749805 5.66482 0 6.41462 0 7.33461V21.0148H7.26552V18.8277C7.26552 18.3155 7.68171 17.8959 8.19562 17.8959H11.9278C12.44 17.8959 12.8596 18.3155 12.8596 18.8277V21.0148H20.1268V7.33461C20.1251 6.41462 19.3736 5.66482 18.4553 5.66482ZM4.14499 15.4746H2.06912V12.8292H4.14499V15.4746ZM4.14499 11.2707H2.06912V8.62528H4.14499V11.2707ZM7.62273 15.4746H5.54687V12.8292H7.62273V15.4746ZM7.62273 11.2707H5.54687V8.62528H7.62273V11.2707ZM11.0988 15.4746H9.02125V12.8292H11.0988V15.4746ZM11.0988 11.2707H9.02125V8.62528H11.0988V11.2707ZM14.5749 15.4746H12.5007V12.8292H14.5749V15.4746ZM14.5749 11.2707H12.5007V8.62528H14.5749V11.2707ZM18.0526 15.4746H15.9767V12.8292H18.0526V15.4746ZM18.0526 11.2707H15.9767V8.62528H18.0526V11.2707Z" fill="#40C0E7"/>
</svg>
