<svg width="22" height="22" viewBox="0 0 22 22" fill="none" xmlns="http://www.w3.org/2000/svg">
<path d="M14.6574 3.66663C14.6574 3.34248 14.7864 3.0316 15.0159 2.8024C15.2454 2.57319 15.5566 2.44442 15.8812 2.44442H17.105V1.22221C17.105 0.898059 17.2339 0.587186 17.4634 0.357977C17.6929 0.128768 18.0042 0 18.3287 0C18.6533 0 18.9645 0.128768 19.194 0.357977C19.4235 0.587186 19.5525 0.898059 19.5525 1.22221V2.44442H20.7762C21.1008 2.44442 21.4121 2.57319 21.6416 2.8024C21.8711 3.0316 22 3.34248 22 3.66663C22 3.99078 21.8711 4.30165 21.6416 4.53086C21.4121 4.76007 21.1008 4.88884 20.7762 4.88884H19.5525V6.11105C19.5525 6.4352 19.4235 6.74607 19.194 6.97528C18.9645 7.20449 18.6533 7.33326 18.3287 7.33326C18.0042 7.33326 17.6929 7.20449 17.4634 6.97528C17.2339 6.74607 17.105 6.4352 17.105 6.11105V4.88884H15.8812C15.5566 4.88884 15.2454 4.76007 15.0159 4.53086C14.7864 4.30165 14.6574 3.99078 14.6574 3.66663ZM21.8674 9.26842C22.1481 11.0626 21.9813 12.8983 21.3818 14.6127C20.7823 16.3271 19.7687 17.8674 18.4307 19.097C18.3814 19.1531 18.3267 19.2042 18.2675 19.2498C16.257 21.022 13.6677 22 10.9862 22C8.30458 22 5.7153 21.022 3.70479 19.2498C3.64561 19.2042 3.59097 19.1531 3.54162 19.097C1.80655 17.4954 0.632566 15.3795 0.192727 13.0611C-0.247113 10.7427 0.0704614 8.34454 1.09864 6.22005C2.12681 4.09557 3.81119 2.35719 5.90349 1.26116C7.99579 0.165126 10.3853 -0.230566 12.7198 0.132406C13.0411 0.18497 13.3285 0.362185 13.5195 0.625448C13.7105 0.888711 13.7896 1.21669 13.7396 1.53795C13.7148 1.69608 13.6589 1.84774 13.5751 1.98418C13.4914 2.12063 13.3813 2.23914 13.2514 2.33289C13.1216 2.42663 12.9744 2.49376 12.8183 2.53038C12.6623 2.56701 12.5006 2.57241 12.3425 2.54627C11.8937 2.47693 11.4402 2.44288 10.9862 2.44442C9.37854 2.44331 7.80312 2.89458 6.44045 3.74649C5.07779 4.59841 3.983 5.81651 3.28156 7.2612C2.58012 8.7059 2.3004 10.3187 2.47445 11.9149C2.64851 13.511 3.2693 15.0259 4.26568 16.2859C5.05747 15.2816 6.06455 14.4672 7.2129 13.9026C6.47794 13.1593 5.9795 12.2155 5.78028 11.19C5.58105 10.1644 5.68995 9.10297 6.09327 8.13909C6.49659 7.17521 7.17631 6.35198 8.04693 5.77296C8.91755 5.19394 9.94017 4.885 10.9862 4.885C12.0321 4.885 13.0548 5.19394 13.9254 5.77296C14.796 6.35198 15.4757 7.17521 15.8791 8.13909C16.2824 9.10297 16.3913 10.1644 16.192 11.19C15.9928 12.2155 15.4944 13.1593 14.7594 13.9026C15.9078 14.4672 16.9148 15.2816 17.7066 16.2859C18.9023 14.7829 19.553 12.9196 19.5525 10.9999C19.554 10.5464 19.5199 10.0934 19.4505 9.64527C19.4243 9.48736 19.4297 9.32584 19.4664 9.17003C19.5031 9.01421 19.5703 8.8672 19.6642 8.73747C19.758 8.60774 19.8767 8.49786 20.0133 8.41418C20.1499 8.3305 20.3018 8.27467 20.4601 8.24991C20.7818 8.19996 21.1102 8.27897 21.3738 8.46974C21.6374 8.66051 21.8148 8.94758 21.8674 9.26842ZM10.9862 13.0369C11.5509 13.0369 12.103 12.8696 12.5726 12.5563C13.0421 12.2429 13.4081 11.7975 13.6242 11.2764C13.8404 10.7553 13.8969 10.1819 13.7867 9.62872C13.6766 9.07552 13.4046 8.56737 13.0053 8.16854C12.6059 7.7697 12.0971 7.49809 11.5432 7.38805C10.9893 7.27802 10.4152 7.33449 9.89343 7.55034C9.37167 7.76619 8.92571 8.13171 8.61195 8.60069C8.29819 9.06967 8.13072 9.62104 8.13072 10.1851C8.13341 10.9406 8.43511 11.6644 8.97003 12.1987C9.50495 12.7329 10.2297 13.0342 10.9862 13.0369ZM10.9862 19.5554C12.7546 19.5571 14.4797 19.0089 15.922 17.9869C15.3551 17.2103 14.6125 16.5786 13.7548 16.143C12.897 15.7074 11.9484 15.4804 10.9862 15.4804C10.0239 15.4804 9.07529 15.7074 8.21756 16.143C7.35982 16.5786 6.61725 17.2103 6.05033 17.9869C7.49261 19.0089 9.21772 19.5571 10.9862 19.5554Z" fill="white"/>
</svg>
