<svg width="13" height="13" viewBox="0 0 13 13" fill="none" xmlns="http://www.w3.org/2000/svg">
<path d="M12.5059 6.1358C12.3757 6.02298 12.1978 5.95789 12.0155 5.95789H6.47848C6.29622 5.95789 6.11831 6.02298 5.98813 6.1358C5.85795 6.24862 5.78418 6.40484 5.78418 6.5654V12.0547L7.16844 10.8353H12.0155C12.1978 10.8353 12.3757 10.7702 12.5059 10.6574C12.636 10.5446 12.7098 10.3884 12.7098 10.2278V6.56974C12.7098 6.40918 12.636 6.25296 12.5059 6.14014V6.1358Z" fill="currentColor"/>
<path d="M4.72557 4.13975H7.60257L7.42465 4.97291H9.02588L9.20379 4.13975H11.4646V2.67305H9.51189L10.0847 0H8.48346L7.91066 2.67305H5.03366L5.60646 0H4.00957L3.43678 2.67305H0.867873V4.13975H3.12868L2.58192 6.67828H0V8.14499H2.27383L1.68801 10.8614H3.28924L3.87505 8.14499H4.89914V6.67828H4.18315L4.72557 4.13975Z" fill="currentColor"/>
</svg>
