<svg width="20" height="20" viewBox="0 0 20 20" fill="none" xmlns="http://www.w3.org/2000/svg">
<path d="M19.286 3.74289C19.0943 3.51335 18.8545 3.32871 18.5836 3.20201C18.3126 3.07531 18.0172 3.00964 17.7181 3.00964C17.4191 3.00964 17.1236 3.07531 16.8527 3.20201C16.5818 3.32871 16.342 3.51335 16.1503 3.74289L14.7217 5.17146L8.65028 11.2143C8.39252 11.4778 8.1693 11.7731 7.98599 12.0929L6.20742 15.7143H3.57171C3.38227 15.7143 3.20059 15.7896 3.06663 15.9235C2.93268 16.0575 2.85742 16.2392 2.85742 16.4286C2.85742 16.618 2.93268 16.7997 3.06663 16.9337C3.20059 17.0676 3.38227 17.1429 3.57171 17.1429H6.42885C6.60683 17.1405 6.7775 17.0717 6.90742 16.95C6.95002 16.9567 6.9934 16.9567 7.03599 16.95L10.9717 15C11.2687 14.8203 11.5422 14.6043 11.786 14.3572L12.186 13.9643L17.8574 8.30003L19.286 6.87146C19.5043 6.6723 19.6801 6.43107 19.8029 6.16225C19.9256 5.89344 19.9928 5.60259 20.0003 5.30717C19.9912 5.01205 19.9233 4.7217 19.8006 4.45311C19.678 4.18452 19.503 3.94307 19.286 3.74289ZM10.4788 13.5715L10.286 13.7072L8.28599 14.6929L9.23599 12.7429C9.33356 12.5894 9.44601 12.4458 9.57171 12.3143L10.0074 12.75L10.6646 13.4143L10.4788 13.5715ZM11.686 12.4072L11.1288 11.8572L10.5717 11.2929L15.2146 6.65003L16.3288 7.76431L11.686 12.4072ZM18.2503 5.84289L17.336 6.78574L16.2217 5.66431L17.1431 4.75717C17.2842 4.58658 17.482 4.47248 17.7003 4.43574C17.9181 4.47368 18.1155 4.58756 18.2574 4.75717C18.4256 4.90025 18.5392 5.09708 18.5788 5.31431C18.5356 5.5319 18.4198 5.72835 18.2503 5.87146V5.84289Z" fill="#565E61"/>
<path fill-rule="evenodd" clip-rule="evenodd" d="M14.0765 18.3622C14.2105 18.2283 14.2857 18.0466 14.2857 17.8571V13.8714L15.7143 12.4429V17.8571C15.7143 18.4255 15.4885 18.9705 15.0867 19.3724C14.6848 19.7742 14.1397 20 13.5714 20H2.14286C1.57454 20 1.02949 19.7742 0.627628 19.3724C0.225765 18.9705 0 18.4255 0 17.8571V2.14286C0 1.57454 0.225765 1.02949 0.627628 0.627631C1.02949 0.225767 1.57454 8.7237e-07 2.14286 8.7237e-07H9.11429C9.4896 -0.0002924 9.8613 0.0733612 10.2081 0.216756C10.555 0.36015 10.8702 0.570476 11.1357 0.835717L14.0714 3.77857L13.7 4.15L13.0643 4.78572L10.7143 2.43572V4.28572C10.7143 4.47516 10.7895 4.65684 10.9235 4.79079C11.0574 4.92475 11.2391 5 11.4286 5H12.8571L11.4286 6.42857C10.8602 6.42857 10.3152 6.20281 9.91334 5.80095C9.68269 5.5703 9.51006 5.29248 9.40482 4.99018C9.36612 4.99666 9.32637 5.00004 9.28583 5.00004H3.57154C3.17706 5.00004 2.85726 4.68025 2.85726 4.28576C2.85726 3.89127 3.17706 3.57147 3.57154 3.57147H9.28571V1.42857H9.11429H2.14286C1.95342 1.42857 1.77174 1.50383 1.63778 1.63778C1.50383 1.77174 1.42857 1.95342 1.42857 2.14286V17.8571C1.42857 18.0466 1.50383 18.2283 1.63778 18.3622C1.77174 18.4962 1.95342 18.5714 2.14286 18.5714H13.5714C13.7609 18.5714 13.9425 18.4962 14.0765 18.3622Z" fill="#565E61"/>
<rect x="2.85742" y="6.42853" width="7.14286" height="1.42857" rx="0.714286" fill="#565E61"/>
<rect x="2.85742" y="9.28571" width="5" height="1.42857" rx="0.714286" fill="#565E61"/>
</svg>
