<svg width="21" height="21" viewBox="0 0 21 21" fill="none" xmlns="http://www.w3.org/2000/svg">
<path d="M6.3 14.7H18.9V2.1H16.8V8.53125C16.8 8.74125 16.7125 8.8942 16.5375 8.9901C16.3625 9.0867 16.1875 9.0825 16.0125 8.9775L14.175 7.875L12.3375 8.9775C12.1625 9.0825 11.9875 9.0867 11.8125 8.9901C11.6375 8.8942 11.55 8.74125 11.55 8.53125V2.1H6.3V14.7ZM6.3 16.8C5.7225 16.8 5.2283 16.5945 4.8174 16.1836C4.4058 15.772 4.2 15.2775 4.2 14.7V2.1C4.2 1.5225 4.4058 1.02795 4.8174 0.61635C5.2283 0.20545 5.7225 0 6.3 0H18.9C19.4775 0 19.972 0.20545 20.3836 0.61635C20.7945 1.02795 21 1.5225 21 2.1V14.7C21 15.2775 20.7945 15.772 20.3836 16.1836C19.972 16.5945 19.4775 16.8 18.9 16.8H6.3ZM2.1 21C1.5225 21 1.0283 20.7945 0.6174 20.3836C0.2058 19.972 0 19.4775 0 18.9V5.25C0 4.9525 0.1008 4.70295 0.3024 4.50135C0.5033 4.30045 0.7525 4.2 1.05 4.2C1.3475 4.2 1.59705 4.30045 1.79865 4.50135C1.99955 4.70295 2.1 4.9525 2.1 5.25V18.9H15.75C16.0475 18.9 16.2967 19.0008 16.4976 19.2024C16.6992 19.4033 16.8 19.6525 16.8 19.95C16.8 20.2475 16.6992 20.4967 16.4976 20.6976C16.2967 20.8992 16.0475 21 15.75 21H2.1Z" fill="currentColor"/>
</svg>
