<svg width="23" height="20" viewBox="0 0 23 20" fill="none" xmlns="http://www.w3.org/2000/svg">
<path d="M15 10.75C15 10.3358 15.3358 10 15.75 10C16.1642 10 16.5 10.3358 16.5 10.75V12.2429C16.5 12.6 16.6905 12.9301 16.9997 13.1087L18.2905 13.8547C18.6493 14.062 18.7722 14.5209 18.5651 14.8798C18.3579 15.2389 17.8989 15.3621 17.5398 15.1549L15.5004 13.9786C15.1908 13.8 15 13.4698 15 13.1124V10.75ZM16 8C14.6739 8 13.4021 8.52678 12.4645 9.46447C11.5268 10.4021 11 11.6739 11 13C11 14.3261 11.5268 15.5979 12.4645 16.5355C13.4021 17.4732 14.6739 18 16 18C17.3261 18 18.5979 17.4732 19.5355 16.5355C20.4732 15.5979 21 14.3261 21 13C21 11.6739 20.4732 10.4021 19.5355 9.46447C18.5979 8.52678 17.3261 8 16 8ZM16 6C17.8565 6 19.637 6.7375 20.9497 8.05025C22.2625 9.36301 23 11.1435 23 13C23 14.8565 22.2625 16.637 20.9497 17.9497C19.637 19.2625 17.8565 20 16 20C13.4345 20 11.1903 18.6133 9.96718 16.5552C9.77052 16.2243 9.42503 16 9.04009 16H0.999998C0.447714 16 0 15.5523 0 15V13C0 10.34 5.33 9 8 9C8.43027 9 8.93253 9.036 9.46991 9.10431C9.8656 9.1546 10.255 8.97879 10.5018 8.66545C11.0868 7.9228 11.8178 7.30463 12.6521 6.85056C13.6794 6.29151 14.8305 5.99907 16 6ZM9 13C9 12.7005 9.0183 12.4047 9.05413 12.1157C9.1285 11.5156 8.75808 10.9115 8.15351 10.9013C8.10223 10.9004 8.05105 10.9 8 10.9C5.03 10.9 1.9 12.36 1.9 13V13.1C1.9 13.6523 2.34772 14.1 2.9 14.1H7.98508C8.56372 14.1 8.9996 13.5786 9 13ZM8 0C9.06087 0 10.0783 0.421427 10.8284 1.17157C11.5786 1.92172 12 2.93913 12 4C12 5.06087 11.5786 6.07828 10.8284 6.82843C10.0783 7.57857 9.06087 8 8 8C6.93913 8 5.92172 7.57857 5.17157 6.82843C4.42143 6.07828 4 5.06087 4 4C4 2.93913 4.42143 1.92172 5.17157 1.17157C5.92172 0.421427 6.93913 0 8 0ZM8 1.9C7.44305 1.9 6.9089 2.12125 6.51508 2.51508C6.12125 2.9089 5.9 3.44305 5.9 4C5.9 4.55695 6.12125 5.0911 6.51508 5.48492C6.9089 5.87875 7.44305 6.1 8 6.1C8.55695 6.1 9.0911 5.87875 9.48492 5.48492C9.87875 5.0911 10.1 4.55695 10.1 4C10.1 3.44305 9.87875 2.9089 9.48492 2.51508C9.0911 2.12125 8.55695 1.9 8 1.9Z" fill="#565E61"/>
</svg>
