<svg width="20" height="22" viewBox="0 0 20 22" fill="none" xmlns="http://www.w3.org/2000/svg">
<path d="M12.7778 17.6C12 17.6 11.3426 17.3342 10.8056 16.8025C10.2685 16.2708 10 15.62 10 14.85C10 14.08 10.2685 13.4292 10.8056 12.8975C11.3426 12.3658 12 12.1 12.7778 12.1C13.5556 12.1 14.213 12.3658 14.75 12.8975C15.287 13.4292 15.5556 14.08 15.5556 14.85C15.5556 15.62 15.287 16.2708 14.75 16.8025C14.213 17.3342 13.5556 17.6 12.7778 17.6ZM2.22222 22C1.61111 22 1.08778 21.7848 0.652222 21.3543C0.217407 20.9231 0 20.405 0 19.8V4.4C0 3.795 0.217407 3.27727 0.652222 2.8468C1.08778 2.4156 1.61111 2.2 2.22222 2.2H3.33333V0H5.55556V2.2H14.4444V0H16.6667V2.2H17.7778C18.3889 2.2 18.9122 2.4156 19.3478 2.8468C19.7826 3.27727 20 3.795 20 4.4V19.8C20 20.405 19.7826 20.9231 19.3478 21.3543C18.9122 21.7848 18.3889 22 17.7778 22H2.22222ZM2.22222 19.8H17.7778V8.8H2.22222V19.8ZM2.22222 6.6H17.7778V4.4H2.22222V6.6Z" fill="#565E61"/>
</svg>
