<svg width="22" height="22" viewBox="0 0 22 22" fill="none" xmlns="http://www.w3.org/2000/svg">
<path d="M11 0C4.93484 0 0 4.93484 0 11C0 17.0652 4.93484 22 11 22C17.0652 22 22 17.0652 22 11C22 4.93484 17.0652 0 11 0ZM11 19.2734C6.43768 19.2734 2.72663 15.562 2.72663 11C2.72663 6.43768 6.43768 2.72594 11 2.72594C15.5623 2.72594 19.2734 6.43768 19.2734 11C19.2734 15.562 15.562 19.2734 11 19.2734Z" fill="white"/>
<path d="M11.0143 6.18084C10.6345 6.18084 10.3072 6.0646 10.0361 5.83144C9.76495 5.59758 9.62974 5.2661 9.62974 4.83771C9.62974 4.44967 9.76771 4.12992 10.0457 3.87985C10.3234 3.6284 10.6466 3.5025 11.0143 3.5025C11.3685 3.5025 11.6841 3.61564 11.958 3.84398C12.2312 4.07128 12.3695 4.4031 12.3695 4.83771C12.3695 5.25955 12.235 5.58757 11.9673 5.82695C11.6996 6.06322 11.382 6.18084 11.0143 6.18084ZM12.3695 9.01199V16.9304C12.3695 17.4789 12.2377 17.8938 11.9773 18.1749C11.7176 18.455 11.3858 18.5961 10.9843 18.5961C10.5828 18.5961 10.2554 18.4529 10.0054 18.1649C9.75391 17.8769 9.62939 17.4654 9.62939 16.9304V9.09305C9.62939 8.55082 9.75391 8.14209 10.0054 7.86822C10.2554 7.59331 10.5828 7.4581 10.9843 7.4581C11.3858 7.4581 11.7176 7.59331 11.9773 7.86822C12.2377 8.14174 12.3695 8.52461 12.3695 9.01199Z" fill="white"/>
</svg>
