<svg width="16" height="15" viewBox="0 0 16 15" fill="none" xmlns="http://www.w3.org/2000/svg">
<defs>
<linearGradient id="paint0_linear_1092_1041" x1="5.89371" y1="11.1444" x2="5.89371" y2="14.722" gradientUnits="userSpaceOnUse">
<stop stop-color="#00BFA5"/>
<stop offset="0.4701" stop-color="#00B29A"/>
<stop offset="1" stop-color="#009E89"/>
</linearGradient>
<linearGradient id="paint1_linear_1092_1041" x1="13.3098" y1="7.03855" x2="12.2876" y2="8.47598" gradientUnits="userSpaceOnUse">
<stop offset="0.5" stop-color="#F9DDBD"/>
<stop offset="1" stop-color="#FFD29C"/>
</linearGradient>
<linearGradient id="paint2_linear_1092_1041" x1="10.9945" y1="8.09111" x2="10.9945" y2="13.8714" gradientUnits="userSpaceOnUse">
<stop stop-color="#00BFA5"/>
<stop offset="0.4701" stop-color="#00B29A"/>
<stop offset="1" stop-color="#009E89"/>
</linearGradient>
<radialGradient id="paint3_radial_1092_1041" cx="0" cy="0" r="1" gradientUnits="userSpaceOnUse" gradientTransform="translate(7.55753 9.49975) scale(2.85972 1.40469)">
<stop offset="0.7275" stop-color="#454140" stop-opacity="0"/>
<stop offset="1" stop-color="#454140"/>
</radialGradient>
<radialGradient id="paint4_radial_1092_1041" cx="0" cy="0" r="1" gradientUnits="userSpaceOnUse" gradientTransform="translate(10.3745 9.07428) rotate(154.924) scale(0.845075 0.626926)">
<stop offset="0.6628" stop-color="#454140"/>
<stop offset="1" stop-color="#454140" stop-opacity="0"/>
</radialGradient>
<radialGradient id="paint5_radial_1092_1041" cx="0" cy="0" r="1" gradientUnits="userSpaceOnUse" gradientTransform="translate(8.184 6.68408) rotate(-94.2783) scale(3.71203 3.09374)">
<stop offset="0.7247" stop-color="#454140" stop-opacity="0"/>
<stop offset="1" stop-color="#454140"/>
</radialGradient>
<radialGradient id="paint6_radial_1092_1041" cx="0" cy="0" r="1" gradientUnits="userSpaceOnUse" gradientTransform="translate(3.37223 6.684) rotate(-85.7217) scale(3.71203 3.09374)">
<stop offset="0.7247" stop-color="#454140" stop-opacity="0"/>
<stop offset="1" stop-color="#454140"/>
</radialGradient>
<radialGradient id="paint7_radial_1092_1041" cx="0" cy="0" r="1" gradientUnits="userSpaceOnUse" gradientTransform="translate(3.99881 9.49975) rotate(180) scale(2.85972 1.40469)">
<stop offset="0.7275" stop-color="#454140" stop-opacity="0"/>
<stop offset="1" stop-color="#454140"/>
</radialGradient>
<radialGradient id="paint8_radial_1092_1041" cx="0" cy="0" r="1" gradientUnits="userSpaceOnUse" gradientTransform="translate(1.1818 9.07438) rotate(25.0761) scale(0.845075 0.626926)">
<stop offset="0.6628" stop-color="#454140"/>
<stop offset="1" stop-color="#454140" stop-opacity="0"/>
</radialGradient>
<radialGradient id="paint9_radial_1092_1041" cx="0" cy="0" r="1" gradientUnits="userSpaceOnUse" gradientTransform="translate(8.02773 4.73263) rotate(72.9338) scale(4.32036 3.24364)">
<stop offset="0.6985" stop-color="#454140" stop-opacity="0"/>
<stop offset="1" stop-color="#454140"/>
</radialGradient>
<radialGradient id="paint10_radial_1092_1041" cx="0" cy="0" r="1" gradientUnits="userSpaceOnUse" gradientTransform="translate(3.86726 -0.000413765) rotate(28.3598) scale(1.13217 1.35986)">
<stop offset="0.58" stop-color="#454140"/>
<stop offset="1" stop-color="#454140" stop-opacity="0"/>
</radialGradient>
<radialGradient id="paint11_radial_1092_1041" cx="0" cy="0" r="1" gradientUnits="userSpaceOnUse" gradientTransform="translate(6.38123 2.06831) rotate(-157.095) scale(3.54503 2.01332)">
<stop offset="0.6985" stop-color="#454140" stop-opacity="0"/>
<stop offset="1" stop-color="#454140"/>
</radialGradient>
<radialGradient id="paint12_radial_1092_1041" cx="0" cy="0" r="1" gradientUnits="userSpaceOnUse" gradientTransform="translate(3.39069 1.03808) scale(1.04716 1.27785)">
<stop offset="0.7016" stop-color="#454140" stop-opacity="0"/>
<stop offset="1" stop-color="#454140"/>
</radialGradient>
<radialGradient id="paint13_radial_1092_1041" cx="0" cy="0" r="1" gradientUnits="userSpaceOnUse" gradientTransform="translate(3.21549 2.88233) rotate(-164.908) scale(1.95519 1.84163)">
<stop offset="0.6605" stop-color="#454140" stop-opacity="0"/>
<stop offset="1" stop-color="#454140"/>
</radialGradient>
<radialGradient id="paint14_radial_1092_1041" cx="0" cy="0" r="1" gradientUnits="userSpaceOnUse" gradientTransform="translate(2.71684 4.7742) rotate(7.83526) scale(2.057 2.89735)">
<stop offset="0.5981" stop-color="#454140" stop-opacity="0"/>
<stop offset="1" stop-color="#454140"/>
</radialGradient>
</defs>
<path d="M11.7869 14.722V14.354C11.7869 12.2228 8.77662 11.1406 5.70116 11.1444C3.36294 11.147 0.988951 11.7041 0 12.9741V14.722H11.7869Z" fill="url(#paint0_linear_1092_1041)"/>
<path d="M11.1576 8.3539C11.4898 8.37945 11.9612 8.47528 12.1976 8.43567C12.4072 8.40117 12.4532 8.20312 12.6716 8.15329C13.1342 8.04852 15.0048 7.62688 15.199 7.5796C15.4724 7.51188 15.5682 7.0008 14.9856 6.90497C14.4081 6.80914 13.2121 7.05574 13.2121 7.05574C13.2121 7.05574 13.276 6.87302 13.2313 6.75164C13.1188 6.45905 12.7368 6.55743 12.5094 6.61109L11.1601 6.99313C10.465 7.23206 10.4983 8.32068 11.1576 8.3539Z" fill="url(#paint1_linear_1092_1041)"/>
<path d="M12.5984 8.29384C12.5945 8.17884 12.5051 8.08557 12.3901 8.0779L10.7649 7.9808C10.646 7.97185 10.5413 8.05874 10.5272 8.17756L9.146 14.722H12.8424L12.5984 8.29384Z" fill="url(#paint2_linear_1092_1041)"/>
<path d="M10.0382 9.21817C9.88557 8.94098 10.0797 8.65891 10.4119 8.30967C10.9382 7.75528 11.5109 6.46946 10.9785 5.16409C10.9821 5.15676 10.8735 4.93696 10.8771 4.92964L10.6585 4.91865C10.5889 4.90888 8.18457 4.90399 5.77776 4.90399C3.37095 4.90399 0.966583 4.90888 0.896979 4.91865C0.896979 4.91865 0.573385 5.15676 0.575827 5.16409C0.0446445 6.46946 0.616124 7.75406 1.14242 8.30967C1.47334 8.65891 1.6675 8.94098 1.51608 9.21817C1.36833 9.48804 0.928728 9.52711 0.928728 9.52711C0.928728 9.52711 1.03008 9.80309 1.2743 9.95206C1.50021 10.09 1.77862 10.1218 1.97034 10.1267C1.97034 10.1267 2.72132 11.1658 4.68486 11.1658H5.77776H6.87065C8.8342 11.1658 9.58518 10.1267 9.58518 10.1267C9.77689 10.1218 10.0553 10.09 10.2812 9.95206C10.5254 9.80309 10.6268 9.52711 10.6268 9.52711C10.6268 9.52711 10.186 9.48804 10.0382 9.21817Z" fill="#312D2D"/>
<path d="M5.77539 11.1658V10.0131L9.2641 9.73712L9.58159 10.1279C9.58159 10.1279 8.83061 11.167 6.86706 11.167L5.77539 11.1658Z" fill="url(#paint3_radial_1092_1041)"/>
<path d="M9.57437 9.62359C9.05173 8.82987 10.2106 8.53314 10.2106 8.53314L10.2118 8.53436C10.0103 8.78469 9.91872 9.00327 10.0372 9.21941C10.1849 9.48927 10.6245 9.52835 10.6245 9.52835C10.6245 9.52835 10.0262 10.0608 9.57437 9.62359Z" fill="url(#paint4_radial_1092_1041)"/>
<path d="M10.9808 5.16411C11.4998 6.42796 10.9539 7.72966 10.4423 8.27916C10.3727 8.35487 10.0747 8.64671 10.0064 8.87995C10.0064 8.87995 8.84141 7.25465 8.4934 6.29974C8.42379 6.1068 8.35907 5.90899 8.35053 5.70384C8.34442 5.54998 8.36762 5.36681 8.45676 5.23615C8.56544 5.07619 10.9185 5.02856 10.9185 5.02856C10.9185 5.03101 10.9808 5.16411 10.9808 5.16411Z" fill="url(#paint5_radial_1092_1041)"/>
<path d="M0.575907 5.16411C0.0569354 6.42796 0.602772 7.72966 1.11442 8.27916C1.18524 8.35487 1.48197 8.64671 1.55035 8.87995C1.55035 8.87995 2.71529 7.25465 3.06331 6.29974C3.13413 6.1068 3.19763 5.90899 3.20618 5.70384C3.21228 5.54998 3.18908 5.36681 3.09994 5.23615C2.99126 5.07619 2.86427 5.11893 2.67988 5.11893C2.3282 5.11893 0.788381 5.02856 0.668712 5.02856C0.668712 5.03101 0.575907 5.16411 0.575907 5.16411Z" fill="url(#paint6_radial_1092_1041)"/>
<path d="M5.78032 11.1658V10.0131L2.29161 9.7359L1.97412 10.1267C1.97412 10.1267 2.7251 11.1658 4.68865 11.1658H5.78032Z" fill="url(#paint7_radial_1092_1041)"/>
<path d="M1.98228 9.62359C2.50492 8.82987 1.34609 8.53314 1.34609 8.53314L1.34486 8.53436C1.54635 8.78469 1.63793 9.00327 1.51948 9.21941C1.37173 9.48927 0.932129 9.52835 0.932129 9.52835C0.932129 9.52835 1.53047 10.0608 1.98228 9.62359Z" fill="url(#paint8_radial_1092_1041)"/>
<path d="M5.77527 10.4052H4.6665V11.6238C4.6665 12.1745 5.11831 12.6215 5.67514 12.6215H5.87662C6.43345 12.6215 6.88526 12.1745 6.88526 11.6238V10.4052H5.77527Z" fill="#EDC391"/>
<path d="M9.11277 5.56335H2.43818C1.71895 5.56335 1.13037 6.19101 1.13037 6.95664C1.13037 7.72228 1.71895 8.34993 2.43818 8.34993H9.11155C9.83078 8.34993 10.4194 7.72228 10.4194 6.95664C10.4194 6.19101 9.832 5.56335 9.11277 5.56335Z" fill="#EDC391"/>
<path d="M5.77529 0.757141C3.65056 0.757141 1.68213 3.02963 1.68213 6.30098C1.68213 9.55402 3.71039 11.1622 5.77529 11.1622C7.84019 11.1622 9.86845 9.5528 9.86845 6.29976C9.86845 3.02963 7.90002 0.757141 5.77529 0.757141Z" fill="#F9DDBD"/>
<path d="M3.76753 7.20946C4.10001 7.20946 4.36954 6.93064 4.36954 6.58669C4.36954 6.24275 4.10001 5.96393 3.76753 5.96393C3.43506 5.96393 3.16553 6.24275 3.16553 6.58669C3.16553 6.93064 3.43506 7.20946 3.76753 7.20946Z" fill="#312D2D"/>
<path d="M7.78267 7.20946C8.11515 7.20946 8.38468 6.93064 8.38468 6.58669C8.38468 6.24275 8.11515 5.96393 7.78267 5.96393C7.45019 5.96393 7.18066 6.24275 7.18066 6.58669C7.18066 6.93064 7.45019 7.20946 7.78267 7.20946Z" fill="#312D2D"/>
<path d="M4.67508 5.48895C4.56152 5.33876 4.3002 5.1214 3.79222 5.1214C3.28424 5.1214 3.0217 5.33998 2.90936 5.48895C2.85929 5.55489 2.8715 5.63182 2.90691 5.67822C2.93866 5.72096 3.03391 5.76126 3.13892 5.72585C3.24394 5.69044 3.44909 5.5842 3.79222 5.58176C4.13535 5.5842 4.3405 5.69044 4.44551 5.72585C4.55053 5.76126 4.64577 5.72218 4.67752 5.67822C4.71171 5.63182 4.72393 5.55489 4.67508 5.48895Z" fill="#454140"/>
<path d="M8.64237 5.48895C8.5288 5.33876 8.26749 5.1214 7.7595 5.1214C7.25152 5.1214 6.98898 5.33998 6.87664 5.48895C6.82658 5.55489 6.83879 5.63182 6.8742 5.67822C6.90595 5.72096 7.00119 5.76126 7.10621 5.72585C7.21123 5.69044 7.41637 5.5842 7.7595 5.58176C8.10264 5.5842 8.30778 5.69044 8.4128 5.72585C8.51781 5.76126 8.61306 5.72218 8.64481 5.67822C8.68022 5.63182 8.69243 5.55489 8.64237 5.48895Z" fill="#454140"/>
<path d="M6.80352 8.70292C6.41521 8.93371 5.13915 8.93371 4.75084 8.70292C4.52737 8.56982 4.29903 8.77374 4.39183 8.97644C4.48341 9.17549 5.17823 9.63829 5.78023 9.63829C6.38224 9.63829 7.0685 9.17549 7.16009 8.97644C7.25167 8.77374 7.02699 8.56982 6.80352 8.70292Z" fill="#444444"/>
<path d="M6.24629 7.71625C6.23286 7.71137 6.22065 7.7077 6.20721 7.70648H5.34267C5.32924 7.7077 5.3158 7.71137 5.30359 7.71625C5.22544 7.748 5.1827 7.82859 5.21934 7.91529C5.25597 8.00199 5.42815 8.24377 5.77494 8.24377C6.12174 8.24377 6.29391 8.00077 6.33055 7.91529C6.36718 7.82859 6.32444 7.748 6.24629 7.71625Z" fill="#DBA689"/>
<path d="M10.7584 2.54725C10.4678 2.09666 9.81086 1.49465 9.21129 1.45436C9.12459 0.879215 8.51648 0.391992 7.9218 0.203941C6.31604 -0.306484 5.2549 0.264996 4.68464 0.572716C4.56619 0.636214 3.80055 1.05628 3.27548 0.754661C2.947 0.56661 2.96165 0.0561862 2.96165 0.0561862C2.96165 0.0561862 1.91394 0.451826 2.25096 1.55449C1.89318 1.56914 1.42183 1.71934 1.16418 2.22121C0.857677 2.81712 0.955366 3.31655 1.03596 3.55589C0.723355 3.81598 0.326494 4.37159 0.580485 5.09082C0.770978 5.633 1.5647 5.8821 1.5647 5.8821C1.49143 6.85777 1.66361 7.45856 1.75641 7.70156C1.77229 7.7443 1.83334 7.74063 1.84556 7.69667C1.97377 7.21311 2.41581 5.5292 2.37918 5.23491C2.37918 5.23491 3.7688 4.96139 5.10714 3.9906C5.37945 3.79278 5.67374 3.62427 5.98634 3.50094C7.65682 2.84154 7.9853 3.96618 7.9853 3.96618C7.9853 3.96618 9.13925 3.74516 9.45918 5.33993C9.57885 5.93705 9.65211 6.89318 9.71439 7.56235C9.71928 7.60997 9.78277 7.61974 9.80231 7.57578C9.9232 7.3108 10.1638 6.78328 10.2285 6.24721C10.2517 6.05794 10.7658 5.80884 10.999 4.9968C11.3116 3.91245 10.9685 2.87207 10.7584 2.54725Z" fill="#312D2D"/>
<path d="M10.2251 6.24964C10.2483 6.06037 10.7624 5.81127 10.9956 4.99923C11.0201 4.91253 11.042 4.82461 11.0616 4.73669C11.257 3.75125 10.9517 2.84641 10.7587 2.54724C10.4901 2.13084 9.90762 1.585 9.34958 1.47388C9.30073 1.46778 9.25311 1.46167 9.20793 1.45923C9.20793 1.45923 9.24334 1.72055 9.13344 1.92936C8.99179 2.19922 8.71094 2.26394 8.71094 2.26394C10.1482 3.72317 10.0236 4.94428 10.2251 6.24964Z" fill="url(#paint9_radial_1092_1041)"/>
<path d="M5.04159 0.388355C4.90727 0.453074 4.7876 0.516572 4.68503 0.572743C4.56658 0.63624 3.80094 1.0563 3.27587 0.754688C2.95227 0.569079 2.96082 0.0745296 2.96204 0.0574341C2.80818 0.247927 2.33073 1.61435 3.65807 1.70471C4.23077 1.74379 4.59222 1.24557 4.80836 0.82307C4.88529 0.671652 5.00862 0.448189 5.04159 0.388355Z" fill="url(#paint10_radial_1092_1041)"/>
<path d="M7.75709 0.153874C8.64728 0.395653 9.07467 0.848685 9.21021 1.45558C9.24929 1.63386 9.27249 3.29335 6.13057 1.40673C4.96197 0.705815 5.29167 0.266216 5.43088 0.21615C5.97305 0.0219936 6.75945 -0.115992 7.75709 0.153874Z" fill="url(#paint11_radial_1092_1041)"/>
<path d="M2.95663 0.0573739C2.95541 0.058595 2.95297 0.058595 2.9493 0.0598161C2.9493 0.0598161 2.9493 0.0598161 2.94808 0.0598161C2.8333 0.107439 1.93334 0.520175 2.24961 1.55323L3.19719 1.70587C2.3705 0.854759 2.96029 0.0549316 2.96029 0.0549316C2.96029 0.0549316 2.95907 0.0573739 2.95663 0.0573739Z" fill="url(#paint12_radial_1092_1041)"/>
<path d="M2.83597 1.64859L2.25105 1.55457C2.22785 1.55457 2.1497 1.56189 2.10696 1.568C1.77482 1.6144 1.38285 1.78413 1.16427 2.22129C0.929813 2.69142 0.928592 3.09561 0.985985 3.36425C1.00186 3.45461 1.03727 3.55597 1.03727 3.55597C1.03727 3.55597 1.33278 3.28122 2.02515 3.2629L2.83597 1.64859Z" fill="url(#paint13_radial_1092_1041)"/>
<path d="M1.00897 3.57908C0.714682 3.83552 0.315379 4.407 0.591349 5.11524C0.798938 5.65009 1.56702 5.8821 1.56702 5.8821C1.56702 5.88454 1.72088 5.92972 1.80025 5.92972L2.02615 3.26282C1.65616 3.26282 1.29959 3.37394 1.06636 3.53268C1.06636 3.53635 1.00653 3.5742 1.00897 3.57908Z" fill="url(#paint14_radial_1092_1041)"/>
</svg>
