<svg width="17" height="24" viewBox="0 0 17 24" fill="none" xmlns="http://www.w3.org/2000/svg">
<path d="M4.45166 17.2503C5.12108 18.1086 5.73034 19.0127 6.27503 19.9561C6.7401 20.8432 6.93397 21.4448 7.27385 22.5138C7.48229 23.1044 7.67068 23.2807 8.0757 23.2807C8.51706 23.2807 8.7173 22.9808 8.87201 22.517C9.19328 21.5075 9.44536 20.7371 9.84307 20.0091C10.6235 18.6036 11.5932 17.3547 12.5461 16.1544C12.804 15.8147 14.4718 13.8356 15.2226 12.2739C15.2226 12.2739 16.1454 10.5585 16.1454 8.16277C16.1454 5.92178 15.2354 4.36752 15.2354 4.36752L12.6152 5.07349L11.024 9.28993L10.6303 9.87134L10.5516 9.97667L10.4469 10.1085L10.2631 10.3191L10.0005 10.5833L8.58353 11.7447L5.04097 13.8026L4.45166 17.2503Z" fill="#34A853"/>
<path d="M0.79541 11.9856C1.66002 13.9724 3.3273 15.719 4.45534 17.2517L10.4469 10.1112C10.4469 10.1112 9.6028 11.2219 8.07162 11.2219C6.36606 11.2219 4.9882 9.85167 4.9882 8.12387C4.9882 6.93904 5.69672 6.12508 5.69672 6.12508L1.62949 7.22152L0.79541 11.9856Z" fill="#FBBC04"/>
<path d="M10.5141 0.36719C12.504 1.01269 14.2072 2.36783 15.2374 4.36612L10.449 10.1071C10.449 10.1071 11.1575 9.27843 11.1575 8.10096C11.1575 6.33293 9.67771 5.01212 8.07911 5.01212C6.56742 5.01212 5.69922 6.12094 5.69922 6.12094V2.50418L10.5141 0.367126V0.36719Z" fill="#4285F4"/>
<path d="M1.89307 2.90387C3.08159 1.47323 5.17294 0 8.05618 0C9.45504 0 10.5089 0.36948 10.5089 0.36948L5.69452 6.12412H2.28346L1.89307 2.90387Z" fill="#1A73E8"/>
<path d="M0.79542 11.9855C0.79542 11.9855 0 10.4184 0 8.1481C0 6.00235 0.829099 4.12671 1.893 2.90387L5.69717 6.12462L0.79542 11.9855Z" fill="#EA4335"/>
</svg>
