<svg width="31" height="31" viewBox="0 0 31 31" fill="none" xmlns="http://www.w3.org/2000/svg">
<path d="M27.9 0C28.7222 0 29.5107 0.326606 30.092 0.907969C30.6734 1.48933 31 2.27783 31 3.1V21.7C31 22.5222 30.6734 23.3107 30.092 23.892C29.5107 24.4734 28.7222 24.8 27.9 24.8H6.2L0 31V3.1C0 2.27783 0.326606 1.48933 0.907969 0.907969C1.48933 0.326606 2.27783 0 3.1 0H27.9ZM3.1 3.1V23.5135L4.9135 21.7H27.9V3.1H3.1ZM6.2 7.75H24.8V10.85H6.2V7.75ZM6.2 13.95H20.15V17.05H6.2V13.95Z" fill="#B4BABF"/>
</svg>
