<svg width="18" height="21" viewBox="0 0 18 21" fill="none" xmlns="http://www.w3.org/2000/svg">
<path d="M2.23092 1.63333C2.23092 1.46536 2.16608 1.30427 2.05068 1.1855C1.93527 1.06673 1.77875 1 1.61554 1C1.45233 1 1.29581 1.06673 1.1804 1.1855C1.06499 1.30427 1.00016 1.46536 1.00016 1.63333C0.989177 3.55091 1.54587 5.42646 2.59614 7.01039C3.64642 8.59432 5.14047 9.81152 6.87949 10.5C5.14047 11.1885 3.64642 12.4057 2.59614 13.9896C1.54587 15.5735 0.989177 17.4491 1.00016 19.3667C1.00016 19.5346 1.06499 19.6957 1.1804 19.8145C1.29581 19.9333 1.45233 20 1.61554 20C1.77875 20 1.93527 19.9333 2.05068 19.8145C2.16608 19.6957 2.23092 19.5346 2.23092 19.3667C2.23092 14.7763 5.77057 11.1333 10.2308 11.1333H11.2068L9.79515 12.5849C9.73793 12.6438 9.69255 12.7137 9.66158 12.7907C9.63062 12.8676 9.61468 12.9501 9.61468 13.0333C9.61468 13.1166 9.63062 13.1991 9.66158 13.276C9.69255 13.3529 9.73793 13.4228 9.79515 13.4817C9.85236 13.5406 9.92029 13.5873 9.99504 13.6192C10.0698 13.6511 10.1499 13.6675 10.2308 13.6675C10.3118 13.6675 10.3919 13.6511 10.4666 13.6192C10.5414 13.5873 10.6093 13.5406 10.6665 13.4817L13.128 10.9484C13.1853 10.8896 13.2308 10.8197 13.2618 10.7427C13.2929 10.6658 13.3088 10.5833 13.3088 10.5C13.3088 10.4167 13.2929 10.3342 13.2618 10.2573C13.2308 10.1803 13.1853 10.1104 13.128 10.0516L10.6665 7.51827C10.6093 7.45938 10.5414 7.41267 10.4666 7.3808C10.3919 7.34894 10.3118 7.33253 10.2308 7.33253C10.1499 7.33253 10.0698 7.34894 9.99504 7.3808C9.92029 7.41267 9.85236 7.45938 9.79515 7.51827C9.73793 7.57715 9.69255 7.64706 9.66158 7.72399C9.63062 7.80093 9.61468 7.88339 9.61468 7.96667C9.61468 8.04994 9.63062 8.1324 9.66158 8.20934C9.69255 8.28628 9.73793 8.35618 9.79515 8.41507L11.2068 9.86667H10.2308C9.17831 9.8739 8.13487 9.66588 7.1611 9.25468C6.18733 8.84348 5.30263 8.2373 4.55836 7.47131C3.81409 6.70533 3.22509 5.79482 2.82555 4.79264C2.42601 3.79045 2.22388 2.71657 2.23092 1.63333ZM6.53857 3.53333C6.37536 3.53333 6.21883 3.60006 6.10343 3.71883C5.98802 3.83761 5.92319 3.9987 5.92319 4.16667C5.92319 4.33464 5.98802 4.49573 6.10343 4.6145C6.21883 4.73327 6.37536 4.8 6.53857 4.8H14.5385C15.1834 4.8 15.7692 5.40293 15.7692 6.06667V14.9333C15.7692 15.5971 15.1834 16.2 14.5385 16.2H6.53857C6.37536 16.2 6.21883 16.2667 6.10343 16.3855C5.98802 16.5043 5.92319 16.6654 5.92319 16.8333C5.92319 17.0013 5.98802 17.1624 6.10343 17.2812C6.21883 17.3999 6.37536 17.4667 6.53857 17.4667H14.5385C15.8628 17.4667 17 16.2963 17 14.9333V6.06667C17 4.70373 15.8628 3.53333 14.5385 3.53333H6.53857Z" fill="#8FA1A9" stroke="#8FA1A9" stroke-width="0.5"/>
</svg>
