<svg width="18" height="18" viewBox="0 0 18 18" fill="none" xmlns="http://www.w3.org/2000/svg">
<path d="M5.22 14.4C5.385 14.4 5.55 14.3475 5.715 14.2425C5.88 14.1375 5.9925 14.0025 6.0525 13.8375L6.84 11.655H11.16L11.9475 13.8375C12.0075 14.0025 12.1161 14.1375 12.2733 14.2425C12.4311 14.3475 12.6 14.4 12.78 14.4C13.125 14.4 13.3764 14.2839 13.5342 14.0517C13.6914 13.8189 13.71 13.5375 13.59 13.2075L10.2825 4.4775C10.1925 4.2375 10.0239 4.0311 9.7767 3.8583C9.5289 3.6861 9.27 3.6 9 3.6C8.745 3.6 8.49 3.6861 8.235 3.8583C7.98 4.0311 7.8075 4.2375 7.7175 4.4775L4.41 13.2075C4.29 13.5375 4.3089 13.8189 4.4667 14.0517C4.6239 14.2839 4.875 14.4 5.22 14.4ZM7.38 10.08L8.955 5.625H9.045L10.62 10.08H7.38ZM1.8 18C1.305 18 0.8814 17.8239 0.5292 17.4717C0.1764 17.1189 0 16.695 0 16.2V1.8C0 1.305 0.1764 0.8811 0.5292 0.5283C0.8814 0.1761 1.305 0 1.8 0H16.2C16.695 0 17.1189 0.1761 17.4717 0.5283C17.8239 0.8811 18 1.305 18 1.8V16.2C18 16.695 17.8239 17.1189 17.4717 17.4717C17.1189 17.8239 16.695 18 16.2 18H1.8ZM1.8 16.2H16.2V1.8H1.8V16.2Z" fill="#8FA1A9"/>
</svg>
