<svg width="17" height="20" viewBox="0 0 17 20" fill="none" xmlns="http://www.w3.org/2000/svg">
<path d="M15.1111 14.2857V9.33333C14.6389 9.42857 14.1667 9.52381 13.6944 9.52381H13.2222V15.2381H3.77778V8.57143C3.77778 5.90476 5.85556 3.80952 8.5 3.80952C8.59444 2.57143 9.16111 1.52381 9.91667 0.666667C9.63333 0.285714 9.06667 0 8.5 0C7.46111 0 6.61111 0.857143 6.61111 1.90476V2.19048C3.77778 3.04762 1.88889 5.61905 1.88889 8.57143V14.2857L0 16.1905V17.1429H17V16.1905L15.1111 14.2857ZM6.61111 18.0952C6.61111 19.1429 7.46111 20 8.5 20C9.53889 20 10.3889 19.1429 10.3889 18.0952H6.61111ZM17 4.28571C17 6.09524 15.4889 7.61905 13.6944 7.61905C11.9 7.61905 10.3889 6.09524 10.3889 4.28571C10.3889 2.47619 11.9 0.952381 13.6944 0.952381C15.4889 0.952381 17 2.47619 17 4.28571Z" fill="#8FA1A9"/>
</svg>
