<svg width="22" height="19" viewBox="0 0 22 19" fill="none" xmlns="http://www.w3.org/2000/svg">
<path d="M8.43189 0C7.31375 0 6.24141 0.44484 5.45077 1.23666C4.66012 2.02848 4.21595 3.10242 4.21595 4.22222C4.21595 5.34203 4.66012 6.41596 5.45077 7.20778C6.24141 7.9996 7.31375 8.44444 8.43189 8.44444C9.55003 8.44444 10.6224 7.9996 11.413 7.20778C12.2037 6.41596 12.6478 5.34203 12.6478 4.22222C12.6478 3.10242 12.2037 2.02848 11.413 1.23666C10.6224 0.44484 9.55003 0 8.43189 0ZM8.43189 2.11111C8.99096 2.11111 9.52713 2.33353 9.92245 2.72944C10.3178 3.12535 10.5399 3.66232 10.5399 4.22222C10.5399 4.78212 10.3178 5.31909 9.92245 5.715C9.52713 6.11091 8.99096 6.33333 8.43189 6.33333C7.87282 6.33333 7.33665 6.11091 6.94133 5.715C6.54601 5.31909 6.32392 4.78212 6.32392 4.22222C6.32392 3.66232 6.54601 3.12535 6.94133 2.72944C7.33665 2.33353 7.87282 2.11111 8.43189 2.11111ZM15.8098 8.44444C15.6412 8.44444 15.5568 8.52889 15.5568 8.69778L15.2828 10.0278C15.0509 10.2178 14.7136 10.3867 14.4607 10.5556L13.1116 10.0278C13.0273 10.0278 12.8586 10.0278 12.7743 10.1333L11.7625 11.9911C11.6782 12.0756 11.6782 12.2444 11.8468 12.3289L12.943 13.1944V14.25L11.8468 15.1156C11.7625 15.2 11.6782 15.3689 11.7625 15.4533L12.7743 17.3111C12.8586 17.4167 13.0273 17.4167 13.1116 17.4167L14.4607 16.8889C14.7136 17.0578 15.0509 17.2267 15.2828 17.4167L15.5568 18.7467C15.5568 18.9156 15.6412 19 15.8098 19H17.9178C18.0021 19 18.1707 18.9156 18.1707 18.7467L18.3394 17.4167C18.6766 17.2267 19.0139 17.0578 19.2669 16.8889L20.5527 17.4167C20.7003 17.4167 20.8689 17.4167 20.8689 17.3111L21.9651 15.4533C22.0494 15.3689 21.9651 15.2 21.8808 15.1156L20.7846 14.25V13.1944L21.8808 12.3289C21.9651 12.2444 22.0494 12.0756 21.9651 11.9911L20.8689 10.1333C20.8689 10.0278 20.7003 10.0278 20.5527 10.0278L19.2669 10.5556C19.0139 10.3867 18.6766 10.2178 18.3394 10.0278L18.1707 8.69778C18.1707 8.52889 18.0021 8.44444 17.9178 8.44444H15.8098ZM8.43189 9.5C5.61775 9.5 0 10.9039 0 13.7222V16.8889H10.192C9.89693 16.2661 9.68613 15.5906 9.58074 14.8833H2.00257V13.7222C2.00257 13.0467 5.30155 11.5056 8.43189 11.5056C8.8851 11.5056 9.34886 11.5478 9.80207 11.6111C10.0129 10.9356 10.2974 10.3022 10.6663 9.72167C9.84423 9.58444 9.06428 9.5 8.43189 9.5ZM16.9059 12.1389C17.7491 12.1389 18.4448 12.8356 18.4448 13.7644C18.4448 14.6089 17.7491 15.3056 16.9059 15.3056C15.9784 15.3056 15.2828 14.6089 15.2828 13.7644C15.2828 12.8356 15.9784 12.1389 16.9059 12.1389Z" fill="#8FA1A9"/>
</svg>
