<svg width="12" height="12" viewBox="0 0 12 12" fill="none" xmlns="http://www.w3.org/2000/svg">
<path d="M1.31319 10.6849H2.23243L7.89558 5.0137L6.97635 4.09315L1.31319 9.76438V10.6849ZM10.7025 4.06027L7.912 1.29863L8.83123 0.378082C9.08293 0.126027 9.39219 0 9.75901 0C10.1258 0 10.4349 0.126027 10.6861 0.378082L11.6054 1.29863C11.8571 1.55068 11.9884 1.8549 11.9993 2.21129C12.0103 2.56767 11.8899 2.87167 11.6382 3.12329L10.7025 4.06027ZM9.75047 5.03014L2.79054 12H0V9.20548L6.95993 2.23562L9.75047 5.03014ZM7.43596 4.55342L6.97635 4.09315L7.89558 5.0137L7.43596 4.55342Z" fill="#757575"/>
</svg>
