<svg width="24" height="23" viewBox="0 0 24 23" fill="none" xmlns="http://www.w3.org/2000/svg">
<path d="M10.9091 23C9.4 23 7.98182 22.7123 6.65454 22.137C5.32727 21.5616 4.17273 20.7814 3.19091 19.7964C2.20909 18.8107 1.432 17.6516 0.859636 16.319C0.287273 14.9865 0.000727273 13.5627 0 12.0476C0 10.5325 0.286546 9.10873 0.859636 7.77619C1.43273 6.44365 2.20982 5.28453 3.19091 4.29881C4.17273 3.3131 5.32727 2.53292 6.65454 1.95829C7.98182 1.38365 9.4 1.09597 10.9091 1.09524C11.7273 1.09524 12.5229 1.18213 13.296 1.35591C14.0691 1.52969 14.8007 1.7805 15.4909 2.10834C15.4182 2.29088 15.3636 2.48254 15.3273 2.68334C15.2909 2.88413 15.2727 3.08492 15.2727 3.28572C15.2727 3.54127 15.3 3.78332 15.3545 4.01186C15.4091 4.2404 15.4818 4.4547 15.5727 4.65476C14.9 4.23492 14.1727 3.90161 13.3909 3.65481C12.6091 3.40802 11.7818 3.28499 10.9091 3.28572C8.49091 3.28572 6.43163 4.13891 4.73127 5.84529C3.03091 7.55167 2.18109 9.61911 2.18182 12.0476C2.18182 14.4754 3.03164 16.5428 4.73127 18.25C6.43091 19.9571 8.49018 20.8103 10.9091 20.8095C13.3273 20.8095 15.3865 19.9563 17.0869 18.25C18.7873 16.5436 19.6371 14.4761 19.6364 12.0476C19.6364 11.3175 19.5498 10.6147 19.3767 9.93929C19.2036 9.26389 18.9629 8.625 18.6545 8.02262C18.9455 8.25992 19.2636 8.44246 19.6091 8.57024C19.9545 8.69802 20.3273 8.76191 20.7273 8.76191C20.8182 8.76191 20.9138 8.75753 21.0142 8.74876C21.1145 8.74 21.2098 8.72613 21.3 8.70714C21.4636 9.23651 21.5909 9.77975 21.6818 10.3369C21.7727 10.894 21.8182 11.4642 21.8182 12.0476C21.8182 13.5627 21.532 14.9865 20.9596 16.319C20.3873 17.6516 19.6098 18.8107 18.6273 19.7964C17.6455 20.7821 16.4909 21.5627 15.1636 22.138C13.8364 22.7134 12.4182 23.0007 10.9091 23ZM14.7273 10.9524C15.2 10.9524 15.5909 10.7972 15.9 10.4869C16.2091 10.1766 16.3636 9.78413 16.3636 9.30953C16.3636 8.83492 16.2091 8.44246 15.9 8.13214C15.5909 7.82183 15.2 7.66667 14.7273 7.66667C14.2545 7.66667 13.8636 7.82183 13.5545 8.13214C13.2455 8.44246 13.0909 8.83492 13.0909 9.30953C13.0909 9.78413 13.2455 10.1766 13.5545 10.4869C13.8636 10.7972 14.2545 10.9524 14.7273 10.9524ZM7.09091 10.9524C7.56363 10.9524 7.95454 10.7972 8.26363 10.4869C8.57273 10.1766 8.72727 9.78413 8.72727 9.30953C8.72727 8.83492 8.57273 8.44246 8.26363 8.13214C7.95454 7.82183 7.56363 7.66667 7.09091 7.66667C6.61818 7.66667 6.22727 7.82183 5.91818 8.13214C5.60909 8.44246 5.45454 8.83492 5.45454 9.30953C5.45454 9.78413 5.60909 10.1766 5.91818 10.4869C6.22727 10.7972 6.61818 10.9524 7.09091 10.9524ZM10.9091 18.0714C12.2 18.0714 13.3411 17.7155 14.3324 17.0036C15.3236 16.2917 16.0371 15.3698 16.4727 14.2381H5.34545C5.78182 15.3698 6.49564 16.2917 7.48691 17.0036C8.47818 17.7155 9.61891 18.0714 10.9091 18.0714ZM19.6364 4.38096H18.5455C18.2364 4.38096 17.9771 4.27581 17.7676 4.06553C17.5582 3.85524 17.4538 3.5953 17.4545 3.28572C17.4545 2.9754 17.5593 2.7151 17.7687 2.50481C17.9782 2.29453 18.2371 2.18975 18.5455 2.19048H19.6364V1.09524C19.6364 0.784924 19.7411 0.524623 19.9505 0.314337C20.16 0.104051 20.4189 -0.000726369 20.7273 3.78975e-06C21.0364 3.78975e-06 21.2956 0.105147 21.5051 0.315432C21.7145 0.525718 21.8189 0.785654 21.8182 1.09524V2.19048H22.9091C23.2182 2.19048 23.4774 2.29562 23.6869 2.50591C23.8964 2.71619 24.0007 2.97613 24 3.28572C24 3.59603 23.8953 3.85634 23.6858 4.06662C23.4764 4.27691 23.2175 4.38169 22.9091 4.38096H21.8182V5.47619C21.8182 5.78651 21.7134 6.04681 21.504 6.2571C21.2945 6.46738 21.0356 6.57216 20.7273 6.57143C20.4182 6.57143 20.1589 6.46629 19.9495 6.256C19.74 6.04572 19.6356 5.78578 19.6364 5.47619V4.38096Z" fill="#757575"/>
</svg>
