<svg width="22" height="21" viewBox="0 0 22 21" fill="none" xmlns="http://www.w3.org/2000/svg">
<path d="M21.1505 20.9999C21.0156 21.0019 20.8826 20.9668 20.7653 20.8985C20.6479 20.8301 20.5505 20.7309 20.4831 20.611C19.4729 18.8462 18.0331 17.3807 16.3046 16.3581C14.5762 15.3355 12.6184 14.7908 10.623 14.7773V19.4443C10.6222 19.5978 10.5772 19.7477 10.4935 19.8751C10.4098 20.0024 10.2912 20.1015 10.1527 20.1599C10.0146 20.2194 9.86235 20.2357 9.71522 20.2066C9.56808 20.1776 9.43264 20.1045 9.32598 19.9965L0.224354 10.6626C0.153264 10.5903 0.096838 10.5043 0.0583315 10.4095C0.019825 10.3147 0 10.213 0 10.1103C0 10.0077 0.019825 9.90599 0.0583315 9.81121C0.096838 9.71642 0.153264 9.63039 0.224354 9.55809L9.32598 0.224159C9.43264 0.11623 9.56808 0.0431169 9.71522 0.0140463C9.86235 -0.0150243 10.0146 0.00124989 10.1527 0.0608154C10.2912 0.119168 10.4098 0.218262 10.4935 0.345608C10.5772 0.472954 10.6222 0.622854 10.623 0.776417V5.52894C13.7609 5.94227 16.6452 7.51158 18.7384 9.9444C20.8316 12.3772 21.9908 15.5076 22 18.752C21.9982 19.2721 21.9653 19.7917 21.9014 20.3077C21.8825 20.4695 21.8144 20.6211 21.7069 20.7411C21.5994 20.8612 21.4578 20.9435 21.3022 20.9766L21.1505 20.9999ZM10.2437 13.2217C12.1781 13.1932 14.0955 13.5957 15.8634 14.4015C17.6312 15.2072 19.2074 16.397 20.4831 17.8886C20.2549 15.067 19.0538 12.421 17.0953 10.4253C15.1368 8.4297 12.5491 7.21497 9.79623 6.99903C9.60713 6.98151 9.43131 6.89189 9.30352 6.74787C9.17573 6.60386 9.10526 6.41593 9.10603 6.22121V2.65098L1.83231 10.1103L9.10603 17.5697V13.9995C9.10603 13.7932 9.18594 13.5953 9.32818 13.4495C9.47042 13.3036 9.66334 13.2217 9.8645 13.2217H10.2741H10.2437Z" fill="black"/>
</svg>
