<svg width="25" height="23" viewBox="0 0 25 23" fill="none" xmlns="http://www.w3.org/2000/svg">
<path d="M21.25 7.66667C20.2083 7.66667 19.3229 7.29398 18.5938 6.54861C17.8646 5.80324 17.5 4.89815 17.5 3.83333C17.5 2.76852 17.8646 1.86343 18.5938 1.11806C19.3229 0.372685 20.2083 0 21.25 0C22.2917 0 23.1771 0.372685 23.9062 1.11806C24.6354 1.86343 25 2.76852 25 3.83333C25 4.89815 24.6354 5.80324 23.9062 6.54861C23.1771 7.29398 22.2917 7.66667 21.25 7.66667ZM2.5 23C1.8125 23 1.22417 22.75 0.735 22.2499C0.245 21.7491 0 21.1472 0 20.4444V5.11111C0 4.40833 0.245 3.80693 0.735 3.30689C1.22417 2.806 1.8125 2.55556 2.5 2.55556H15.125C15.0417 2.98148 15 3.40741 15 3.83333C15 4.25926 15.0417 4.68519 15.125 5.11111C15.2708 5.79259 15.5104 6.42594 15.8438 7.01117C16.1771 7.59724 16.5833 8.11389 17.0625 8.56111L12.5 11.5L2.5 5.11111V7.66667L12.5 14.0556L19.0938 9.83889C19.4479 9.96667 19.8021 10.0625 20.1562 10.1264C20.5104 10.1903 20.875 10.2222 21.25 10.2222C21.9167 10.2222 22.5729 10.1157 23.2188 9.90278C23.8646 9.68981 24.4583 9.37037 25 8.94444V20.4444C25 21.1472 24.7554 21.7491 24.2663 22.2499C23.7763 22.75 23.1875 23 22.5 23H2.5Z" fill="#999999"/>
</svg>
