<svg width="26" height="23" viewBox="0 0 26 23" fill="none" xmlns="http://www.w3.org/2000/svg">
<path d="M7.00012 11.5C7.00012 11.2227 7.10548 10.9568 7.29302 10.7608C7.48056 10.5647 7.73492 10.4545 8.00014 10.4545H17.0003V3.65909C17.0003 1.56818 14.8884 0 13.0002 0H3.50006C2.57209 0.00103776 1.68242 0.386881 1.02624 1.07287C0.370067 1.75886 0.000992659 2.68896 0 3.65909V19.3409C0.000992659 20.311 0.370067 21.2411 1.02624 21.9271C1.68242 22.6131 2.57209 22.999 3.50006 23H13.5002C14.4282 22.999 15.3179 22.6131 15.9741 21.9271C16.6302 21.2411 16.9993 20.311 17.0003 19.3409V12.5455H8.00014C7.73492 12.5455 7.48056 12.4353 7.29302 12.2392C7.10548 12.0432 7.00012 11.7773 7.00012 11.5ZM25.7073 10.761L20.7072 5.53372C20.5182 5.34594 20.2664 5.24279 20.0057 5.24628C19.7449 5.24978 19.4957 5.35962 19.3113 5.55241C19.1269 5.74519 19.0219 6.00566 19.0185 6.27827C19.0152 6.55088 19.1138 6.81408 19.2935 7.01173L22.586 10.4545H17.0003V12.5455H22.586L19.2935 15.9883C19.1967 16.0844 19.1193 16.1998 19.0659 16.3276C19.0124 16.4555 18.984 16.5933 18.9823 16.7328C18.9806 16.8723 19.0056 17.0108 19.0559 17.1401C19.1062 17.2693 19.1807 17.3868 19.2751 17.4854C19.3695 17.5841 19.4818 17.662 19.6055 17.7146C19.7291 17.7672 19.8616 17.7934 19.9951 17.7916C20.1285 17.7898 20.2603 17.7601 20.3826 17.7042C20.5049 17.6483 20.6153 17.5674 20.7072 17.4663L25.7073 12.239C25.8947 12.043 26 11.7772 26 11.5C26 11.2228 25.8947 10.957 25.7073 10.761Z" fill="#999999"/>
</svg>
