<svg width="25" height="22" viewBox="0 0 25 22" fill="none" xmlns="http://www.w3.org/2000/svg">
<path d="M24 3.85714H8.1875M5.3125 3.85714H1M24 18.1429H8.1875M5.3125 18.1429H1M16.8125 11H1M24 11H19.6875M6.75 1C7.13125 1 7.49688 1.15051 7.76647 1.41842C8.03605 1.68633 8.1875 2.04969 8.1875 2.42857V5.28571C8.1875 5.6646 8.03605 6.02796 7.76647 6.29587C7.49688 6.56378 7.13125 6.71429 6.75 6.71429C6.36875 6.71429 6.00312 6.56378 5.73353 6.29587C5.46395 6.02796 5.3125 5.6646 5.3125 5.28571V2.42857C5.3125 2.04969 5.46395 1.68633 5.73353 1.41842C6.00312 1.15051 6.36875 1 6.75 1ZM6.75 15.2857C7.13125 15.2857 7.49688 15.4362 7.76647 15.7041C8.03605 15.972 8.1875 16.3354 8.1875 16.7143V19.5714C8.1875 19.9503 8.03605 20.3137 7.76647 20.5816C7.49688 20.8495 7.13125 21 6.75 21C6.36875 21 6.00312 20.8495 5.73353 20.5816C5.46395 20.3137 5.3125 19.9503 5.3125 19.5714V16.7143C5.3125 16.3354 5.46395 15.972 5.73353 15.7041C6.00312 15.4362 6.36875 15.2857 6.75 15.2857ZM18.25 8.14286C18.6312 8.14286 18.9969 8.29337 19.2665 8.56128C19.536 8.82919 19.6875 9.19255 19.6875 9.57143V12.4286C19.6875 12.8075 19.536 13.1708 19.2665 13.4387C18.9969 13.7066 18.6312 13.8571 18.25 13.8571C17.8688 13.8571 17.5031 13.7066 17.2335 13.4387C16.964 13.1708 16.8125 12.8075 16.8125 12.4286V9.57143C16.8125 9.19255 16.964 8.82919 17.2335 8.56128C17.5031 8.29337 17.8688 8.14286 18.25 8.14286Z" stroke="#B1B6BA" stroke-width="2" stroke-linecap="round" stroke-linejoin="round"/>
</svg>
