<svg width="28" height="26" viewBox="0 0 28 26" fill="none" xmlns="http://www.w3.org/2000/svg">
<path d="M8.4 10.1739C9.73669 10.1739 11.0186 9.63797 11.9638 8.68398C12.909 7.72999 13.44 6.4361 13.44 5.08696C13.44 3.73781 12.909 2.44392 11.9638 1.48993C11.0186 0.535946 9.73669 0 8.4 0C7.06331 0 5.78136 0.535946 4.83618 1.48993C3.891 2.44392 3.36 3.73781 3.36 5.08696C3.36 6.4361 3.891 7.72999 4.83618 8.68398C5.78136 9.63797 7.06331 10.1739 8.4 10.1739ZM24.08 6.21739C24.08 6.73697 23.9786 7.25146 23.7816 7.73149C23.5846 8.21151 23.2959 8.64768 22.9319 9.01507C22.5679 9.38247 22.1357 9.67391 21.6601 9.87274C21.1845 10.0716 20.6748 10.1739 20.16 10.1739C19.6452 10.1739 19.1355 10.0716 18.6599 9.87274C18.1843 9.67391 17.7521 9.38247 17.3881 9.01507C17.0241 8.64768 16.7354 8.21151 16.5384 7.73149C16.3414 7.25146 16.24 6.73697 16.24 6.21739C16.24 5.16806 16.653 4.1617 17.3881 3.41971C18.1233 2.67772 19.1204 2.26087 20.16 2.26087C21.1996 2.26087 22.1967 2.67772 22.9319 3.41971C23.667 4.1617 24.08 5.16806 24.08 6.21739ZM0 14.9783C0 14.3037 0.265499 13.6567 0.738091 13.1798C1.21068 12.7028 1.85165 12.4348 2.52 12.4348H14.28C14.5018 12.4348 14.7168 12.4642 14.9218 12.5184C14.0985 13.3092 13.4432 14.2608 12.9959 15.3153C12.5486 16.3698 12.3187 17.5051 12.32 18.6522C12.32 19.4039 12.4163 20.1319 12.5989 20.8249C11.5069 21.2262 10.1315 21.4783 8.4 21.4783C0 21.4783 0 15.5435 0 15.5435V14.9783ZM28 18.6522C28 20.6009 27.233 22.4699 25.8677 23.8479C24.5025 25.2259 22.6508 26 20.72 26C18.7892 26 16.9375 25.2259 15.5723 23.8479C14.207 22.4699 13.44 20.6009 13.44 18.6522C13.44 16.7034 14.207 14.8345 15.5723 13.4565C16.9375 12.0785 18.7892 11.3043 20.72 11.3043C22.6508 11.3043 24.5025 12.0785 25.8677 13.4565C27.233 14.8345 28 16.7034 28 18.6522ZM21.28 14.1304C21.28 13.9805 21.221 13.8368 21.116 13.7308C21.011 13.6248 20.8685 13.5652 20.72 13.5652C20.5715 13.5652 20.429 13.6248 20.324 13.7308C20.219 13.8368 20.16 13.9805 20.16 14.1304V18.087H16.24C16.0915 18.087 15.949 18.1465 15.844 18.2525C15.739 18.3585 15.68 18.5023 15.68 18.6522C15.68 18.8021 15.739 18.9458 15.844 19.0518C15.949 19.1578 16.0915 19.2174 16.24 19.2174H20.16V23.1739C20.16 23.3238 20.219 23.4676 20.324 23.5736C20.429 23.6796 20.5715 23.7391 20.72 23.7391C20.8685 23.7391 21.011 23.6796 21.116 23.5736C21.221 23.4676 21.28 23.3238 21.28 23.1739V19.2174H25.2C25.3485 19.2174 25.491 19.1578 25.596 19.0518C25.701 18.9458 25.76 18.8021 25.76 18.6522C25.76 18.5023 25.701 18.3585 25.596 18.2525C25.491 18.1465 25.3485 18.087 25.2 18.087H21.28V14.1304Z" fill="#ebebeb"/>
</svg>
