<svg width="20" height="22" viewBox="0 0 20 22" fill="white" xmlns="http://www.w3.org/2000/svg">
<path d="M2 4H4V5C4 6.1 4.9 7 6 7H12C13.1 7 14 6.1 14 5V4H16V9H18V4C18 2.9 17.1 2 16 2H11.82C11.4 0.84 10.3 0 9 0C7.7 0 6.6 0.84 6.18 2H2C0.9 2 0 2.9 0 4V18C0 19.1 0.9 20 2 20H7V18H2V4ZM9 2C9.55 2 10 2.45 10 3C10 3.55 9.55 4 9 4C8.45 4 8 3.55 8 3C8 2.45 8.45 2 9 2Z" fill="black"/>
<path d="M19.2995 19.9L17.2995 17.9C17.8795 16.89 18.2495 15.67 17.8095 14.25C17.2795 12.53 15.7695 11.2 13.9695 11.03C13.3021 10.9588 12.6271 11.0379 11.9941 11.2614C11.3611 11.485 10.7862 11.8474 10.3116 12.3221C9.8369 12.7967 9.47449 13.3716 9.25093 14.0046C9.02736 14.6376 8.9483 15.3126 9.01955 15.98C9.19955 17.77 10.5195 19.29 12.2395 19.82C13.6695 20.26 14.8795 19.89 15.8895 19.31L17.8895 21.31C18.2795 21.7 18.8995 21.7 19.2895 21.31C19.6795 20.92 19.6895 20.29 19.2995 19.9ZM13.4995 18C12.0995 18 10.9995 16.9 10.9995 15.5C10.9995 14.1 12.0995 13 13.4995 13C14.8995 13 15.9995 14.1 15.9995 15.5C15.9995 16.9 14.8995 18 13.4995 18Z" fill="black"/>
</svg>
