<svg width="19" height="18" viewBox="0 0 19 18" fill="none" xmlns="http://www.w3.org/2000/svg">
<defs>
<linearGradient id="paint0_linear_294_33565" x1="4.50751" y1="17.8944" x2="4.50751" y2="9.55088" gradientUnits="userSpaceOnUse">
<stop stop-color="#009E89"/>
<stop offset="1" stop-color="#00BFA5"/>
</linearGradient>
<linearGradient id="paint1_linear_294_33565" x1="0.601001" y1="17.937" x2="0.601001" y2="13.7859" gradientUnits="userSpaceOnUse">
<stop offset="0.6037" stop-color="#FFCA28"/>
<stop offset="1" stop-color="#FFB300"/>
</linearGradient>
<radialGradient id="paint2_radial_294_33565" cx="0" cy="0" r="1" gradientUnits="userSpaceOnUse" gradientTransform="translate(4.43646 4.23522) scale(3.74631 4.22659)">
<stop offset="0.7945" stop-color="#6D4C41" stop-opacity="0"/>
<stop offset="1" stop-color="#6D4C41"/>
</radialGradient>
<radialGradient id="paint3_radial_294_33565" cx="0" cy="0" r="1" gradientUnits="userSpaceOnUse" gradientTransform="translate(13.4293 5.49761) scale(4.70327 5.59736)">
<stop offset="0.7936" stop-color="#6D4C41" stop-opacity="0"/>
<stop offset="1" stop-color="#6D4C41"/>
</radialGradient>
<linearGradient id="paint4_linear_294_33565" x1="13.5225" y1="17.8944" x2="13.5225" y2="9.50047" gradientUnits="userSpaceOnUse">
<stop stop-color="#530EEB"/>
<stop offset="1" stop-color="#651FFF"/>
</linearGradient>
<linearGradient id="paint5_linear_294_33565" x1="17.4292" y1="17.937" x2="17.4292" y2="13.7859" gradientUnits="userSpaceOnUse">
<stop offset="0.6037" stop-color="#FFCA28"/>
<stop offset="1" stop-color="#FFB300"/>
</linearGradient>
<radialGradient id="paint6_radial_294_33565" cx="0" cy="0" r="1" gradientUnits="userSpaceOnUse" gradientTransform="translate(13.4625 5.89637) scale(4.92646 5.97826)">
<stop offset="0.7945" stop-color="#6D4C41" stop-opacity="0"/>
<stop offset="1" stop-color="#6D4C41"/>
</radialGradient>
<radialGradient id="paint7_radial_294_33565" cx="0" cy="0" r="1" gradientUnits="userSpaceOnUse" gradientTransform="translate(9.01513 13.6389) scale(4.07231 5.93254)">
<stop offset="0.5941" stop-color="#212121"/>
<stop offset="1" stop-color="#616161" stop-opacity="0.05"/>
</radialGradient>
<radialGradient id="paint8_radial_294_33565" cx="0" cy="0" r="1" gradientUnits="userSpaceOnUse" gradientTransform="translate(7.70361 15.2008) rotate(30.1059) scale(1.47806 0.976455)">
<stop offset="0.5255" stop-color="#6D4C41" stop-opacity="0"/>
<stop offset="1" stop-color="#6D4C41"/>
</radialGradient>
<radialGradient id="paint9_radial_294_33565" cx="0" cy="0" r="1" gradientUnits="userSpaceOnUse" gradientTransform="translate(2.90235 15.1982) rotate(149.894) scale(1.4037 0.927331)">
<stop offset="0.5255" stop-color="#6D4C41" stop-opacity="0"/>
<stop offset="1" stop-color="#6D4C41"/>
</radialGradient>
<radialGradient id="paint10_radial_294_33565" cx="0" cy="0" r="1" gradientUnits="userSpaceOnUse" gradientTransform="translate(5.33499 12.1082) scale(3.67937 3.23567)">
<stop offset="0.6851" stop-color="#6D4C41" stop-opacity="0"/>
<stop offset="1" stop-color="#6D4C41"/>
</radialGradient>
<radialGradient id="paint11_radial_294_33565" cx="0" cy="0" r="1" gradientUnits="userSpaceOnUse" gradientTransform="translate(12.7097 12.2908) rotate(90) scale(3.86252 3.37009)">
<stop offset="0.7945" stop-color="#6D4C41" stop-opacity="0"/>
<stop offset="1" stop-color="#6D4C41"/>
</radialGradient>
</defs>
<path d="M9.01501 12.6511V18H0V10.9427C0.576961 10.2215 1.51001 9.73923 2.53322 9.49583C3.15676 9.34858 3.81635 9.26294 4.49549 9.26294C4.6818 9.26294 4.86961 9.26895 5.05892 9.28397C5.32186 9.302 5.5848 9.33356 5.85074 9.37863C7.63572 9.68665 9.01501 10.806 9.01501 12.6511Z" fill="url(#paint0_linear_294_33565)"/>
<path d="M4.42639 10.5055C3.84492 10.5055 3.37463 10.0352 3.37463 9.45374V8.48914H5.47814V9.45374C5.47814 10.0352 5.00635 10.5055 4.42639 10.5055Z" fill="#E59600"/>
<path d="M0 13.793V13.9432V14.0935V18H0.907511H1.05175H1.202V13.793H0Z" fill="url(#paint1_linear_294_33565)"/>
<path d="M7.13394 4.58862H1.71742C1.13295 4.58862 0.655151 5.09797 0.655151 5.72001C0.655151 6.34204 1.13295 6.85139 1.71742 6.85139H7.13394C7.71841 6.85139 8.19621 6.34204 8.19621 5.72001C8.19621 5.09797 7.71841 4.58862 7.13394 4.58862Z" fill="#E59600"/>
<path d="M4.42616 0.587402C2.70129 0.587402 1.10413 2.43247 1.10413 5.08589C1.10413 7.72579 2.74937 9.03146 4.42616 9.03146C6.10295 9.03146 7.74819 7.72579 7.74819 5.08589C7.74819 2.43247 6.15103 0.587402 4.42616 0.587402Z" fill="#FFCA28"/>
<path d="M5.26022 7.11283C4.94469 7.30064 3.90947 7.30064 3.59394 7.11283C3.41214 7.00465 3.22733 7.16992 3.30246 7.3352C3.37608 7.49747 3.94102 7.87309 4.42934 7.87309C4.91765 7.87309 5.47508 7.49747 5.5487 7.3352C5.62533 7.16992 5.44202 7.00465 5.26022 7.11283Z" fill="#795548"/>
<path d="M4.808 6.31052C4.79748 6.30601 4.78696 6.30301 4.77645 6.30301H4.07478C4.06426 6.30451 4.05374 6.30752 4.04322 6.31052C3.98012 6.33606 3.94406 6.40217 3.97561 6.47279C4.00566 6.54341 4.14539 6.74024 4.42636 6.74024C4.70733 6.74024 4.84706 6.54341 4.87711 6.47279C4.90716 6.40217 4.87261 6.33606 4.808 6.31052Z" fill="#E59600"/>
<path d="M2.79764 5.91082C3.06733 5.91082 3.28595 5.68412 3.28595 5.40448C3.28595 5.12483 3.06733 4.89813 2.79764 4.89813C2.52795 4.89813 2.30933 5.12483 2.30933 5.40448C2.30933 5.68412 2.52795 5.91082 2.79764 5.91082Z" fill="#404040"/>
<path d="M6.05509 5.91082C6.32477 5.91082 6.5434 5.68412 6.5434 5.40448C6.5434 5.12483 6.32477 4.89813 6.05509 4.89813C5.7854 4.89813 5.56677 5.12483 5.56677 5.40448C5.56677 5.68412 5.7854 5.91082 6.05509 5.91082Z" fill="#404040"/>
<path d="M2.04644 4.55411C2.04644 4.55411 2.31388 4.20102 2.79318 4.20102C3.27248 4.20102 3.54593 4.55861 3.54593 4.55861C3.59552 4.62923 3.58049 4.72539 3.50987 4.77648C3.4678 4.80653 3.41522 4.81254 3.36864 4.79751C3.36864 4.79751 3.2229 4.7314 3.08617 4.69835C2.94944 4.66529 2.79919 4.65478 2.65044 4.6713C2.42507 4.69685 2.24026 4.793 2.24026 4.793C2.09752 4.8516 1.95929 4.68332 2.04644 4.55411Z" fill="#6D4C41"/>
<path d="M6.80615 4.55411C6.80615 4.55411 6.53871 4.20102 6.05941 4.20102C5.58011 4.20102 5.30666 4.55861 5.30666 4.55861C5.25708 4.62923 5.2721 4.72539 5.34272 4.77648C5.38479 4.80653 5.43738 4.81254 5.48395 4.79751C5.48395 4.79751 5.6297 4.7314 5.76642 4.69835C5.90315 4.66529 6.0534 4.65478 6.20215 4.6713C6.42752 4.69534 6.61083 4.793 6.61083 4.793C6.75507 4.8516 6.8918 4.68332 6.80615 4.55411Z" fill="#6D4C41"/>
<path d="M4.43811 0H4.43661H4.43511C-0.0333329 0.02404 0.881691 5.12804 0.881691 5.12804C0.881691 5.12804 1.08152 5.65392 1.17318 5.8868C1.1867 5.91986 1.23478 5.91685 1.24229 5.88079C1.33845 5.45408 1.68102 3.94106 1.85381 3.4813C1.95598 3.21085 2.23695 3.05308 2.52242 3.10417C2.95965 3.1838 3.65831 3.28146 4.4276 3.28146H4.43661C4.43661 3.28146 4.44262 3.28146 4.44563 3.28146C5.21491 3.28146 5.91207 3.1838 6.3508 3.10417C6.63627 3.05308 6.91724 3.21085 7.01941 3.4813C7.1922 3.93956 7.53327 5.44357 7.62943 5.87629C7.63694 5.91235 7.68652 5.91535 7.70005 5.88079L7.99303 5.12654C7.99153 5.12804 8.90655 0.02404 4.43811 0Z" fill="#543930"/>
<path d="M7.99156 5.12804C7.99156 5.12804 8.90658 0.02404 4.43814 0H4.43664H4.43514C4.36602 0 4.29691 0.00150253 4.2308 0.00450754C4.09707 0.0105175 3.96936 0.021035 3.84615 0.0345576C3.84465 0.0345576 3.84315 0.0345576 3.84315 0.0345576C3.83413 0.0360601 3.82662 0.0375626 3.81761 0.0375626C0.0538394 0.512353 0.881718 5.12804 0.881718 5.12804L1.17471 5.8838C1.18823 5.91685 1.23631 5.91385 1.24382 5.87929C1.33998 5.44807 1.68255 3.94106 1.85534 3.4828C1.95751 3.21235 2.23848 3.05459 2.52395 3.10567C2.96118 3.1853 3.65984 3.28297 4.42913 3.28297H4.43814C4.43814 3.28297 4.44415 3.28297 4.44716 3.28297C5.21644 3.28297 5.9136 3.1853 6.35233 3.10567C6.6378 3.05459 6.91877 3.21235 7.02094 3.4828C7.19373 3.94407 7.5378 5.45859 7.63246 5.8838C7.63997 5.91836 7.68805 5.92286 7.70157 5.88831C7.79022 5.65542 7.99156 5.12804 7.99156 5.12804Z" fill="url(#paint2_radial_294_33565)"/>
<path d="M13.4851 0C9.42679 0 9.45985 3.75175 9.45985 3.81185C9.45985 6.24139 9.64616 9.67461 10.6183 11.0254C11.0044 11.5603 11.7497 11.5903 11.7497 11.5903L13.4295 11.5873L15.1093 11.5903C15.1093 11.5903 15.8545 11.5603 16.2406 11.0254C17.2128 9.67461 17.3991 6.24139 17.3991 3.81185C17.3976 3.75175 17.5433 0 13.4851 0Z" fill="#543930"/>
<path d="M13.4851 0C9.42679 0 9.45985 3.75175 9.45985 3.81185C9.45985 6.24139 9.64616 9.67461 10.6183 11.0254C11.0044 11.5603 11.7497 11.5903 11.7497 11.5903L13.4295 11.5873L15.1093 11.5903C15.1093 11.5903 15.8545 11.5603 16.2406 11.0254C17.2128 9.67461 17.3991 6.24139 17.3991 3.81185C17.3976 3.75175 17.5433 0 13.4851 0Z" fill="url(#paint3_radial_294_33565)"/>
<path d="M18.03 10.9427V18H9.01501V12.6511C9.01501 10.8195 10.3748 9.70317 12.1402 9.38614C12.1537 9.38314 12.1658 9.38014 12.1793 9.37863C12.2544 9.36511 12.331 9.35459 12.4062 9.34407C12.4798 9.33356 12.5534 9.32304 12.627 9.31553C12.7007 9.30651 12.7743 9.299 12.8479 9.29299C12.8524 9.29299 12.8569 9.29299 12.8614 9.29149C12.9305 9.28698 13.0012 9.28247 13.0718 9.27796C13.2265 9.26745 13.3813 9.26294 13.533 9.26294C14.2137 9.26294 14.8733 9.34858 15.4968 9.49583C16.52 9.73923 17.4531 10.2215 18.03 10.9427Z" fill="url(#paint4_linear_294_33565)"/>
<path d="M13.4293 10.5116C12.8478 10.5116 12.3776 10.0413 12.3776 9.45982V8.49521H14.4811V9.45982C14.4811 10.0413 14.0108 10.5116 13.4293 10.5116Z" fill="#E59600"/>
<path d="M16.8282 13.793V18H16.9785H17.1227H18.0302V14.0935V13.9432V13.793H16.8282Z" fill="url(#paint5_linear_294_33565)"/>
<path d="M13.4039 1.14938C11.6971 1.14938 10.1165 2.419 10.1165 5.10998C10.1165 7.27208 11.4552 8.55071 12.6211 8.96239C12.8991 9.06006 13.1665 9.10964 13.4054 9.10964C13.6413 9.10964 13.9088 9.06006 14.1837 8.9639C15.3497 8.55371 16.6929 7.27358 16.6929 5.10998C16.6914 2.4175 15.1108 1.14938 13.4039 1.14938Z" fill="#FFCA28"/>
<path d="M14.2541 7.11279C13.9416 7.2991 12.9183 7.2991 12.6058 7.11279C12.427 7.00611 12.2437 7.16989 12.3173 7.33216C12.391 7.49293 12.9499 7.86404 13.4322 7.86404C13.9145 7.86404 14.4659 7.49293 14.5395 7.33216C14.6147 7.16838 14.4344 7.00611 14.2541 7.11279Z" fill="#795548"/>
<path d="M13.808 6.31052C13.7975 6.30601 13.787 6.30451 13.7765 6.30301H13.0823C13.0718 6.30451 13.0613 6.30752 13.0508 6.31052C12.9877 6.33606 12.9531 6.40067 12.9832 6.46979C13.0132 6.5389 13.1514 6.73423 13.4294 6.73423C13.7074 6.73423 13.8456 6.5389 13.8756 6.46979C13.9057 6.40067 13.8711 6.33606 13.808 6.31052Z" fill="#E59600"/>
<path d="M11.8169 5.8988C12.0833 5.8988 12.2992 5.67479 12.2992 5.39847C12.2992 5.12214 12.0833 4.89813 11.8169 4.89813C11.5505 4.89813 11.3346 5.12214 11.3346 5.39847C11.3346 5.67479 11.5505 5.8988 11.8169 5.8988Z" fill="#404040"/>
<path d="M15.0414 5.8988C15.3078 5.8988 15.5237 5.67479 15.5237 5.39847C15.5237 5.12214 15.3078 4.89813 15.0414 4.89813C14.775 4.89813 14.5591 5.12214 14.5591 5.39847C14.5591 5.67479 14.775 5.8988 15.0414 5.8988Z" fill="#404040"/>
<path d="M12.5356 4.50002C12.4439 4.37831 12.2306 4.20102 11.8174 4.20102C11.4042 4.20102 11.1908 4.37831 11.0992 4.50002C11.0586 4.55411 11.0691 4.61571 11.0977 4.65327C11.1232 4.68783 11.2013 4.72089 11.287 4.69234C11.3726 4.66379 11.5394 4.57665 11.8189 4.57514C12.0983 4.57665 12.2651 4.66379 12.3507 4.69234C12.4364 4.72089 12.513 4.68933 12.5401 4.65327C12.5656 4.61721 12.5761 4.55411 12.5356 4.50002Z" fill="#6D4C41"/>
<path d="M15.7597 4.50002C15.668 4.37831 15.4547 4.20102 15.0415 4.20102C14.6283 4.20102 14.4149 4.37831 14.3233 4.50002C14.2827 4.55411 14.2932 4.61571 14.3218 4.65327C14.3473 4.68783 14.4255 4.72089 14.5111 4.69234C14.5967 4.66379 14.7635 4.57665 15.043 4.57514C15.3225 4.57665 15.4892 4.66379 15.5749 4.69234C15.6605 4.72089 15.7371 4.68933 15.7642 4.65327C15.7897 4.61721 15.8002 4.55411 15.7597 4.50002Z" fill="#6D4C41"/>
<path d="M13.4851 0C9.42679 0 9.45985 3.75175 9.45985 3.81185C9.45985 4.57963 9.47788 5.44657 9.53497 6.31802L10.7009 8.65141C10.7009 8.65141 10.4996 6.82286 10.477 5.5833C10.474 5.42403 10.447 5.02437 10.5236 4.67579C10.6423 4.3813 10.7986 4.15292 10.9999 4.10784C13.2116 3.61051 14.4647 2.43706 14.4647 2.43706C14.7907 3.14774 15.8079 3.8419 16.1745 4.10484C16.2782 4.17996 16.3563 4.42186 16.4149 4.72236C16.4465 5.03338 16.4345 5.37445 16.4315 5.57428L16.1295 8.6454L17.3239 6.31952C17.3239 6.31502 17.3254 6.30901 17.3269 6.3045C17.3825 5.43906 17.4006 4.57662 17.4006 3.81335C17.3976 3.75175 17.5433 0 13.4851 0Z" fill="#543930"/>
<path d="M13.4851 0C9.42679 0 9.45985 3.75175 9.45985 3.81185C9.45985 4.57963 9.47788 5.44657 9.53497 6.31802L10.1991 6.31652C10.1931 6.02804 10.3959 4.24156 10.9984 4.10634C13.2101 3.60901 14.4632 2.43556 14.4632 2.43556C14.7892 3.14624 15.8064 3.8404 16.173 4.10333C16.4735 4.31969 16.5652 5.93939 16.5592 6.31802H17.3209C17.3209 6.31351 17.3224 6.3075 17.3239 6.303C17.3795 5.43755 17.3976 4.57512 17.3976 3.81185C17.3976 3.75175 17.5433 0 13.4851 0Z" fill="url(#paint6_radial_294_33565)"/>
<path opacity="0.4" d="M13.0719 9.27789V17.9999H4.95837V9.2824C4.99143 9.2824 5.02599 9.2839 5.05904 9.2839C5.32198 9.30193 5.58492 9.33349 5.85086 9.37856C7.63583 9.68657 9.01513 10.8059 9.01513 12.651C9.01513 10.8195 10.3749 9.7031 12.1403 9.38607C12.1554 9.38307 12.1704 9.38157 12.1854 9.37856C12.259 9.36654 12.3327 9.35452 12.4063 9.344C12.4799 9.33349 12.5535 9.32297 12.6271 9.31546C12.7008 9.30644 12.7744 9.29893 12.848 9.29292C12.8525 9.29292 12.857 9.29292 12.8615 9.29142C12.9307 9.28691 13.0013 9.2824 13.0719 9.27789Z" fill="url(#paint7_radial_294_33565)"/>
<path d="M8.5523 17.6965C8.5523 16.218 6.67267 15.7222 6.01758 15.7222H4.60824C3.95465 15.7222 2.07201 16.218 2.07201 17.6965C2.07201 17.6965 2.07051 17.8152 2.0675 18H2.22076H2.36801H8.25631H8.40356H8.55681C8.55381 17.8467 8.5523 17.6965 8.5523 17.6965Z" fill="#E1BEE7"/>
<path d="M5.3114 16.8431C4.92075 16.8431 4.62476 16.5546 4.62476 16.1985V15.8409H6.05664V16.1985C6.05814 16.5546 5.70355 16.8431 5.3114 16.8431Z" fill="#E59600"/>
<path d="M2.52727 16.0573L2.62043 15.6185L1.81058 15.8214C1.81058 15.8214 1.75348 15.0401 2.45065 14.5893C3.21542 14.095 4.09438 14.6224 4.09438 14.6224C4.09438 14.6224 4.00724 15.2129 3.48437 15.7192C3.13128 16.0603 2.52727 16.0573 2.52727 16.0573Z" fill="#543930"/>
<path d="M8.10141 16.0573L8.00826 15.6185L8.8181 15.8214C8.8181 15.8214 8.8752 15.0401 8.17804 14.5893C7.41327 14.095 6.5343 14.6224 6.5343 14.6224C6.5343 14.6224 6.62145 15.2129 7.14432 15.7192C7.49741 16.0603 8.10141 16.0573 8.10141 16.0573Z" fill="#543930"/>
<path d="M8.10141 16.0573L8.00826 15.6185L8.8181 15.8214C8.8181 15.8214 8.8752 15.0401 8.17804 14.5893C7.41327 14.095 6.5343 14.6224 6.5343 14.6224C6.5343 14.6224 6.62145 15.2129 7.14432 15.7192C7.49741 16.0603 8.10141 16.0573 8.10141 16.0573Z" fill="url(#paint8_radial_294_33565)"/>
<path d="M2.50591 16.0573L2.59907 15.6185L1.78922 15.8214C1.78922 15.8214 1.73212 15.0401 2.42928 14.5893C3.19406 14.095 4.07302 14.6224 4.07302 14.6224C4.07302 14.6224 3.98587 15.2129 3.463 15.7192C3.10992 16.0603 2.50591 16.0573 2.50591 16.0573Z" fill="url(#paint9_radial_294_33565)"/>
<path d="M7.55921 12.7728H6.96272H3.72633H3.12833C2.65054 12.7728 2.25989 13.1484 2.25989 13.6082C2.25989 14.0679 2.65054 14.4435 3.12833 14.4435H3.72633H6.96122H7.55771C8.03551 14.4435 8.36756 14.0679 8.36756 13.6082C8.36756 13.1484 8.03701 12.7728 7.55921 12.7728Z" fill="#E59600"/>
<path d="M5.31299 9.32599C3.91116 9.32599 2.6731 10.7984 2.6731 12.917C2.6731 15.0235 4.15607 16.0662 5.31299 16.0662C6.46992 16.0662 7.95289 15.025 7.95289 12.917C7.95289 10.7969 6.71332 9.32599 5.31299 9.32599Z" fill="#FFCA28"/>
<path d="M5.96483 14.5518C5.71842 14.6975 4.91308 14.6975 4.66667 14.5518C4.52543 14.4677 4.38119 14.5969 4.43979 14.7246C4.49688 14.8508 4.93712 15.1438 5.31725 15.1438C5.69738 15.1438 6.13161 14.8508 6.1887 14.7246C6.2473 14.5969 6.10606 14.4677 5.96483 14.5518Z" fill="#795548"/>
<path d="M5.61172 13.9012C5.6042 13.8981 5.59519 13.8951 5.58617 13.8951H5.04076C5.03175 13.8966 5.02424 13.8981 5.01522 13.9012C4.96564 13.9207 4.93859 13.9718 4.96263 14.0274C4.98667 14.0815 5.09485 14.2347 5.31422 14.2347C5.53359 14.2347 5.64177 14.0815 5.66581 14.0274C5.68834 13.9718 5.6613 13.9207 5.61172 13.9012Z" fill="#E59600"/>
<path d="M4.03138 13.8966C4.24132 13.8966 4.41151 13.7204 4.41151 13.503C4.41151 13.2856 4.24132 13.1093 4.03138 13.1093C3.82144 13.1093 3.65125 13.2856 3.65125 13.503C3.65125 13.7204 3.82144 13.8966 4.03138 13.8966Z" fill="#404040"/>
<path d="M6.59742 13.8966C6.80736 13.8966 6.97755 13.7204 6.97755 13.503C6.97755 13.2856 6.80736 13.1093 6.59742 13.1093C6.38748 13.1093 6.21729 13.2856 6.21729 13.503C6.21729 13.7204 6.38748 13.8966 6.59742 13.8966Z" fill="#404040"/>
<path d="M3.43617 12.8027C3.4512 12.7832 3.4557 12.7712 3.48275 12.7441C3.54285 12.681 3.66004 12.6059 3.77423 12.5668C3.88392 12.5293 3.935 12.5293 4.01764 12.5293C4.14535 12.5293 4.22348 12.5563 4.26104 12.5668C4.31363 12.5849 4.36321 12.6089 4.4128 12.6359C4.49543 12.6855 4.67423 12.8072 4.62014 12.9169C4.56004 13.0386 4.46839 12.9935 4.38575 12.962C4.34969 12.9515 4.18742 12.8869 4.01614 12.8869C3.92298 12.8869 3.88392 12.8974 3.85837 12.9004C3.74869 12.9184 3.66605 12.953 3.65103 12.9575C3.59393 12.98 3.55337 13.0131 3.48876 12.9875C3.42115 12.9575 3.3926 12.8673 3.43617 12.8027Z" fill="#6D4C41"/>
<path d="M7.19264 12.8027C7.17762 12.7832 7.17311 12.7712 7.14607 12.7441C7.08597 12.681 6.96877 12.6059 6.85458 12.5668C6.7449 12.5293 6.69381 12.5293 6.61117 12.5293C6.48346 12.5293 6.40533 12.5563 6.36777 12.5668C6.31518 12.5849 6.2656 12.6089 6.21602 12.6359C6.13338 12.6855 5.95458 12.8072 6.00867 12.9169C6.06877 13.0386 6.16042 12.9935 6.24306 12.962C6.27912 12.9515 6.44139 12.8869 6.61268 12.8869C6.70583 12.8869 6.7449 12.8974 6.76894 12.9004C6.87862 12.9184 6.96126 12.953 6.97628 12.9575C7.03338 12.98 7.07394 13.0131 7.13855 12.9875C7.20767 12.9575 7.23621 12.8673 7.19264 12.8027Z" fill="#6D4C41"/>
<path d="M7.65189 9.8729C7.30181 9.50779 6.96675 9.37406 6.93369 9.36956C6.52651 9.18325 6.00214 9.03149 5.32301 9.03149C2.33604 9.03149 2.1332 11.4655 2.2534 12.5368C2.35857 13.4819 2.90999 13.7148 2.90999 13.7148L2.81984 12.6465C2.81984 12.6465 3.88812 12.319 4.4786 11.9208C5.06007 11.5287 5.30198 11.2612 5.30198 11.2612C5.30198 11.2612 5.48228 11.4535 6.11934 11.9133C6.78044 12.3911 7.7781 12.6525 7.7781 12.6525L7.70147 13.7148C7.70147 13.7148 8.27993 13.4834 8.36257 12.5368C8.46775 11.3514 8.32651 10.6422 7.65189 9.8729Z" fill="#543930"/>
<path d="M7.65189 9.8729C7.30181 9.50779 6.96675 9.37406 6.93369 9.36956C6.52651 9.18325 6.00214 9.03149 5.32301 9.03149C2.33604 9.03149 2.1332 11.4655 2.2534 12.5368C2.35857 13.4819 2.90999 13.7148 2.90999 13.7148L2.81984 12.6465C2.81984 12.6465 3.88812 12.319 4.4786 11.9208C5.06007 11.5287 5.30198 11.2612 5.30198 11.2612C5.30198 11.2612 5.48228 11.4535 6.11934 11.9133C6.78044 12.3911 7.7781 12.6525 7.7781 12.6525L7.70147 13.7148C7.70147 13.7148 8.27993 13.4834 8.36257 12.5368C8.46775 11.3514 8.32651 10.6422 7.65189 9.8729Z" fill="url(#paint10_radial_294_33565)"/>
<path d="M15.9609 17.6934C15.9609 16.215 14.0812 15.7191 13.4262 15.7191H12.0168C11.3632 15.7191 9.48058 16.215 9.48058 17.6934C9.48058 17.6934 9.47908 17.8121 9.47607 17.9969H9.62933H9.77507H15.6634H15.8106H15.9639C15.9624 17.8452 15.9609 17.6934 15.9609 17.6934Z" fill="#B2EBF2"/>
<path d="M12.7219 16.8416C12.3327 16.8416 12.0172 16.526 12.0172 16.1369V15.596H13.4281V16.1369C13.4266 16.526 13.111 16.8416 12.7219 16.8416Z" fill="#E59600"/>
<path d="M14.9351 12.7698H14.3386H11.1037H10.5072C10.0294 12.7698 9.63879 13.1454 9.63879 13.6052C9.63879 14.0649 10.0294 14.4406 10.5072 14.4406H11.1037H14.3386H14.9351C15.4129 14.4406 15.8036 14.0649 15.8036 13.6052C15.8036 13.1454 15.4129 12.7698 14.9351 12.7698Z" fill="#E59600"/>
<path d="M12.7218 9.32309C11.32 9.32309 10.0233 10.7955 10.0233 12.9126C10.0233 15.0191 11.3605 16.0618 12.7218 16.0618C14.0831 16.0618 15.4203 15.0206 15.4203 12.9126C15.4203 10.7955 14.1221 9.32309 12.7218 9.32309Z" fill="#FFCA28"/>
<path d="M13.3707 14.5247C13.1243 14.6704 12.319 14.6704 12.0726 14.5247C11.9313 14.4406 11.7871 14.5698 11.8457 14.6975C11.9028 14.8237 12.343 15.1167 12.7231 15.1167C13.1033 15.1167 13.5375 14.8237 13.5946 14.6975C13.6547 14.5698 13.5119 14.4421 13.3707 14.5247Z" fill="#795548"/>
<path d="M13.0191 13.8996C13.0116 13.8966 13.0026 13.8936 12.9935 13.8936H12.4481C12.4391 13.8951 12.4316 13.8966 12.4226 13.8996C12.373 13.9192 12.346 13.9702 12.3685 14.0258C12.391 14.0814 12.5007 14.2332 12.7201 14.2332C12.9395 14.2332 13.0476 14.0799 13.0717 14.0258C13.0957 13.9702 13.0687 13.9192 13.0191 13.8996Z" fill="#E59600"/>
<path d="M11.4368 13.8937C11.6467 13.8937 11.8169 13.7175 11.8169 13.5C11.8169 13.2826 11.6467 13.1064 11.4368 13.1064C11.2268 13.1064 11.0566 13.2826 11.0566 13.5C11.0566 13.7175 11.2268 13.8937 11.4368 13.8937Z" fill="#404040"/>
<path d="M14.0046 13.8937C14.2146 13.8937 14.3848 13.7175 14.3848 13.5C14.3848 13.2826 14.2146 13.1064 14.0046 13.1064C13.7947 13.1064 13.6245 13.2826 13.6245 13.5C13.6245 13.7175 13.7947 13.8937 14.0046 13.8937Z" fill="#404040"/>
<path d="M10.8433 12.7999C10.8583 12.7803 10.8628 12.7683 10.8899 12.7413C10.9485 12.6782 11.0672 12.603 11.1814 12.564C11.291 12.5264 11.3421 12.5264 11.4248 12.5264C11.5525 12.5264 11.6306 12.5534 11.6682 12.564C11.7208 12.582 11.7703 12.606 11.8199 12.6331C11.9026 12.6827 12.0814 12.8044 12.0273 12.914C11.9672 13.0357 11.8755 12.9907 11.7929 12.9591C11.7568 12.9486 11.5945 12.884 11.4233 12.884C11.3301 12.884 11.291 12.8945 11.267 12.8975C11.1573 12.9155 11.0747 12.9501 11.0597 12.9546C11.0026 12.9771 10.962 13.0102 10.8989 12.9847C10.8283 12.9561 10.7997 12.866 10.8433 12.7999Z" fill="#6D4C41"/>
<path d="M14.5984 12.7999C14.5834 12.7803 14.5789 12.7683 14.5518 12.7413C14.4932 12.6782 14.3745 12.603 14.2603 12.564C14.1507 12.5264 14.0996 12.5264 14.0169 12.5264C13.8892 12.5264 13.8111 12.5534 13.7735 12.564C13.7209 12.582 13.6714 12.606 13.6218 12.6331C13.5391 12.6827 13.3603 12.8044 13.4144 12.914C13.4745 13.0357 13.5662 12.9907 13.6488 12.9591C13.6849 12.9486 13.8472 12.884 14.0184 12.884C14.1116 12.884 14.1507 12.8945 14.1747 12.8975C14.2844 12.9155 14.367 12.9501 14.382 12.9546C14.4391 12.9771 14.4797 13.0102 14.5428 12.9847C14.6134 12.9561 14.642 12.866 14.5984 12.7999Z" fill="#6D4C41"/>
<path d="M12.737 9.00742C9.7425 9.00742 9.53365 11.4535 9.65535 12.5233C9.76203 13.4683 10.2549 13.7012 10.2549 13.7012C10.2549 13.7012 10.1587 12.8764 10.315 12.2784C10.4397 11.8036 10.7357 11.452 10.7357 11.452C10.7357 11.452 11.2766 11.9208 12.2832 12.2258C12.7685 12.373 13.3906 12.2994 13.3906 12.2994L13.042 11.6834C13.042 11.6834 13.6129 12.1026 13.9675 12.1822C14.4228 12.2844 14.7563 12.2408 14.7563 12.2408L14.5896 11.5902C14.5896 11.5902 14.8796 11.7795 15.0959 12.2979C15.3123 12.8163 15.1786 13.7012 15.1786 13.7012C15.1786 13.7012 15.6984 13.4698 15.7826 12.5233C15.8877 11.3363 15.7195 9.00742 12.737 9.00742Z" fill="#543930"/>
<path d="M12.737 9.00742C9.7425 9.00742 9.53365 11.4535 9.65535 12.5233C9.76203 13.4683 10.2549 13.7012 10.2549 13.7012C10.2549 13.7012 10.1587 12.8764 10.315 12.2784C10.4397 11.8036 10.7357 11.452 10.7357 11.452C10.7357 11.452 11.2766 11.9208 12.2832 12.2258C12.7685 12.373 13.3906 12.2994 13.3906 12.2994L13.042 11.6834C13.042 11.6834 13.6129 12.1026 13.9675 12.1822C14.4228 12.2844 14.7563 12.2408 14.7563 12.2408L14.5896 11.5902C14.5896 11.5902 14.8796 11.7795 15.0959 12.2979C15.3123 12.8163 15.1786 13.7012 15.1786 13.7012C15.1786 13.7012 15.6984 13.4698 15.7826 12.5233C15.8877 11.3363 15.7195 9.00742 12.737 9.00742Z" fill="url(#paint11_radial_294_33565)"/>
</svg>
